<svg width="64" height="64" viewBox="0 0 64 64" fill="none" xmlns="http://www.w3.org/2000/svg">
<mask id="mask0_315_3548" style="mask-type:alpha" maskUnits="userSpaceOnUse" x="0" y="0" width="64" height="64">
<rect width="64" height="64" rx="5" fill="#C4C4C4"/>
</mask>
<g mask="url(#mask0_315_3548)">
<g clip-path="url(#clip0_315_3548)">
<path d="M83.4671 44.4444C84.5491 40.5555 85.1673 36.3556 85.1673 32C85.1673 27.6444 84.5491 23.4444 83.4671 19.5555H38.3324L4.17228 -14.3043C-2.01056 -9.94874 -7.11141 -4.03762 -10.6665 2.80682L18.7019 32L-13.6538 64.3347C-10.2532 71.1791 -5.1524 77.0902 1.18501 81.4458L38.3324 44.4444H83.4671Z" fill="#699635"/>
<path d="M-5.25663 17.2222C-6.80234 21.8889 -7.5752 26.8667 -7.5752 32C-7.5752 37.1333 -6.80234 42.1111 -5.25663 46.7778L9.58219 32L-5.25663 17.2222Z" fill="#3E4347"/>
<path d="M17.6201 73.5333C23.9575 76.8 31.2224 78.6667 38.7963 78.6667C57.8086 78.6667 74.1931 67.1556 81.3034 50.5111H40.9603L17.6201 73.5333Z" fill="#428BC1"/>
<path d="M81.3034 13.4889C74.1931 -3.15554 57.8086 -14.6667 38.7963 -14.6667C31.2224 -14.6667 23.9575 -12.8 17.6201 -9.53332L40.9603 13.4889H81.3034Z" fill="#ED4C5C"/>
<path d="M82.8489 17.5333C82.3852 16.1333 81.9215 14.7333 81.3032 13.4889H40.9602L17.6199 -9.53333C16.5379 -9.06666 15.6105 -8.44444 14.5285 -7.82221C13.7557 -7.35555 12.9828 -6.73333 12.21 -6.26666L38.3325 19.5556H83.4672C83.3126 18.9333 83.1581 18.1556 82.8489 17.5333Z" fill="white"/>
<path d="M-2.47434 10.8445C-2.62891 11.1556 -2.78348 11.4667 -2.93806 11.9333C-3.71091 13.6445 -4.48377 15.3556 -5.10205 17.2222L9.73677 32L-5.10205 46.7778C-4.48377 48.6445 -3.86548 50.3556 -2.93806 52.0667C-2.78348 52.3778 -2.62891 52.6889 -2.47434 53.1556L18.7019 32L-2.47434 10.8445Z" fill="#FFCE31"/>
<path d="M38.3325 44.4445L12.21 70.2667C12.6737 70.5778 13.292 71.0445 13.7557 71.3556C14.9922 72.1334 16.2288 72.9111 17.6199 73.5334L40.9602 50.5111H81.3032C81.9215 48.9556 82.5398 47.4 83.1581 45.6889C83.3126 45.2222 83.3126 44.9111 83.4672 44.4445H38.3325" fill="white"/>
</g>
</g>
<rect x="1.5" y="1.5" width="61" height="61" rx="3.5" stroke="white" stroke-opacity="0.3" stroke-width="3"/>
<defs>
<clipPath id="clip0_315_3548">
<rect width="98.9255" height="99.5556" fill="white" transform="translate(-10.6665 -17.7778)"/>
</clipPath>
</defs>
</svg>
