<svg width="64" height="64" viewBox="0 0 64 64" fill="none" xmlns="http://www.w3.org/2000/svg">
<mask id="mask0_315_3602" style="mask-type:alpha" maskUnits="userSpaceOnUse" x="0" y="0" width="64" height="64">
<rect width="64" height="64" rx="5" fill="#C4C4C4"/>
</mask>
<g mask="url(#mask0_315_3602)">
<path d="M74.3524 24.1063C70.9436 4.05781 53.473 -11.1562 32.4516 -11.1562C11.4302 -11.1562 -6.04034 4.05781 -9.44922 24.1063L32.4516 3.0625L74.3524 24.1063Z" fill="#699635"/>
<path d="M-9.44922 38.8937C-6.04034 58.9422 11.4302 74.1562 32.4516 74.1562C53.473 74.1562 70.9436 58.9422 74.3524 38.8937L32.4516 59.9375L-9.44922 38.8937Z" fill="#699635"/>
<path d="M32.4518 3.0625L-9.449 24.1062C-9.87511 26.5234 -10.1592 28.9406 -10.1592 31.5C-10.1592 34.0594 -9.87511 36.4766 -9.449 38.8937L32.4518 59.9375L74.3527 38.8937C74.7788 36.4766 75.0628 34.0594 75.0628 31.5C75.0628 28.9406 74.7788 26.5234 74.3527 24.1062L32.4518 3.0625Z" fill="#FFE62E"/>
<path d="M23.9298 26.3812C19.3846 26.3812 15.1235 27.3766 11.2885 29.0828C11.1465 29.9359 11.1465 30.6469 11.1465 31.5C11.1465 43.3016 20.6629 52.8281 32.452 52.8281C40.406 52.8281 47.3658 48.4203 51.0588 42.0219C45.8034 32.7797 35.5768 26.3812 23.9298 26.3812Z" fill="#428BC1"/>
<path d="M53.4732 34.9125C53.6153 33.775 53.7573 32.6375 53.7573 31.5C53.7573 19.6984 44.2409 10.1719 32.4518 10.1719C24.0716 10.1719 16.8278 15.0062 13.2769 22.1156C16.6857 21.1203 20.2367 20.5516 23.9296 20.5516C36.0027 20.5516 46.6555 26.2391 53.4732 34.9125Z" fill="#428BC1"/>
<path d="M23.9294 20.5516C20.2364 20.5516 16.6855 21.1203 13.2766 22.1156C12.2823 24.2484 11.5722 26.5234 11.2881 29.0828C15.1231 27.3766 19.3842 26.3813 23.9294 26.3813C35.5764 26.3813 45.803 32.6375 51.0584 41.8797C52.3367 39.7469 53.0469 37.3297 53.473 34.9125C46.6552 26.2391 36.0025 20.5516 23.9294 20.5516Z" fill="white"/>
<path d="M18.248 32.9219C19.0324 32.9219 19.6684 32.2853 19.6684 31.5C19.6684 30.7147 19.0324 30.0781 18.248 30.0781C17.4636 30.0781 16.8276 30.7147 16.8276 31.5C16.8276 32.2853 17.4636 32.9219 18.248 32.9219Z" fill="white"/>
<path d="M23.9296 41.4531C24.7141 41.4531 25.35 40.8165 25.35 40.0312C25.35 39.246 24.7141 38.6094 23.9296 38.6094C23.1452 38.6094 22.5093 39.246 22.5093 40.0312C22.5093 40.8165 23.1452 41.4531 23.9296 41.4531Z" fill="white"/>
<path d="M32.4516 41.4531C33.2361 41.4531 33.872 40.8165 33.872 40.0312C33.872 39.246 33.2361 38.6094 32.4516 38.6094C31.6672 38.6094 31.0312 39.246 31.0312 40.0312C31.0312 40.8165 31.6672 41.4531 32.4516 41.4531Z" fill="white"/>
<path d="M32.4516 47.1406C33.2361 47.1406 33.872 46.504 33.872 45.7188C33.872 44.9335 33.2361 44.2969 32.4516 44.2969C31.6672 44.2969 31.0312 44.9335 31.0312 45.7188C31.0312 46.504 31.6672 47.1406 32.4516 47.1406Z" fill="white"/>
<path d="M43.8144 41.4531C44.5989 41.4531 45.2348 40.8165 45.2348 40.0312C45.2348 39.246 44.5989 38.6094 43.8144 38.6094C43.03 38.6094 42.394 39.246 42.394 40.0312C42.394 40.8165 43.03 41.4531 43.8144 41.4531Z" fill="white"/>
<path d="M43.8144 47.1406C44.5989 47.1406 45.2348 46.504 45.2348 45.7188C45.2348 44.9335 44.5989 44.2969 43.8144 44.2969C43.03 44.2969 42.394 44.9335 42.394 45.7188C42.394 46.504 43.03 47.1406 43.8144 47.1406Z" fill="white"/>
<path d="M38.1333 44.2969C38.9177 44.2969 39.5536 43.6603 39.5536 42.875C39.5536 42.0897 38.9177 41.4531 38.1333 41.4531C37.3488 41.4531 36.7129 42.0897 36.7129 42.875C36.7129 43.6603 37.3488 44.2969 38.1333 44.2969Z" fill="white"/>
<path d="M18.248 38.6094C19.0324 38.6094 19.6684 37.9728 19.6684 37.1875C19.6684 36.4022 19.0324 35.7656 18.248 35.7656C17.4636 35.7656 16.8276 36.4022 16.8276 37.1875C16.8276 37.9728 17.4636 38.6094 18.248 38.6094Z" fill="white"/>
</g>
<rect x="1.5" y="1.5" width="61" height="61" rx="3.5" stroke="white" stroke-opacity="0.3" stroke-width="3"/>
</svg>
