<svg width="64" height="64" viewBox="0 0 64 64" fill="none" xmlns="http://www.w3.org/2000/svg">
<mask id="mask0_315_7137" style="mask-type:alpha" maskUnits="userSpaceOnUse" x="0" y="0" width="64" height="64">
<rect width="64" height="64" rx="5" fill="#C4C4C4"/>
</mask>
<g mask="url(#mask0_315_7137)">
<g clip-path="url(#clip0_315_7137)">
<path d="M32 103V-39C7.4 -24.8 -9 1.68846 -9 32C-9 62.3115 7.4 88.8 32 103Z" fill="#699635"/>
<path d="M41 -7.375C33.7812 -7.375 27.0875 -5.40625 21.3125 -2.125V66.125C27.0875 69.5375 33.7812 71.375 41 71.375C62.7875 71.375 80.375 53.7875 80.375 32C80.375 10.2125 62.7875 -7.375 41 -7.375Z" fill="#ED4C5C"/>
<path d="M21.3125 16.25C12.65 16.25 5.5625 23.3375 5.5625 32C5.5625 40.6625 12.65 47.75 21.3125 47.75C29.975 47.75 37.0625 40.6625 37.0625 32C37.0625 23.3375 29.975 16.25 21.3125 16.25ZM21.3125 45.7812C13.7 45.7812 7.53125 39.6125 7.53125 32C7.53125 24.3875 13.7 18.2188 21.3125 18.2188C28.925 18.2188 35.0938 24.3875 35.0938 32C35.0938 39.6125 28.925 45.7812 21.3125 45.7812Z" fill="#FFE62E"/>
<path d="M26.694 47.3563C26.4315 47.6188 26.0378 47.6188 25.7753 47.3563L7.79404 23.6C7.53154 23.3375 7.53154 22.9438 7.79404 22.6813L8.18779 22.2875C8.45029 22.025 8.84404 22.025 9.10654 22.2875L27.0878 46.0438C27.3503 46.3063 27.3503 46.7 27.0878 46.9625L26.694 47.3563Z" fill="#FFE62E"/>
<path d="M21.5752 15.5938C21.9689 15.5938 22.2314 15.8562 22.2314 16.25V47.75C22.2314 48.1437 21.9689 48.4062 21.5752 48.4062H20.9189C20.5252 48.4062 20.2627 48.1437 20.2627 47.75V16.25C20.2627 15.8562 20.5252 15.5938 20.9189 15.5938H21.5752Z" fill="#FFE62E"/>
<path d="M36.9312 33.7063L21.3125 30.95V32.9188L36.6687 35.675C37.0625 35.675 37.325 35.5438 37.4562 35.15L37.5875 34.4938C37.5875 34.2313 37.325 33.8375 36.9312 33.7063Z" fill="#FFE62E"/>
<path d="M21.3126 30.8188L8.97512 22.1563C8.71262 21.8938 8.31887 22.025 8.05637 22.2875L7.66262 22.8125C7.40012 23.075 7.53137 23.4688 7.79387 23.7313L21.3126 33.1813V30.8188Z" fill="#FFE62E"/>
<path d="M20.7878 29.375L8.45029 41.7125C8.18779 41.975 8.18779 42.3688 8.45029 42.6313L8.97529 43.1563C9.23779 43.4188 9.63154 43.4188 9.89404 43.1563L20.7878 32.2625V29.375Z" fill="#FFE62E"/>
<path d="M21.3126 23.4688L4.90639 31.2125C4.64389 31.3437 4.38139 31.7375 4.64389 32.1312L4.90639 32.7875C5.03764 33.05 5.43139 33.3125 5.82514 33.05L21.3126 25.7V23.4688Z" fill="#FFE62E"/>
<path d="M35.8814 25.7L20.2627 22.9438V24.9125L35.6189 27.6688C36.0127 27.6688 36.2752 27.5375 36.4064 27.1438L36.5377 26.4875C36.4064 26.0938 36.1439 25.7 35.8814 25.7Z" fill="#FFE62E"/>
<path d="M21.1813 41.0562C20.9188 41.1875 20.6563 41.5812 20.9188 41.975L21.1813 42.6312C21.3125 42.8937 21.7063 43.1562 22.1 42.8937L35.225 36.8562L35.8813 34.3625L21.1813 41.0562Z" fill="#FFE62E"/>
<path d="M21.1814 36.5937L6.48145 31.2125V33.3125L21.1814 38.6937V36.5937Z" fill="#FFE62E"/>
<path d="M10.9438 40.925V42.8937L30.3688 44.2062C31.1563 43.6812 31.8126 43.025 32.4688 42.3687L10.9438 40.925Z" fill="#FFE62E"/>
<path d="M14.75 25.4375V34.625C14.75 38.3 17.6375 41.1875 21.3125 41.1875C24.9875 41.1875 27.875 38.3 27.875 34.625V25.4375H14.75Z" fill="white"/>
<path d="M21.3125 43.8125C16.1937 43.8125 12.125 39.7437 12.125 34.625V22.8125H30.5V34.625C30.5 39.7437 26.4313 43.8125 21.3125 43.8125ZM17.375 28.0625V34.625C17.375 36.8562 19.0812 38.5625 21.3125 38.5625C23.5437 38.5625 25.25 36.8562 25.25 34.625V28.0625H17.375Z" fill="#ED4C5C"/>
<path d="M20.1313 28.5875V30.6875C20.1313 31.0812 20.3938 31.3437 20.7876 31.3437H21.8376C22.2313 31.3437 22.4938 31.0812 22.4938 30.6875V28.4562H20.1313V28.5875Z" fill="#0071BC"/>
<path d="M20.1313 31.8687V34.1C20.1313 34.4937 20.3938 34.7562 20.7876 34.7562H21.8376C22.2313 34.7562 22.4938 34.4937 22.4938 34.1V31.8687H20.1313Z" fill="#0071BC"/>
<path d="M17.5063 31.8687V34.1C17.5063 34.4937 17.7688 34.7562 18.1626 34.7562H19.2126C19.6063 34.7562 19.8688 34.4937 19.8688 34.1V31.8687H17.5063Z" fill="#0071BC"/>
<path d="M22.7563 31.8687V34.1C22.7563 34.4937 23.0188 34.7562 23.4126 34.7562H24.4626C24.8563 34.7562 25.1188 34.4937 25.1188 34.1V31.8687H22.7563Z" fill="#0071BC"/>
<path d="M20.1313 35.0187V37.25C20.1313 37.6437 20.3938 37.9062 20.7876 37.9062H21.8376C22.2313 37.9062 22.4938 37.6437 22.4938 37.25V35.0187H20.1313Z" fill="#0071BC"/>
<path d="M21.3123 33.4438C21.4573 33.4438 21.5748 33.3262 21.5748 33.1813C21.5748 33.0363 21.4573 32.9188 21.3123 32.9188C21.1673 32.9188 21.0498 33.0363 21.0498 33.1813C21.0498 33.3262 21.1673 33.4438 21.3123 33.4438Z" fill="white"/>
<path d="M20.7874 34.1C20.9324 34.1 21.0499 33.9825 21.0499 33.8375C21.0499 33.6925 20.9324 33.575 20.7874 33.575C20.6424 33.575 20.5249 33.6925 20.5249 33.8375C20.5249 33.9825 20.6424 34.1 20.7874 34.1Z" fill="white"/>
<path d="M21.8372 34.1C21.9822 34.1 22.0997 33.9825 22.0997 33.8375C22.0997 33.6925 21.9822 33.575 21.8372 33.575C21.6922 33.575 21.5747 33.6925 21.5747 33.8375C21.5747 33.9825 21.6922 34.1 21.8372 34.1Z" fill="white"/>
<path d="M20.7874 32.7875C20.9324 32.7875 21.0499 32.67 21.0499 32.525C21.0499 32.38 20.9324 32.2625 20.7874 32.2625C20.6424 32.2625 20.5249 32.38 20.5249 32.525C20.5249 32.67 20.6424 32.7875 20.7874 32.7875Z" fill="white"/>
<path d="M21.8372 32.7875C21.9822 32.7875 22.0997 32.67 22.0997 32.525C22.0997 32.38 21.9822 32.2625 21.8372 32.2625C21.6922 32.2625 21.5747 32.38 21.5747 32.525C21.5747 32.67 21.6922 32.7875 21.8372 32.7875Z" fill="white"/>
<path d="M21.3123 30.1625C21.4573 30.1625 21.5748 30.045 21.5748 29.9C21.5748 29.755 21.4573 29.6375 21.3123 29.6375C21.1673 29.6375 21.0498 29.755 21.0498 29.9C21.0498 30.045 21.1673 30.1625 21.3123 30.1625Z" fill="white"/>
<path d="M20.7874 30.8188C20.9324 30.8188 21.0499 30.7012 21.0499 30.5563C21.0499 30.4113 20.9324 30.2938 20.7874 30.2938C20.6424 30.2938 20.5249 30.4113 20.5249 30.5563C20.5249 30.7012 20.6424 30.8188 20.7874 30.8188Z" fill="white"/>
<path d="M21.8372 30.8188C21.9822 30.8188 22.0997 30.7012 22.0997 30.5563C22.0997 30.4113 21.9822 30.2938 21.8372 30.2938C21.6922 30.2938 21.5747 30.4113 21.5747 30.5563C21.5747 30.7012 21.6922 30.8188 21.8372 30.8188Z" fill="white"/>
<path d="M20.7874 29.5063C20.9324 29.5063 21.0499 29.3887 21.0499 29.2438C21.0499 29.0988 20.9324 28.9813 20.7874 28.9813C20.6424 28.9813 20.5249 29.0988 20.5249 29.2438C20.5249 29.3887 20.6424 29.5063 20.7874 29.5063Z" fill="white"/>
<path d="M21.8372 29.5063C21.9822 29.5063 22.0997 29.3887 22.0997 29.2438C22.0997 29.0988 21.9822 28.9813 21.8372 28.9813C21.6922 28.9813 21.5747 29.0988 21.5747 29.2438C21.5747 29.3887 21.6922 29.5063 21.8372 29.5063Z" fill="white"/>
<path d="M23.9373 33.4438C24.0823 33.4438 24.1998 33.3262 24.1998 33.1813C24.1998 33.0363 24.0823 32.9188 23.9373 32.9188C23.7923 32.9188 23.6748 33.0363 23.6748 33.1813C23.6748 33.3262 23.7923 33.4438 23.9373 33.4438Z" fill="white"/>
<path d="M23.4124 34.1C23.5574 34.1 23.6749 33.9825 23.6749 33.8375C23.6749 33.6925 23.5574 33.575 23.4124 33.575C23.2674 33.575 23.1499 33.6925 23.1499 33.8375C23.1499 33.9825 23.2674 34.1 23.4124 34.1Z" fill="white"/>
<path d="M24.4622 34.1C24.6072 34.1 24.7247 33.9825 24.7247 33.8375C24.7247 33.6925 24.6072 33.575 24.4622 33.575C24.3172 33.575 24.1997 33.6925 24.1997 33.8375C24.1997 33.9825 24.3172 34.1 24.4622 34.1Z" fill="white"/>
<path d="M23.4124 32.7875C23.5574 32.7875 23.6749 32.67 23.6749 32.525C23.6749 32.38 23.5574 32.2625 23.4124 32.2625C23.2674 32.2625 23.1499 32.38 23.1499 32.525C23.1499 32.67 23.2674 32.7875 23.4124 32.7875Z" fill="white"/>
<path d="M24.4622 32.7875C24.6072 32.7875 24.7247 32.67 24.7247 32.525C24.7247 32.38 24.6072 32.2625 24.4622 32.2625C24.3172 32.2625 24.1997 32.38 24.1997 32.525C24.1997 32.67 24.3172 32.7875 24.4622 32.7875Z" fill="white"/>
<path d="M18.6873 33.4438C18.8323 33.4438 18.9498 33.3262 18.9498 33.1813C18.9498 33.0363 18.8323 32.9188 18.6873 32.9188C18.5423 32.9188 18.4248 33.0363 18.4248 33.1813C18.4248 33.3262 18.5423 33.4438 18.6873 33.4438Z" fill="white"/>
<path d="M18.1624 34.1C18.3074 34.1 18.4249 33.9825 18.4249 33.8375C18.4249 33.6925 18.3074 33.575 18.1624 33.575C18.0174 33.575 17.8999 33.6925 17.8999 33.8375C17.8999 33.9825 18.0174 34.1 18.1624 34.1Z" fill="white"/>
<path d="M19.2122 34.1C19.3572 34.1 19.4747 33.9825 19.4747 33.8375C19.4747 33.6925 19.3572 33.575 19.2122 33.575C19.0672 33.575 18.9497 33.6925 18.9497 33.8375C18.9497 33.9825 19.0672 34.1 19.2122 34.1Z" fill="white"/>
<path d="M18.1624 32.7875C18.3074 32.7875 18.4249 32.67 18.4249 32.525C18.4249 32.38 18.3074 32.2625 18.1624 32.2625C18.0174 32.2625 17.8999 32.38 17.8999 32.525C17.8999 32.67 18.0174 32.7875 18.1624 32.7875Z" fill="white"/>
<path d="M19.2122 32.7875C19.3572 32.7875 19.4747 32.67 19.4747 32.525C19.4747 32.38 19.3572 32.2625 19.2122 32.2625C19.0672 32.2625 18.9497 32.38 18.9497 32.525C18.9497 32.67 19.0672 32.7875 19.2122 32.7875Z" fill="white"/>
<path d="M21.3123 36.725C21.4573 36.725 21.5748 36.6075 21.5748 36.4625C21.5748 36.3175 21.4573 36.2 21.3123 36.2C21.1673 36.2 21.0498 36.3175 21.0498 36.4625C21.0498 36.6075 21.1673 36.725 21.3123 36.725Z" fill="white"/>
<path d="M20.7874 37.3813C20.9324 37.3813 21.0499 37.2637 21.0499 37.1188C21.0499 36.9738 20.9324 36.8563 20.7874 36.8563C20.6424 36.8563 20.5249 36.9738 20.5249 37.1188C20.5249 37.2637 20.6424 37.3813 20.7874 37.3813Z" fill="white"/>
<path d="M21.8372 37.3813C21.9822 37.3813 22.0997 37.2637 22.0997 37.1188C22.0997 36.9738 21.9822 36.8563 21.8372 36.8563C21.6922 36.8563 21.5747 36.9738 21.5747 37.1188C21.5747 37.2637 21.6922 37.3813 21.8372 37.3813Z" fill="white"/>
<path d="M20.7874 36.0688C20.9324 36.0688 21.0499 35.9512 21.0499 35.8063C21.0499 35.6613 20.9324 35.5438 20.7874 35.5438C20.6424 35.5438 20.5249 35.6613 20.5249 35.8063C20.5249 35.9512 20.6424 36.0688 20.7874 36.0688Z" fill="white"/>
<path d="M21.8372 36.0688C21.9822 36.0688 22.0997 35.9512 22.0997 35.8063C22.0997 35.6613 21.9822 35.5438 21.8372 35.5438C21.6922 35.5438 21.5747 35.6613 21.5747 35.8063C21.5747 35.9512 21.6922 36.0688 21.8372 36.0688Z" fill="white"/>
<path d="M20 26.75H22.625L22.3625 25.4375V24.125H22.625V23.4688H22.2313V23.8625H22.1V23.4688H21.7062V23.8625H21.4438V23.4688H21.1812V23.8625H20.9188V23.4688H20.525V23.8625H20.2625V23.4688H20V24.125H20.2625V25.4375L20 26.75Z" fill="#FFE62E"/>
<path d="M21.706 26.75H21.5747V26.225C21.5747 26.0938 21.4435 25.9625 21.3122 25.9625C21.181 25.9625 21.0497 26.0938 21.0497 26.225V26.75H20.9185V26.225C20.9185 25.9625 21.0497 25.8313 21.3122 25.8313C21.5747 25.8313 21.706 25.9625 21.706 26.225V26.75Z" fill="#3E4347"/>
<path d="M21.3124 25.3063H20.5249V24.65C20.5249 24.3875 20.6562 24.2563 20.9187 24.2563C21.1812 24.2563 21.3124 24.3875 21.3124 24.65V25.3063ZM20.6562 25.175H21.1812V24.65C21.1812 24.5188 21.0499 24.3875 20.9187 24.3875C20.7874 24.3875 20.6562 24.5188 20.6562 24.65V25.175Z" fill="#3E4347"/>
<path d="M22.1 25.3063H21.3125V24.65C21.3125 24.3875 21.4437 24.2563 21.7062 24.2563C21.9687 24.2563 22.1 24.3875 22.1 24.65V25.3063ZM21.4438 25.175H21.9687V24.65C21.9687 24.5188 21.8375 24.3875 21.7062 24.3875C21.575 24.3875 21.4438 24.5188 21.4438 24.65V25.175Z" fill="#3E4347"/>
<path d="M13.4375 26.75H16.0625L15.8 25.4375V24.125H16.0625V23.4688H15.6687V23.8625H15.5375V23.4688H15.1438V23.8625H14.8813V23.4688H14.6187V23.8625H14.3562V23.4688H13.9625V23.8625H13.7V23.4688H13.4375V24.125H13.7V25.4375L13.4375 26.75Z" fill="#FFE62E"/>
<path d="M15.1435 26.75H15.0122V26.225C15.0122 26.0938 14.881 25.9625 14.7497 25.9625C14.6185 25.9625 14.4872 26.0938 14.4872 26.225V26.75H14.356V26.225C14.356 25.9625 14.4872 25.8313 14.7497 25.8313C15.0122 25.8313 15.1435 25.9625 15.1435 26.225V26.75Z" fill="#3E4347"/>
<path d="M14.7499 25.3063H13.9624V24.65C13.9624 24.3875 14.0937 24.2563 14.3562 24.2563C14.6187 24.2563 14.7499 24.3875 14.7499 24.65V25.3063ZM14.0937 25.175H14.6187V24.65C14.6187 24.5188 14.4874 24.3875 14.3562 24.3875C14.2249 24.3875 14.0937 24.5188 14.0937 24.65V25.175Z" fill="#3E4347"/>
<path d="M15.5375 25.3063H14.75V24.65C14.75 24.3875 14.8813 24.2563 15.1438 24.2563C15.4063 24.2563 15.5375 24.3875 15.5375 24.65V25.3063ZM14.8813 25.175H15.4062V24.65C15.4062 24.5188 15.275 24.3875 15.1438 24.3875C15.0125 24.3875 14.8813 24.5188 14.8813 24.65V25.175Z" fill="#3E4347"/>
<path d="M13.4375 34.4937H16.0625L15.8 33.1812V31.8687H16.0625V31.2125H15.8V31.6062H15.5375V31.2125H15.275V31.6062H14.8813V31.2125H14.6187V31.6062H14.3562V31.2125H14.0938V31.6062H13.8313V31.2125H13.4375V31.8687H13.8313V33.1812L13.4375 34.4937Z" fill="#FFE62E"/>
<path d="M15.1435 34.4938H15.0122V33.9688C15.0122 33.8375 14.881 33.7063 14.7497 33.7063C14.6185 33.7063 14.4872 33.8375 14.4872 33.9688V34.4938H14.356V33.9688C14.356 33.7063 14.4872 33.575 14.7497 33.575C15.0122 33.575 15.1435 33.7063 15.1435 33.9688V34.4938Z" fill="#3E4347"/>
<path d="M14.7499 33.05H13.9624V32.3937C13.9624 32.1312 14.0937 32 14.3562 32C14.6187 32 14.7499 32.1312 14.7499 32.3937V33.05ZM14.0937 32.9188H14.6187V32.3937C14.6187 32.2625 14.4874 32.1312 14.3562 32.1312C14.2249 32.1312 14.0937 32.2625 14.0937 32.3937V32.9188Z" fill="#3E4347"/>
<path d="M15.6688 33.05H14.8813V32.3937C14.8813 32.1312 15.0126 32 15.2751 32C15.5376 32 15.6688 32.1312 15.6688 32.3937V33.05ZM15.0126 32.9188H15.5376V32.3937C15.5376 32.2625 15.4063 32.1312 15.2751 32.1312C15.1438 32.1312 15.0126 32.2625 15.0126 32.3937V32.9188Z" fill="#3E4347"/>
<path d="M26.5625 34.625H29.1875L28.925 33.3125V32H29.1875V31.475H28.7938V31.7375H28.6625V31.475H28.2687V31.7375H28.0063V31.475H27.7437V31.7375H27.4813V31.475H27.0875V31.7375H26.825V31.475H26.5625V32H26.825V33.3125L26.5625 34.625Z" fill="#FFE62E"/>
<path d="M28.2685 34.625H28.1372V34.1C28.1372 33.9688 28.006 33.8375 27.8747 33.8375C27.7435 33.8375 27.6122 33.9688 27.6122 34.1V34.625H27.481V34.1C27.481 33.8375 27.6122 33.7063 27.8747 33.7063C28.1372 33.7063 28.2685 33.8375 28.2685 34.1V34.625Z" fill="#3E4347"/>
<path d="M27.8749 33.1813H27.0874V32.525C27.0874 32.2625 27.2187 32.1313 27.4812 32.1313C27.7437 32.1313 27.8749 32.2625 27.8749 32.525V33.1813ZM27.2187 33.05H27.7437V32.525C27.7437 32.3938 27.6124 32.2625 27.4812 32.2625C27.3499 32.2625 27.2187 32.3938 27.2187 32.525V33.05Z" fill="#3E4347"/>
<path d="M28.6625 33.1813H27.875V32.525C27.875 32.2625 28.0062 32.1313 28.2687 32.1313C28.5312 32.1313 28.6625 32.2625 28.6625 32.525V33.1813ZM28.0063 33.05H28.5312V32.525C28.5312 32.3938 28.4 32.2625 28.2687 32.2625C28.1375 32.2625 28.0063 32.3938 28.0063 32.525V33.05Z" fill="#3E4347"/>
<path d="M26.5625 26.75H29.1875L28.925 25.4375V24.125H29.1875V23.4688H28.7938V23.8625H28.6625V23.4688H28.2687V23.8625H28.0063V23.4688H27.7437V23.8625H27.4813V23.4688H27.0875V23.8625H26.825V23.4688H26.5625V24.125H26.825V25.4375L26.5625 26.75Z" fill="#FFE62E"/>
<path d="M28.2685 26.75H28.1372V26.225C28.1372 26.0938 28.006 25.9625 27.8747 25.9625C27.7435 25.9625 27.6122 26.0938 27.6122 26.225V26.75H27.481V26.225C27.481 25.9625 27.6122 25.8313 27.8747 25.8313C28.1372 25.8313 28.2685 25.9625 28.2685 26.225V26.75Z" fill="#3E4347"/>
<path d="M27.8749 25.3063H27.0874V24.65C27.0874 24.3875 27.2187 24.2563 27.4812 24.2563C27.7437 24.2563 27.8749 24.3875 27.8749 24.65V25.3063ZM27.2187 25.175H27.7437V24.65C27.7437 24.5188 27.6124 24.3875 27.4812 24.3875C27.3499 24.3875 27.2187 24.5188 27.2187 24.65V25.175Z" fill="#3E4347"/>
<path d="M28.6625 25.3063H27.875V24.65C27.875 24.3875 28.0062 24.2563 28.2687 24.2563C28.5312 24.2563 28.6625 24.3875 28.6625 24.65V25.3063ZM28.0063 25.175H28.5312V24.65C28.5312 24.5188 28.4 24.3875 28.2687 24.3875C28.1375 24.3875 28.0063 24.5188 28.0063 24.65V25.175Z" fill="#3E4347"/>
<path d="M17.6375 41.975L19.475 40.0062L18.2937 39.35L17.375 38.4312L17.6375 38.1687L17.2437 37.775L16.9812 38.0375L17.2437 38.3L17.1125 38.4312L16.85 38.1687L16.5875 38.4312L16.85 38.5625L16.5875 38.825L16.4563 38.5625L16.1938 38.825L16.4563 39.0875L16.1938 39.2187L16.0625 38.9562L15.8 39.2187L15.9312 39.4812L15.8 39.6125L15.6687 39.35L15.4062 39.6125L15.8 40.0062H15.9312L16.0625 39.875L16.9812 40.7937L17.6375 41.975Z" fill="#FFE62E"/>
<path d="M18.8188 40.6625L18.2938 40.4C18.1626 40.2688 18.0313 40.2688 17.9001 40.4C17.7688 40.5313 17.7688 40.6625 17.9001 40.7938L18.2938 41.1875L18.1626 41.3188L17.7688 40.925C17.6376 40.7938 17.6376 40.5313 17.7688 40.4C17.9001 40.2688 18.1626 40.2688 18.2938 40.4L18.8188 40.6625Z" fill="#3E4347"/>
<path d="M17.5064 40.0063L16.9814 40.5313L16.5877 40.1375C16.4564 40.0063 16.4564 39.7438 16.5877 39.6125C16.7189 39.4813 16.9814 39.4813 17.1127 39.6125L17.5064 40.0063ZM16.9814 40.4L17.3752 40.0063L16.9814 39.6125C16.8502 39.4813 16.7189 39.4813 16.5877 39.6125C16.4564 39.7438 16.4564 39.875 16.5877 40.0063L16.9814 40.4Z" fill="#3E4347"/>
<path d="M18.1627 39.35L17.6377 39.875L17.2439 39.4813C17.1127 39.35 17.1127 39.0875 17.2439 38.9563C17.3752 38.825 17.6377 38.825 17.7689 38.9563L18.1627 39.35ZM17.6377 39.7438L18.0314 39.35L17.6377 38.9563C17.5064 38.825 17.3752 38.825 17.2439 38.9563C17.1127 39.0875 17.1127 39.2188 17.2439 39.35L17.6377 39.7438Z" fill="#3E4347"/>
<path d="M24.9874 41.975L23.1499 40.0062L24.1999 39.35L25.1187 38.4312L24.9874 38.1687L25.3812 37.775L25.6437 38.0375L25.3812 38.3L25.5124 38.4312L25.7749 38.1687L26.0374 38.4312L25.7749 38.5625L26.0374 38.825L26.1687 38.5625L26.4312 38.825L26.1687 39.0875L26.4312 39.2187L26.5624 38.9562L26.8249 39.2187L26.5624 39.4812L26.8249 39.6125L26.9562 39.35L27.2187 39.6125L26.8249 40.0062H26.6937L26.5624 39.875L25.6437 40.7937L24.9874 41.975Z" fill="#FFE62E"/>
<path d="M23.8062 40.6625L24.3312 40.4C24.4624 40.2688 24.5937 40.2688 24.7249 40.4C24.8562 40.5313 24.8562 40.6625 24.7249 40.7938L24.1999 41.1875L24.3312 41.3188L24.7249 40.925C24.8562 40.7938 24.8562 40.5313 24.7249 40.4C24.5937 40.2688 24.3312 40.2688 24.1999 40.4L23.8062 40.6625Z" fill="#3E4347"/>
<path d="M25.5124 39.6125C25.6437 39.4813 25.9062 39.4813 26.0374 39.6125C26.1687 39.7438 26.1687 40.0063 26.0374 40.1375L25.6437 40.5313L25.1187 40.0063L25.5124 39.6125ZM25.9062 40.0063C26.0374 39.875 26.0374 39.7438 25.9062 39.6125C25.7749 39.4813 25.6437 39.4813 25.5124 39.6125L25.2499 40.0063L25.6437 40.4L25.9062 40.0063Z" fill="#3E4347"/>
<path d="M24.8562 38.9563C24.9874 38.825 25.2499 38.825 25.3812 38.9563C25.5124 39.0875 25.5124 39.35 25.3812 39.4813L24.9874 39.875L24.4624 39.35L24.8562 38.9563ZM25.3812 39.35C25.5124 39.2188 25.5124 39.0875 25.3812 38.9563C25.2499 38.825 25.1187 38.825 24.9874 38.9563L24.5937 39.35L24.9874 39.7438L25.3812 39.35Z" fill="#3E4347"/>
</g>
</g>
<rect x="1.5" y="1.5" width="61" height="61" rx="3.5" stroke="white" stroke-opacity="0.3" stroke-width="3"/>
<defs>
<clipPath id="clip0_315_7137">
<rect width="84" height="84" fill="white" transform="translate(-1 -10)"/>
</clipPath>
</defs>
</svg>
