<svg width="64" height="64" viewBox="0 0 64 64" fill="none" xmlns="http://www.w3.org/2000/svg">
<mask id="mask0_315_3657" style="mask-type:alpha" maskUnits="userSpaceOnUse" x="0" y="0" width="64" height="64">
<rect width="64" height="64" rx="5" fill="#C4C4C4"/>
</mask>
<g mask="url(#mask0_315_3657)">
<path d="M-8.3125 33C-8.3125 53.4688 2.975 70.8125 18.5625 77.2188V-11.2188C2.975 -4.8125 -8.3125 12.5312 -8.3125 33Z" fill="#428BC1"/>
<path d="M72.3125 33C72.3125 12.5312 61.1594 -4.8125 45.4375 -11.2188V77.2188C61.1594 70.8125 72.3125 53.4688 72.3125 33Z" fill="#ED4C5C"/>
<path d="M18.5625 77.2188C22.7281 78.9375 27.2969 79.875 32 79.875C36.7031 79.875 41.2719 78.9375 45.4375 77.2188V-11.2188C41.2719 -12.9375 36.7031 -13.875 32 -13.875C27.2969 -13.875 22.7281 -12.9375 18.5625 -11.2188V77.2188Z" fill="#F9F9F9"/>
</g>
<rect x="1.5" y="1.5" width="61" height="61" rx="3.5" stroke="white" stroke-opacity="0.3" stroke-width="3"/>
</svg>
