<svg width="64" height="64" viewBox="0 0 64 64" fill="none" xmlns="http://www.w3.org/2000/svg">
<mask id="mask0_315_3800" style="mask-type:alpha" maskUnits="userSpaceOnUse" x="0" y="0" width="64" height="64">
<rect width="64" height="64" rx="5" fill="#C4C4C4"/>
</mask>
<g mask="url(#mask0_315_3800)">
<g clip-path="url(#clip0_315_3800)">
<path d="M-7.375 32C-7.375 39.7437 -5.14375 46.9625 -1.3375 53H65.2062C69.0125 46.9625 71.2438 39.7437 71.2438 32C71.2438 24.2562 69.0125 17.0375 65.2062 11H-1.3375C-5.14375 17.0375 -7.375 24.2562 -7.375 32Z" fill="#F9F9F9"/>
<path d="M78.9998 11C69.1927 -0.0249996 51.7991 -7.375 31.9999 -7.375C12.2007 -7.375 -5.19293 -0.0249996 -15 11H78.9998Z" fill="#ED4C5C"/>
<path d="M-15 53C-5.19293 64.025 12.2007 71.375 31.9999 71.375C51.7991 71.375 69.1927 64.025 78.9998 53H-15Z" fill="#ED4C5C"/>
<path d="M20.8438 49.0625C20.8438 49.0625 29.375 43.4188 39.35 48.4062V46.3063C39.35 46.3063 30.95 40.7937 38.0375 40.0062C45.125 39.2187 49.0625 42.8937 49.0625 42.8937V41.0563C49.0625 41.0563 36.9875 34.625 47.3563 37.1188V35.2812C47.3563 35.2812 38.0375 32 43.6813 32H46.0438V30.8188C46.0438 30.8188 36.4625 29.5063 44.4688 28.9813V28.0625C44.4688 28.0625 30.0313 21.3687 40.7938 23.9937V22.6812C40.7938 22.6812 35.5437 21.6313 39.6125 21.1063C39.6125 21.1063 37.5125 18.35 34.1 18.35C30.6875 18.35 31.2125 14.9375 31.2125 14.9375L26.8813 19.5312C26.8813 19.5312 29.9 19.2688 25.0438 21.7625C25.0438 21.7625 29.1125 22.1563 19.925 27.5375C19.925 27.5375 23.3375 26.225 23.3375 28.4562C23.3375 30.6875 17.3 33.7062 17.3 33.7062L17.825 35.15C17.825 35.15 22.025 31.8687 21.7625 34.1C21.5 36.3312 14.9375 39.7438 14.9375 39.7438L15.5938 40.7938C15.5938 40.7938 20.975 37.6437 21.1063 38.9562C21.1063 38.9562 21.8937 39.875 16.6437 41.5812L17.3 42.6312C17.3 42.6312 25.3062 38.6937 27.4062 41.5812C29.5063 44.4688 20.7125 47.4875 20.7125 47.4875L20.8438 49.0625Z" fill="#83BF4F"/>
<path d="M29.1124 26.0937C29.7648 26.0937 30.2937 25.5649 30.2937 24.9125C30.2937 24.2601 29.7648 23.7312 29.1124 23.7312C28.46 23.7312 27.9312 24.2601 27.9312 24.9125C27.9312 25.5649 28.46 26.0937 29.1124 26.0937Z" fill="#F9F9F9"/>
<path d="M33.8375 28.0625C34.4899 28.0625 35.0187 27.5336 35.0187 26.8812C35.0187 26.2289 34.4899 25.7 33.8375 25.7C33.1851 25.7 32.6562 26.2289 32.6562 26.8812C32.6562 27.5336 33.1851 28.0625 33.8375 28.0625Z" fill="#F9F9F9"/>
<path d="M24.1251 34.3625C24.7775 34.3625 25.3064 33.8336 25.3064 33.1813C25.3064 32.5289 24.7775 32 24.1251 32C23.4727 32 22.9438 32.5289 22.9438 33.1813C22.9438 33.8336 23.4727 34.3625 24.1251 34.3625Z" fill="#F9F9F9"/>
<path d="M37.2501 35.5437C37.9025 35.5437 38.4314 35.0149 38.4314 34.3625C38.4314 33.7101 37.9025 33.1812 37.2501 33.1812C36.5977 33.1812 36.0688 33.7101 36.0688 34.3625C36.0688 35.0149 36.5977 35.5437 37.2501 35.5437Z" fill="#F9F9F9"/>
<path d="M41.0563 36.725C41.7086 36.725 42.2375 36.1961 42.2375 35.5437C42.2375 34.8914 41.7086 34.3625 41.0563 34.3625C40.4039 34.3625 39.875 34.8914 39.875 35.5437C39.875 36.1961 40.4039 36.725 41.0563 36.725Z" fill="#F9F9F9"/>
<path d="M25.5689 28.9812C26.2213 28.9812 26.7502 28.4524 26.7502 27.8C26.7502 27.1476 26.2213 26.6187 25.5689 26.6187C24.9166 26.6187 24.3877 27.1476 24.3877 27.8C24.3877 28.4524 24.9166 28.9812 25.5689 28.9812Z" fill="#F9F9F9"/>
<path d="M32.2628 33.1812C32.9152 33.1812 33.444 32.6524 33.444 32C33.444 31.3476 32.9152 30.8187 32.2628 30.8187C31.6104 30.8187 31.0815 31.3476 31.0815 32C31.0815 32.6524 31.6104 33.1812 32.2628 33.1812Z" fill="#F9F9F9"/>
</g>
</g>
<rect x="1.5" y="1.5" width="61" height="61" rx="3.5" stroke="white" stroke-opacity="0.3" stroke-width="3"/>
<defs>
<clipPath id="clip0_315_3800">
<rect width="84" height="84" fill="white" transform="translate(-10 -10)"/>
</clipPath>
</defs>
</svg>
