<svg width="64" height="64" viewBox="0 0 64 64" fill="none" xmlns="http://www.w3.org/2000/svg">
<mask id="mask0_315_3565" style="mask-type:alpha" maskUnits="userSpaceOnUse" x="0" y="0" width="64" height="64">
<rect width="64" height="64" rx="5" fill="#C4C4C4"/>
</mask>
<g mask="url(#mask0_315_3565)">
<path d="M-11.1431 32C-11.1431 40.4813 -8.71478 48.3875 -4.57242 55H67.8476C71.9899 48.3875 74.4182 40.4813 74.4182 32C74.4182 23.5188 71.9899 15.6125 67.8476 9H-4.57242C-8.71478 15.6125 -11.1431 23.5188 -11.1431 32Z" fill="#F9F9F9"/>
<path d="M67.9901 9C60.4195 -3.075 46.9926 -11.125 31.7087 -11.125C16.4248 -11.125 2.99778 -3.075 -4.57275 9H67.9901Z" fill="#B4D7EE"/>
<path d="M-4.57275 55C2.99778 67.075 16.4248 75.125 31.7087 75.125C46.9926 75.125 60.4195 67.075 67.9901 55H-4.57275Z" fill="#B4D7EE"/>
<path d="M51.2779 31.7125L39.565 31.2812V31.1375C41.422 30.85 42.8504 29.7 44.8501 29.8437C47.2784 30.1312 48.7068 28.6937 49.5639 28.4062C50.5637 28.1187 51.1351 28.6937 51.1351 28.4062C51.2779 28.1187 50.5637 27.5437 49.1353 27.6875C47.8498 27.8312 47.4213 28.9812 44.4216 28.6938C41.8505 28.55 40.9934 29.5562 39.1365 29.5562V29.4125L49.7067 24.525C49.7067 24.525 49.9924 24.3812 49.9924 24.0937C49.8495 23.8062 49.5639 23.95 49.5639 23.95L38.8508 28.2625V28.1187C40.4221 27.1125 41.2791 25.5312 43.2789 24.9562C45.5643 24.2375 46.4214 22.5125 47.1356 21.7937C47.8498 21.075 48.7068 21.5062 48.7068 21.2187C48.7068 20.9312 47.8498 20.6438 46.7071 21.3625C45.5643 22.0812 45.5643 23.2312 42.7075 24.0937C40.2792 24.8125 39.8507 26.1062 38.1366 26.9687L37.9938 26.825L45.9929 18.2C45.9929 18.2 46.2785 17.9125 46.1357 17.7688C45.9929 17.625 45.7072 17.9125 45.7072 17.9125L37.1368 25.9625L36.9939 25.8188C38.1366 24.2375 38.2795 22.5125 39.8507 21.2187C41.7076 19.6375 41.7076 17.7687 42.1362 16.9062C42.5647 16.0437 43.4217 16.0438 43.2789 15.7563C43.136 15.4688 42.279 15.6125 41.422 16.6187C40.5649 17.7687 40.9934 18.775 38.8508 20.6438C36.9939 22.225 36.9939 23.6625 35.8512 24.9562C35.8512 24.9562 35.7084 24.9562 35.7084 24.8125L39.7079 13.7437C39.7079 13.7437 39.8507 13.4562 39.565 13.3125C39.2794 13.1687 39.1365 13.6 39.1365 13.6L34.28 24.2375H34.1371C34.5656 22.3687 34.1371 20.6437 34.9942 18.9187C36.1369 16.7625 35.4227 14.8937 35.4227 14.0312C35.5655 13.025 36.2797 12.7375 36.1369 12.5937C35.994 12.3062 35.137 12.8813 34.7085 14.175C34.4228 15.4688 35.137 16.3312 33.8514 18.9187C32.7087 21.2187 33.2801 22.3687 32.7087 24.0937H32.5659L32.1374 12.3062C32.1374 12.3062 32.1374 11.875 31.8517 11.875C31.566 11.875 31.566 12.3062 31.566 12.3062L31.1375 24.0937H30.9946C30.709 22.225 29.5662 20.7875 29.7091 18.775C29.9947 16.3312 28.5663 14.8937 28.2807 14.0312C27.995 13.1687 28.5663 12.45 28.2807 12.45C27.995 12.3062 27.4236 13.025 27.5665 14.4625C27.7093 15.7562 28.852 16.1875 28.5663 19.2062C28.4235 21.7937 29.4234 22.6562 29.4234 24.525H29.2805L24.424 13.8875C24.424 13.8875 24.2811 13.6 23.9955 13.6C23.7098 13.7438 23.8526 14.0312 23.8526 14.0312L27.8521 25.1H27.7093C26.7094 23.5188 25.1382 22.6562 24.5668 20.6438C23.8526 18.3438 22.1385 17.4812 21.4243 16.7625C20.7101 16.0437 21.1387 15.1812 20.853 15.1812C20.5673 15.1812 20.2816 16.0438 20.9958 17.1938C21.71 18.3438 22.8527 18.3437 23.7098 21.2187C24.424 23.6625 25.7095 24.0938 26.5666 25.8188L26.4237 25.9625L17.8533 17.9125C17.8533 17.9125 17.5676 17.625 17.4248 17.7688C17.282 17.9125 17.5676 18.2 17.5676 18.2L25.5667 26.825L25.4239 26.9687C23.8526 25.8187 22.1385 25.675 20.853 24.0937C19.2817 22.225 17.4248 22.225 16.5678 21.7937C15.7107 21.3625 15.7107 20.5 15.425 20.6438C15.1394 20.7875 15.2822 21.65 16.2821 22.5125C17.4248 23.375 18.4247 22.9438 20.2816 25.1C21.8529 26.9688 23.2813 26.9687 24.5668 28.1187C24.5668 28.1187 24.5668 28.2625 24.424 28.2625L13.4253 24.2375C13.4253 24.2375 13.1396 24.0938 12.9968 24.3813C12.8539 24.6687 13.2824 24.8125 13.2824 24.8125L23.8526 29.7V29.8437C21.9957 29.4125 20.2816 29.8437 18.5675 28.9812C16.4249 27.8312 14.568 28.55 13.711 28.55C12.7111 28.4062 12.4254 27.6875 12.2826 27.8312C11.9969 27.975 12.5682 28.8375 13.8538 29.2687C15.1394 29.5562 15.9964 28.8375 18.5675 30.1313C20.853 31.2812 21.9957 30.7062 23.7098 31.2812V31.425L11.9969 31.8562C11.9969 31.8562 11.5684 31.8562 11.5684 32.1437C11.5684 32.4312 11.9969 32.4312 11.9969 32.4312L23.7098 32.8625V33.0062C21.8529 33.2937 20.4245 34.4437 18.4247 34.3C15.9964 34.0125 14.568 35.45 13.711 35.7375C12.7111 36.025 12.1397 35.45 12.1397 35.7375C11.9969 36.025 12.7111 36.6 14.1395 36.4562C15.5679 36.3125 15.8536 35.3062 18.8532 35.45C21.4243 35.5938 22.2814 34.5875 24.1383 34.5875V34.7313L13.5681 39.6187C13.5681 39.6187 13.2824 39.7625 13.2824 40.05C13.2824 40.3375 13.711 40.1937 13.711 40.1937L24.7097 36.1688V36.3125C23.1384 37.3187 22.2814 38.9 20.2816 39.475C17.9962 40.1937 17.1391 41.9187 16.4249 42.6375C15.7107 43.3562 14.8537 42.925 14.8537 43.2125C14.8537 43.5 15.7107 43.7875 16.8534 43.0687C17.9962 42.35 17.9962 41.2 20.853 40.3375C23.2813 39.6187 23.7098 38.325 25.4239 37.4625L25.5667 37.6063L17.5676 46.2313C17.5676 46.2313 17.282 46.5187 17.4248 46.6625C17.5676 46.8062 17.8533 46.5187 17.8533 46.5187L26.4237 38.4687L26.5666 38.6125C25.4239 40.1937 25.281 41.9187 23.7098 43.2125C21.8529 44.7937 21.8529 46.6625 21.4243 47.525C20.9958 48.3875 20.1388 48.3875 20.2816 48.675C20.4245 48.9625 21.2815 48.8187 22.1385 47.8125C22.9956 46.8062 22.5671 45.6562 24.7097 43.7875C26.5666 42.2062 26.5666 40.7687 27.7093 39.475C27.7093 39.475 27.8521 39.475 27.8521 39.6187L23.8526 50.6875C23.8526 50.6875 23.7098 50.975 23.9955 51.1187C24.2811 51.2625 24.424 50.8312 24.424 50.8312L29.2805 40.1937H29.4234C28.9949 42.0625 29.4234 43.7875 28.5663 45.5125C27.4236 47.6688 28.1378 49.5375 27.995 50.4C27.8521 51.4062 27.1379 51.6937 27.2808 51.8375C27.4236 52.125 28.2807 51.55 28.7092 50.2562C28.9949 48.9625 28.2807 48.2437 29.5662 45.5125C30.709 43.2125 30.1376 42.0625 30.7089 40.3375H30.8518L31.2803 52.125C31.2803 52.125 31.2803 52.5562 31.566 52.5562C31.8517 52.5562 31.8517 52.125 31.8517 52.125L32.2802 40.3375H32.423C32.7087 42.2062 33.8514 43.6437 33.7086 45.6562C33.4229 48.1 34.8513 49.5375 35.137 50.4C35.4227 51.4062 34.8513 51.9813 35.137 51.9813C35.4227 52.125 35.994 51.4062 35.8512 49.9687C35.7084 48.675 34.5656 48.2437 34.8513 45.225C34.9942 42.6375 33.9943 41.775 33.9943 39.9062H34.1371L38.9937 50.5438C38.9937 50.5438 39.1365 50.8312 39.4222 50.8312C39.7079 50.6875 39.565 50.4 39.565 50.4L35.4227 39.1875H35.5655C36.5654 40.7687 38.1366 41.6312 38.708 43.6437C39.4222 45.9437 41.1363 46.8062 41.8505 47.525C42.5647 48.2437 42.1362 49.1063 42.4218 49.1063C42.7075 49.1063 42.9932 48.2437 42.279 47.0937C41.5648 45.9437 40.4221 45.9437 39.565 43.0687C38.8508 40.625 37.5653 40.1937 36.7082 38.4687L36.8511 38.325L45.4215 46.375C45.4215 46.375 45.7072 46.6625 45.85 46.5187C45.9929 46.375 45.7072 46.0875 45.7072 46.0875L37.7081 37.4625L37.851 37.3187C39.4222 38.4687 41.1363 38.6125 42.4218 40.1937C43.9931 42.0625 45.85 42.0625 46.7071 42.4937C47.5641 42.925 47.5641 43.7875 47.8498 43.6437C48.1355 43.5 47.9926 42.6375 46.9927 41.775C45.85 40.9125 44.8501 41.3437 42.9932 39.1875C41.422 37.3187 39.9936 37.3187 38.708 36.025C38.708 36.025 38.708 35.8812 38.8508 35.8812L49.8495 39.9062C49.8495 39.9062 50.1352 40.05 50.2781 39.7625C50.4209 39.475 49.9924 39.3312 49.9924 39.3312L39.4222 34.4437V34.3C41.2791 34.7312 42.9932 34.3 44.7073 35.1625C46.8499 36.3125 48.7068 35.5937 49.5639 35.5937C50.5637 35.7375 50.8494 36.4562 50.9923 36.3125C51.2779 36.1687 50.7066 35.3062 49.421 34.875C48.1355 34.5875 47.2784 35.3062 44.7073 34.0125C42.4218 32.8625 41.2791 33.4375 39.565 32.8625V32.7187L51.2779 32.2875C51.2779 32.2875 51.7065 32.2875 51.7065 32C51.7065 31.7125 51.2779 31.7125 51.2779 31.7125Z" fill="#F6B40E"/>
<path d="M35.9943 30.9937C35.5658 30.5625 34.9944 30.275 34.423 30.275C33.8517 30.275 33.4231 30.5625 32.9946 30.9937C33.7088 31.5687 34.9944 31.5687 35.9943 30.9937ZM35.5658 30.85C35.2801 31.1375 34.9944 31.2812 34.7087 31.2812C34.8515 31.1375 34.9944 30.9937 34.9944 30.85C34.9944 30.7062 34.8515 30.5625 34.7087 30.4187C35.1372 30.5625 35.4229 30.7062 35.5658 30.85ZM33.9945 30.4187C33.8517 30.5625 33.8517 30.7062 33.8517 30.85C33.8517 30.9937 33.9945 31.2812 34.1374 31.2812C33.8517 31.2812 33.566 31.1375 33.2803 30.85C33.566 30.7062 33.7088 30.5625 33.9945 30.4187Z" fill="#85340A"/>
<path d="M34.5659 29.8438C33.7089 29.8438 33.566 29.9875 33.2803 30.275C32.8518 30.5625 32.709 30.5625 32.709 30.5625C32.709 30.5625 32.709 30.85 32.8518 30.7063C32.9947 30.7063 33.2803 30.5625 33.566 30.275C33.9945 29.9875 34.2802 29.9875 34.7087 29.9875C35.8515 29.9875 36.4228 30.85 36.5657 30.85C36.7085 30.85 35.7086 29.8438 34.5659 29.8438Z" fill="#85340A"/>
<path d="M32.1372 29.7C31.9944 29.9875 31.9944 30.1312 31.9944 30.4187C31.8516 31.2812 31.9944 32.2875 32.5657 33.2937C32.5657 33.2937 32.7086 33.15 32.8514 33.15C32.2801 32.4312 32.1372 31.5687 32.1372 30.85C32.1372 30.4187 32.4229 30.1312 32.5657 29.8437C33.5656 28.9812 35.2797 29.125 36.7081 30.275C35.4225 28.4062 33.5656 28.55 32.1372 29.7Z" fill="#85340A"/>
<path d="M33.5655 31.5688C33.137 31.2813 32.9942 31.1375 32.8513 31.1375C32.7085 31.1375 32.7085 31.2813 33.2798 31.5688C33.8512 31.8563 34.9939 32 35.9938 31.1375C34.8511 31.7125 33.994 31.7125 33.5655 31.5688Z" fill="#85340A"/>
<path d="M32.8514 33.8687C32.7086 33.8687 32.5658 33.725 32.4229 33.5812C32.4229 33.725 32.1372 34.0125 31.7087 34.0125C31.2802 34.0125 30.9945 33.5812 30.9945 33.5812C30.9945 33.725 30.8517 33.8687 30.566 33.8687C30.4232 33.8687 30.1375 33.725 30.1375 33.4375C30.1375 33.2937 30.2803 33.15 30.4232 33.15C30.1375 33.15 29.9946 33.4375 29.9946 33.725C29.9946 34.0125 30.2803 34.3 30.566 34.3C30.7088 34.3 30.8517 34.1562 30.9945 34.0125C31.1374 34.1562 31.5659 34.1562 31.7087 34.1562H31.8516C31.9944 34.1562 32.2801 34.1562 32.5658 34.0125C32.7086 34.1562 32.8514 34.3 32.9943 34.3C33.28 34.3 33.5656 34.0125 33.5656 33.725C33.5656 33.4375 33.4228 33.2937 33.1371 33.15C33.28 33.15 33.4228 33.2937 33.4228 33.4375C33.28 33.725 33.1371 33.8687 32.8514 33.8687Z" fill="#85340A"/>
<path d="M31.7088 35.1625C31.9944 35.1625 32.2801 34.875 32.7086 35.1625C33.1372 35.45 33.4228 35.5937 33.7085 35.7375C33.1372 35.3062 32.8515 34.875 32.2801 34.875C32.1373 34.875 31.8516 34.875 31.7088 35.0187C31.4231 34.875 31.2802 34.875 31.1374 34.875C30.566 34.875 30.2803 35.45 29.709 35.7375C29.9947 35.5937 30.2803 35.3063 30.7089 35.1625C31.1374 35.0188 31.4231 35.1625 31.7088 35.1625Z" fill="#85340A"/>
<path d="M31.7088 35.5938C31.4231 35.5938 31.2802 35.45 30.8517 35.5938C30.566 35.5938 30.2803 35.5938 29.8518 35.7375H29.709C30.9945 35.8813 30.4232 36.6 31.7088 36.6C32.9943 36.6 32.423 35.8813 33.7085 35.7375H33.4228C32.2801 35.3063 32.1373 35.5938 31.7088 35.5938ZM31.7088 36.3125C30.7089 36.3125 30.9945 35.5938 29.8518 35.5938C30.9945 35.3063 31.1374 35.7375 31.7088 35.7375C32.1373 35.7375 32.423 35.45 33.5657 35.5938C32.423 35.7375 32.7086 36.3125 31.7088 36.3125Z" fill="#85340A"/>
<path d="M31.7091 36.6C31.1378 36.6 30.5664 37.0313 30.5664 37.75C30.7092 37.175 31.1378 36.8875 31.7091 36.8875C32.2805 36.8875 32.709 37.3188 32.8518 37.75C32.8518 37.0313 32.2805 36.6 31.7091 36.6Z" fill="#85340A"/>
<path d="M30.8518 29.8437C31.1375 30.1312 31.2804 30.5625 31.2804 30.85C31.4232 31.5687 31.1375 32.2875 30.5662 33.15C30.5662 33.15 30.709 33.15 30.8518 33.2937C31.2804 32.2875 31.566 31.425 31.4232 30.4187C31.4232 30.1312 31.2804 29.9875 31.2804 29.7C29.9948 28.55 28.1379 28.4062 26.7095 30.275C28.1379 28.9812 29.9948 28.8375 30.8518 29.8437Z" fill="#85340A"/>
<path d="M29.9974 30.4187C30.4259 30.7062 30.5687 30.85 30.7116 30.85C30.8544 30.85 30.8544 30.7062 30.8544 30.7062C30.8544 30.7062 30.5687 30.7062 30.2831 30.4187C29.8545 30.1312 29.7117 29.9875 28.9975 29.9875C27.7119 29.9875 26.9977 30.9937 27.1406 30.9937C27.2834 30.9937 27.8548 30.1312 28.9975 30.1312C29.2832 30.1312 29.7117 30.1312 29.9974 30.4187Z" fill="#85340A"/>
<path d="M27.5718 30.9937C27.8575 31.2812 28.4288 31.425 29.0002 31.425C29.4287 31.425 30.0001 31.2812 30.4286 30.9937C30.0001 30.5625 29.4287 30.275 28.8573 30.275C28.4288 30.275 27.8575 30.5625 27.5718 30.9937ZM27.8575 30.9937C28.1431 30.7062 28.4288 30.4187 28.7145 30.4187C28.5717 30.5625 28.4288 30.7062 28.4288 30.85C28.4288 31.1375 28.5717 31.2812 28.7145 31.2812C28.4288 31.425 28.0003 31.2812 27.8575 30.9937ZM30.0001 30.85C29.8572 30.9937 29.5715 31.1375 29.2859 31.2812C29.4287 31.1375 29.4287 30.9937 29.4287 30.85C29.4287 30.7062 29.2859 30.5625 29.2859 30.4187C29.7144 30.5625 30.0001 30.7062 30.0001 30.85Z" fill="#85340A"/>
<path d="M30.7143 31.1375C30.5714 31.1375 30.4286 31.2813 30.0001 31.5688C29.5715 31.8563 28.7145 31.8563 27.5718 31.2813C28.5717 32.1438 29.7144 32 30.2857 31.7125C30.8571 31.2813 30.8571 31.1375 30.7143 31.1375Z" fill="#85340A"/>
</g>
<rect x="1.5" y="1.5" width="61" height="61" rx="3.5" stroke="white" stroke-opacity="0.3" stroke-width="3"/>
</svg>
