<svg width="64" height="64" viewBox="0 0 64 64" fill="none" xmlns="http://www.w3.org/2000/svg">
<mask id="mask0_315_7149" style="mask-type:alpha" maskUnits="userSpaceOnUse" x="0" y="0" width="64" height="64">
<rect width="64" height="64" rx="5" fill="#C4C4C4"/>
</mask>
<g mask="url(#mask0_315_7149)">
<g clip-path="url(#clip0_315_7149)">
<path d="M93.37 29.5667H90.43V20.6667C88.33 16.365 85.18 12.36 81.4 8.8H68.8V-0.1C58.3 -5.73667 45.28 -9 31 -9C-3.86 -9 -32 10.8767 -32 35.5C-32 37.5767 -31.79 39.505 -31.37 41.4333H-28.43V50.3333C-26.33 54.635 -23.18 58.64 -19.4 62.2H-6.8V71.1C3.7 76.7367 16.72 80 31 80C45.28 80 58.3 76.7367 68.8 71.1V62.2H81.4C85.18 58.64 88.33 54.635 90.43 50.3333V41.4333H93.37C93.79 39.505 94 37.5767 94 35.5C94 33.4233 93.79 31.495 93.37 29.5667Z" fill="#F9F9F9"/>
<path d="M-4.9124 45.75H72.9126C73.8751 43.1375 74.5626 40.3875 74.8376 37.5H-6.8374C-6.5624 40.3875 -5.8749 43.1375 -4.9124 45.75Z" fill="#428BC1"/>
<path d="M-15 57C-11.8125 60.0667 -8.0625 62.7333 -3.75 65H63.75C68.0625 62.7333 71.8125 60.0667 75 57H-15Z" fill="#428BC1"/>
<path d="M34 7H75C72.0958 3.93333 68.6792 1.26667 64.75 -1H34V7Z" fill="#428BC1"/>
<path d="M34 26.5H74.8375C74.425 23.6125 73.7375 20.8625 72.9125 18.25H34V26.5Z" fill="#428BC1"/>
<path d="M12.9624 22.1C12.9624 21.9625 12.9624 22.1 12.9624 22.1L11.0374 23.475C9.9374 26.0875 10.3499 27.1875 10.4874 28.15L9.5249 30.4875C13.2374 29.25 10.0749 27.05 15.1624 23.3375L13.9249 21.4125L12.9624 22.1Z" fill="#FCD116" stroke="black" stroke-width="0.1" stroke-miterlimit="20"/>
<path d="M11.8625 20.0375L10.7625 19.9L8.5625 19.4875C5.95 20.5875 5.4 21.6875 4.85 22.375L2.375 23.2C5.8125 24.9875 5.125 21.1375 11.45 22.1L11.8625 20.0375Z" fill="#FCD116" stroke="black" stroke-width="0.1" stroke-miterlimit="20"/>
<path d="M9.525 18.6625L11.45 17.425L10.7625 16.4625H10.9C10.9 16.4625 10.7625 16.4625 10.7625 16.325L9.525 14.4C6.9125 13.3 5.8125 13.7125 4.85 13.85L2.375 13.025C3.6125 16.6 5.8125 13.4375 9.525 18.6625Z" fill="#FCD116" stroke="black" stroke-width="0.1" stroke-miterlimit="20"/>
<path d="M10.7627 14.675L12.9627 15.0875L13.1002 13.9875L13.5127 11.7875C12.4127 9.17499 11.3127 8.62499 10.6252 8.07499L9.66273 5.73749C7.87523 9.17499 11.7252 8.48749 10.7627 14.675Z" fill="#FCD116" stroke="black" stroke-width="0.1" stroke-miterlimit="20"/>
<path d="M19.9749 5.875C16.2624 7.1125 19.4249 9.3125 14.3374 13.025L15.5749 14.95L18.4624 13.025C20.3874 8.35 17.7749 8.075 19.9749 5.875Z" fill="#FCD116" stroke="black" stroke-width="0.1" stroke-miterlimit="20"/>
<path d="M17.9126 16.4625L19.0126 16.6H18.8751H19.0126L21.2126 17.0125C23.8251 15.9125 24.3751 14.8125 24.9251 14.125L27.2626 13.1625C23.8251 11.375 24.5126 15.225 18.1876 14.2625L17.9126 16.4625Z" fill="#FCD116" stroke="black" stroke-width="0.1" stroke-miterlimit="20"/>
<path d="M20.1125 17.8375L18.1875 19.075L18.875 20.0375H18.7375C18.7375 20.0375 18.875 20.0375 18.875 20.175L20.1125 22.1C22.725 23.2 23.825 22.7875 24.7875 22.65L27.125 23.6125C26.025 19.9 23.825 23.0625 20.1125 17.8375Z" fill="#FCD116" stroke="black" stroke-width="0.1" stroke-miterlimit="20"/>
<path d="M18.5999 21.6875L16.3999 21.275L16.1249 22.375V22.2375V22.375L15.7124 24.575C16.8124 27.1875 17.9124 27.7375 18.5999 28.2875L19.5624 30.625C21.3499 27.1875 17.4999 27.875 18.5999 21.6875Z" fill="#FCD116" stroke="black" stroke-width="0.1" stroke-miterlimit="20"/>
<path d="M18.875 20.0375L28.5 18.25L18.875 16.4625L24.5125 8.4875L16.5375 14.125L14.75 4.5L12.9625 14.125L4.9875 8.4875L10.4875 16.4625L1 18.25L10.4875 20.0375L4.9875 28.0125L12.9625 22.5125L14.75 32L16.5375 22.5125L24.5125 28.0125L18.875 20.0375Z" fill="#FCD116" stroke="black" stroke-width="0.1" stroke-miterlimit="20"/>
<path d="M14.7499 22.7875C17.2559 22.7875 19.2874 20.756 19.2874 18.25C19.2874 15.744 17.2559 13.7125 14.7499 13.7125C12.2439 13.7125 10.2124 15.744 10.2124 18.25C10.2124 20.756 12.2439 22.7875 14.7499 22.7875Z" fill="#FCD116" stroke="black" stroke-width="0.1" stroke-miterlimit="20"/>
<path d="M18.1874 16.4625C17.9124 16.7375 17.7749 16.1875 16.6749 16.1875C15.5749 16.1875 15.4374 16.875 15.2999 16.7375C15.1624 16.6 16.1249 15.9125 16.5374 15.775C16.8124 15.775 17.7749 16.05 18.1874 16.4625ZM16.9499 16.7375C17.2249 17.0125 16.9499 17.5625 16.6749 17.5625C16.3999 17.5625 15.8499 17.0125 16.1249 16.7375" fill="black"/>
<path d="M15.5747 17.15C15.5747 16.6 15.9872 16.6 16.6747 16.6C17.3622 16.6 17.6372 17.15 17.9122 17.2875C17.6372 17.2875 17.3622 16.875 16.6747 16.875C15.9872 16.7375 15.9872 16.7375 15.5747 17.15ZM15.7122 17.2875C15.8497 17.0125 16.1247 17.5625 16.5372 17.5625C16.9497 17.5625 17.2247 17.425 17.4997 17.2875C17.7747 17.0125 17.0872 17.8375 16.6747 17.8375C16.1247 17.7 15.5747 17.425 15.7122 17.2875Z" fill="black"/>
<path d="M17.0876 17.5625C17.6376 17.2875 17.3626 16.875 17.0876 16.7375C17.2251 16.875 17.5001 17.2875 17.0876 17.5625ZM14.7501 20.0375C15.0251 20.0375 15.0251 19.9 15.4376 19.9C15.8501 19.9 16.5376 20.3125 17.0876 20.175C16.1251 20.5875 16.5376 20.3125 14.8876 20.3125H14.6126L14.7501 20.0375ZM17.2251 20.5875C17.0876 20.3125 17.0876 20.3125 16.8126 19.9C17.0876 20.175 17.0876 20.3125 17.2251 20.5875ZM14.7501 21C15.8501 21 15.5751 20.725 16.9501 20.175C15.9876 20.3125 15.7126 20.5875 14.7501 20.5875H14.4751L14.7501 21ZM14.7501 19.4875C15.0251 19.4875 15.1626 19.2125 15.4376 19.2125C15.7126 19.2125 16.2626 19.35 16.4001 19.4875C16.4001 19.4875 16.2626 19.2125 15.9876 19.075C15.7126 19.075 15.7126 18.525 15.4376 18.3875C15.4376 18.525 15.5751 18.525 15.5751 18.8C15.5751 19.075 15.1626 19.075 15.1626 18.8C15.3001 19.075 15.0251 19.075 14.7501 19.075" fill="black"/>
<path d="M11.3125 16.4625C11.5875 16.7375 11.725 16.1875 12.825 16.1875C13.925 16.1875 14.0625 16.875 14.2 16.7375C14.3375 16.6 13.375 15.9125 12.9625 15.775C12.6875 15.775 11.725 16.05 11.3125 16.4625ZM12.55 16.7375C12.275 17.0125 12.55 17.5625 12.825 17.5625C13.1 17.5625 13.65 17.0125 13.375 16.7375" fill="black"/>
<path d="M13.9249 17.15C13.9249 16.6 13.5124 16.6 12.8249 16.6C12.1374 16.6 11.8624 17.15 11.5874 17.2875C11.8624 17.2875 12.1374 16.875 12.8249 16.875C13.5124 16.875 13.5124 16.7375 13.9249 17.15ZM13.7874 17.2875C13.6499 17.0125 13.3749 17.5625 12.9624 17.5625C12.5499 17.5625 12.2749 17.425 11.9999 17.2875C11.7249 17.0125 12.4124 17.8375 12.8249 17.8375C13.3749 17.7 13.9249 17.425 13.7874 17.2875Z" fill="black"/>
<path d="M12.4128 17.5625C11.8628 17.2875 12.1378 16.875 12.4128 16.7375C12.2753 16.875 12.0003 17.2875 12.4128 17.5625ZM14.7503 20.0375C14.4753 20.0375 14.4753 19.9 14.0628 19.9C13.6503 19.9 12.9628 20.3125 12.4128 20.175C13.3753 20.5875 12.9628 20.3125 14.6128 20.3125H14.8878L14.7503 20.0375ZM12.2753 20.5875C12.4128 20.3125 12.4128 20.3125 12.6878 19.9C12.4128 20.175 12.4128 20.3125 12.2753 20.5875ZM14.7503 21C13.6503 21 13.9253 20.725 12.5503 20.175C13.5128 20.3125 13.7878 20.5875 14.7503 20.5875H15.0253L14.7503 21ZM14.7503 19.4875C14.4753 19.4875 14.3378 19.2125 14.0628 19.2125C13.7878 19.2125 13.2378 19.35 13.1003 19.4875C13.1003 19.4875 13.2378 19.2125 13.5128 19.075C13.7878 19.075 13.7878 18.525 14.0628 18.3875C14.0628 18.525 13.9253 18.525 13.9253 18.8C13.9253 19.075 14.3378 19.075 14.3378 18.8C14.2003 19.075 14.4753 19.075 14.7503 19.075" fill="black"/>
<path d="M14.7503 21.4125C14.4753 21.4125 14.0628 21.55 14.7503 21.4125V21.4125Z" fill="black"/>
</g>
</g>
<rect x="1.5" y="1.5" width="61" height="61" rx="3.5" stroke="white" stroke-opacity="0.3" stroke-width="3"/>
<defs>
<clipPath id="clip0_315_7149">
<rect width="88" height="88" fill="white" transform="translate(-10 -12)"/>
</clipPath>
</defs>
</svg>
