<svg width="64" height="64" viewBox="0 0 64 64" fill="none" xmlns="http://www.w3.org/2000/svg">
<mask id="mask0_315_3761" style="mask-type:alpha" maskUnits="userSpaceOnUse" x="0" y="0" width="64" height="64">
<rect width="64" height="64" rx="5" fill="#C4C4C4"/>
</mask>
<g mask="url(#mask0_315_3761)">
<path d="M31.9999 -7.375C9.89365 -7.375 -8.8376 3.65 -15.7563 18.875H79.7561C72.8374 3.65 54.1062 -7.375 31.9999 -7.375Z" fill="#ED4C5C"/>
<path d="M31.9999 71.375C54.1062 71.375 72.8374 60.4812 79.7561 45.125H-15.7563C-8.8376 60.4812 9.89365 71.375 31.9999 71.375Z" fill="#83BF4F"/>
<path d="M-15.7562 18.875C-17.6125 22.9437 -18.625 27.4062 -18.625 32C-18.625 36.5938 -17.6125 41.0562 -15.7562 45.125H79.7562C81.6125 41.0562 82.625 36.5938 82.625 32C82.625 27.4062 81.6125 22.9437 79.7562 18.875H-15.7562Z" fill="#F9F9F9"/>
</g>
<rect x="1.5" y="1.5" width="61" height="61" rx="3.5" stroke="white" stroke-opacity="0.3" stroke-width="3"/>
</svg>
