<svg width="40" height="40" viewBox="0 0 40 40" fill="none" xmlns="http://www.w3.org/2000/svg">
<path d="M22.8492 30C23.2808 30 23.6947 29.8244 23.9999 29.5118C24.305 29.1993 24.4765 28.7754 24.4765 28.3333V25C24.4765 24.558 24.305 24.134 23.9999 23.8215C23.6947 23.5089 23.2808 23.3333 22.8492 23.3333C22.4176 23.3333 22.0037 23.5089 21.6985 23.8215C21.3933 24.134 21.2218 24.558 21.2218 25V28.3333C21.2218 28.7754 21.3933 29.1993 21.6985 29.5118C22.0037 29.8244 22.4176 30 22.8492 30ZM16.3399 30C16.7715 30 17.1854 29.8244 17.4906 29.5118C17.7957 29.1993 17.9672 28.7754 17.9672 28.3333V25C17.9672 24.558 17.7957 24.134 17.4906 23.8215C17.1854 23.5089 16.7715 23.3333 16.3399 23.3333C15.9083 23.3333 15.4944 23.5089 15.1892 23.8215C14.884 24.134 14.7125 24.558 14.7125 25V28.3333C14.7125 28.7754 14.884 29.1993 15.1892 29.5118C15.4944 29.8244 15.9083 30 16.3399 30ZM30.9858 9.99999H28.7401L25.9248 4.24999C25.8388 4.03842 25.7111 3.84728 25.5497 3.68854C25.3883 3.5298 25.1966 3.40686 24.9867 3.3274C24.7768 3.24794 24.5532 3.21367 24.3297 3.22674C24.1063 3.23981 23.8879 3.29993 23.6882 3.40334C23.4885 3.50676 23.3118 3.65124 23.1691 3.82777C23.0264 4.00431 22.9207 4.20909 22.8588 4.42932C22.7969 4.64955 22.7799 4.8805 22.8091 5.10774C22.8382 5.33498 22.9128 5.55362 23.0282 5.74999L25.0949 9.99999H14.0942L16.1609 5.74999C16.3188 5.36151 16.3274 4.9262 16.185 4.53147C16.0425 4.13675 15.7595 3.81182 15.3929 3.62194C15.0262 3.43205 14.6029 3.39126 14.2081 3.50776C13.8133 3.62426 13.4761 3.88941 13.2642 4.24999L10.449 9.99999H8.20325C7.05303 10.0179 5.94595 10.4512 5.07724 11.2235C4.20853 11.9959 3.634 13.0575 3.45499 14.2213C3.27598 15.3851 3.50398 16.5763 4.09879 17.5847C4.69359 18.5932 5.61698 19.3541 6.70611 19.7333L7.91033 32.1667C8.03176 33.4043 8.59925 34.5511 9.50197 35.3832C10.4047 36.2153 11.5778 36.6729 12.7923 36.6667H26.4293C27.6437 36.6729 28.8169 36.2153 29.7196 35.3832C30.6223 34.5511 31.1898 33.4043 31.3112 32.1667L32.5155 19.7333C33.607 19.353 34.5318 18.5893 35.1262 17.5775C35.7206 16.5657 35.9461 15.371 35.7629 14.2052C35.5797 13.0394 34.9995 11.9776 34.1252 11.208C33.2508 10.4383 32.1387 10.0103 30.9858 9.99999ZM28.0403 31.8333C27.9998 32.2459 27.8107 32.6281 27.5098 32.9055C27.2089 33.1829 26.8178 33.3354 26.413 33.3333H12.776C12.3712 33.3354 11.9802 33.1829 11.6792 32.9055C11.3783 32.6281 11.1892 32.2459 11.1487 31.8333L9.9933 20H29.1957L28.0403 31.8333ZM30.9858 16.6667H8.20325C7.77165 16.6667 7.35774 16.4911 7.05255 16.1785C6.74737 15.8659 6.57592 15.442 6.57592 15C6.57592 14.558 6.74737 14.134 7.05255 13.8215C7.35774 13.5089 7.77165 13.3333 8.20325 13.3333H30.9858C31.4174 13.3333 31.8313 13.5089 32.1365 13.8215C32.4417 14.134 32.6131 14.558 32.6131 15C32.6131 15.442 32.4417 15.8659 32.1365 16.1785C31.8313 16.4911 31.4174 16.6667 30.9858 16.6667Z" fill="#41204F"/>
</svg>
