<svg width="54" height="54" viewBox="0 0 54 54" fill="none" xmlns="http://www.w3.org/2000/svg">
<path d="M28.26 4.88247C27.8879 4.63098 27.4491 4.49658 27 4.49658C26.5509 4.49658 26.1121 4.63098 25.74 4.88247C25.065 5.33247 9.5625 16.1325 9.5625 32.0625C9.5625 36.6872 11.3997 41.1225 14.6698 44.3926C17.94 47.6628 22.3753 49.5 27 49.5C31.6247 49.5 36.06 47.6628 39.3302 44.3926C42.6003 41.1225 44.4375 36.6872 44.4375 32.0625C44.4375 15.8625 28.9125 5.30997 28.26 4.88247ZM27 45C23.5706 44.994 20.2833 43.6291 17.8584 41.2041C15.4334 38.7791 14.0684 35.4919 14.0625 32.0625C14.0625 20.8125 23.535 12.33 27 9.56247C30.4875 12.285 39.9375 20.8125 39.9375 32.0625C39.9316 35.4919 38.5666 38.7791 36.1416 41.2041C33.7167 43.6291 30.4294 44.994 27 45Z" fill="#9259A9"/>
</svg>
