<svg width="46" height="46" viewBox="0 0 46 46" fill="none" xmlns="http://www.w3.org/2000/svg">
<path d="M41.6109 38.8892L34.5001 31.8358C37.2603 28.3943 38.5969 24.026 38.2353 19.6292C37.8736 15.2323 35.8411 11.1412 32.5556 8.1969C29.2702 5.25264 24.9815 3.67906 20.5715 3.79973C16.1615 3.92041 11.9653 5.72616 8.84575 8.84569C5.72622 11.9652 3.92047 16.1614 3.7998 20.5714C3.67912 24.9815 5.2527 29.2701 8.19696 32.5556C11.1412 35.841 15.2324 37.8736 19.6292 38.2352C24.0261 38.5969 28.3943 37.2602 31.8359 34.5L38.8892 41.5533C39.0674 41.733 39.2794 41.8756 39.513 41.9729C39.7465 42.0702 39.997 42.1203 40.2501 42.1203C40.5031 42.1203 40.7536 42.0702 40.9872 41.9729C41.2207 41.8756 41.4327 41.733 41.6109 41.5533C41.9564 41.1959 42.1495 40.7183 42.1495 40.2213C42.1495 39.7242 41.9564 39.2466 41.6109 38.8892ZM21.0834 34.5C18.4298 34.5 15.8359 33.7131 13.6295 32.2389C11.4231 30.7646 9.70349 28.6692 8.68801 26.2177C7.67253 23.7661 7.40684 21.0685 7.92452 18.4659C8.44221 15.8633 9.72002 13.4727 11.5964 11.5963C13.4727 9.71996 15.8634 8.44215 18.4659 7.92446C21.0685 7.40678 23.7662 7.67247 26.2177 8.68795C28.6693 9.70342 30.7647 11.4231 32.2389 13.6294C33.7132 15.8358 34.5001 18.4298 34.5001 21.0833C34.5001 24.6417 33.0865 28.0542 30.5704 30.5704C28.0543 33.0865 24.6417 34.5 21.0834 34.5Z" fill="#381945"/>
</svg>
