<svg width="54" height="54" viewBox="0 0 54 54" fill="none" xmlns="http://www.w3.org/2000/svg">
<path d="M47.97 11.3625L34.47 6.8625H34.3125C34.2078 6.85197 34.1022 6.85197 33.9975 6.8625H33.03L20.25 11.25L7.47001 6.8625C7.13164 6.75093 6.77162 6.7213 6.41956 6.77607C6.06751 6.83083 5.73349 6.96842 5.44501 7.1775C5.15421 7.38454 4.91685 7.65779 4.75254 7.97469C4.58822 8.29159 4.50166 8.64304 4.50001 9V40.5C4.49879 40.9717 4.64585 41.4318 4.9204 41.8154C5.19495 42.199 5.58311 42.4866 6.03001 42.6375L19.53 47.1375C19.9833 47.2853 20.4718 47.2853 20.925 47.1375L33.75 42.8625L46.53 47.25C46.7689 47.2824 47.0111 47.2824 47.25 47.25C47.7204 47.2566 48.1797 47.1062 48.555 46.8225C48.8458 46.6155 49.0832 46.3422 49.2475 46.0253C49.4118 45.7084 49.4984 45.357 49.5 45V13.5C49.5012 13.0283 49.3542 12.5682 49.0796 12.1846C48.8051 11.801 48.4169 11.5134 47.97 11.3625ZM18 41.8725L9.00001 38.88V12.1275L18 15.12V41.8725ZM31.5 38.88L22.5 41.8725V15.12L31.5 12.1275V38.88ZM45 41.8725L36 38.88V12.1275L45 15.12V41.8725Z" fill="#9259A9"/>
</svg>
