<svg width="46" height="46" viewBox="0 0 46 46" fill="none" xmlns="http://www.w3.org/2000/svg">
<path d="M24.9166 26.8333H17.25C16.7416 26.8333 16.2541 27.0353 15.8947 27.3947C15.5352 27.7542 15.3333 28.2417 15.3333 28.75C15.3333 29.2583 15.5352 29.7459 15.8947 30.1053C16.2541 30.4647 16.7416 30.6667 17.25 30.6667H24.9166C25.425 30.6667 25.9125 30.4647 26.2719 30.1053C26.6314 29.7459 26.8333 29.2583 26.8333 28.75C26.8333 28.2417 26.6314 27.7542 26.2719 27.3947C25.9125 27.0353 25.425 26.8333 24.9166 26.8333ZM32.5833 7.66668H30.3216C29.9262 6.54821 29.1945 5.57942 28.2268 4.89314C27.2592 4.20686 26.1029 3.83668 24.9166 3.83334H21.0833C19.897 3.83668 18.7407 4.20686 17.7731 4.89314C16.8054 5.57942 16.0737 6.54821 15.6783 7.66668H13.4166C11.8916 7.66668 10.4291 8.27248 9.35076 9.35081C8.27243 10.4291 7.66663 11.8917 7.66663 13.4167V36.4167C7.66663 37.9417 8.27243 39.4042 9.35076 40.4825C10.4291 41.5609 11.8916 42.1667 13.4166 42.1667H32.5833C34.1083 42.1667 35.5708 41.5609 36.6492 40.4825C37.7275 39.4042 38.3333 37.9417 38.3333 36.4167V13.4167C38.3333 11.8917 37.7275 10.4291 36.6492 9.35081C35.5708 8.27248 34.1083 7.66668 32.5833 7.66668ZM19.1666 9.58334C19.1666 9.07501 19.3686 8.5875 19.728 8.22806C20.0874 7.86861 20.575 7.66668 21.0833 7.66668H24.9166C25.425 7.66668 25.9125 7.86861 26.2719 8.22806C26.6314 8.5875 26.8333 9.07501 26.8333 9.58334V11.5H19.1666V9.58334ZM34.5 36.4167C34.5 36.925 34.298 37.4125 33.9386 37.772C33.5791 38.1314 33.0916 38.3333 32.5833 38.3333H13.4166C12.9083 38.3333 12.4208 38.1314 12.0613 37.772C11.7019 37.4125 11.5 36.925 11.5 36.4167V13.4167C11.5 12.9083 11.7019 12.4208 12.0613 12.0614C12.4208 11.7019 12.9083 11.5 13.4166 11.5H15.3333V13.4167C15.3333 13.925 15.5352 14.4125 15.8947 14.772C16.2541 15.1314 16.7416 15.3333 17.25 15.3333H28.75C29.2583 15.3333 29.7458 15.1314 30.1052 14.772C30.4647 14.4125 30.6666 13.925 30.6666 13.4167V11.5H32.5833C33.0916 11.5 33.5791 11.7019 33.9386 12.0614C34.298 12.4208 34.5 12.9083 34.5 13.4167V36.4167ZM28.75 19.1667H17.25C16.7416 19.1667 16.2541 19.3686 15.8947 19.7281C15.5352 20.0875 15.3333 20.575 15.3333 21.0833C15.3333 21.5917 15.5352 22.0792 15.8947 22.4386C16.2541 22.7981 16.7416 23 17.25 23H28.75C29.2583 23 29.7458 22.7981 30.1052 22.4386C30.4647 22.0792 30.6666 21.5917 30.6666 21.0833C30.6666 20.575 30.4647 20.0875 30.1052 19.7281C29.7458 19.3686 29.2583 19.1667 28.75 19.1667Z" fill="#381945"/>
</svg>
