<svg width="54" height="54" viewBox="0 0 54 54" fill="none" xmlns="http://www.w3.org/2000/svg">
<path d="M40.5005 45H29.2505V33.615C34.199 33.0617 38.7703 30.7046 42.0907 26.994C45.4112 23.2833 47.2481 18.4794 47.2505 13.5C47.2618 10.8824 46.7493 8.28898 45.743 5.8725C45.6266 5.60246 45.4585 5.35785 45.248 5.1525L45.0005 4.9725C44.8568 4.85421 44.6979 4.75582 44.528 4.68C44.3286 4.58764 44.1161 4.52691 43.898 4.5H10.1255C9.90222 4.51024 9.68199 4.55581 9.47299 4.635C9.30937 4.73052 9.15159 4.83571 9.00049 4.95L8.73049 5.1525C8.52003 5.35785 8.35186 5.60246 8.23549 5.8725C7.23691 8.29057 6.73201 10.8839 6.75049 13.5C6.75285 18.4794 8.58976 23.2833 11.9102 26.994C15.2307 30.7046 19.8019 33.0617 24.7505 33.615V45H13.5005C12.9038 45 12.3315 45.2371 11.9095 45.659C11.4875 46.081 11.2505 46.6533 11.2505 47.25C11.2505 47.8467 11.4875 48.419 11.9095 48.841C12.3315 49.2629 12.9038 49.5 13.5005 49.5H40.5005C41.0972 49.5 41.6695 49.2629 42.0915 48.841C42.5134 48.419 42.7505 47.8467 42.7505 47.25C42.7505 46.6533 42.5134 46.081 42.0915 45.659C41.6695 45.2371 41.0972 45 40.5005 45ZM11.2505 13.5C11.2463 11.9761 11.4661 10.4599 11.903 9H42.098C42.5348 10.4599 42.7547 11.9761 42.7505 13.5C42.7505 17.6772 41.0911 21.6832 38.1374 24.6369C35.1837 27.5906 31.1776 29.25 27.0005 29.25C22.8233 29.25 18.8173 27.5906 15.8636 24.6369C12.9099 21.6832 11.2505 17.6772 11.2505 13.5Z" fill="#9259A9"/>
</svg>
