<svg width="54" height="54" viewBox="0 0 54 54" fill="none" xmlns="http://www.w3.org/2000/svg">
<path d="M30.1719 27L44.3469 12.8475C44.7706 12.4238 45.0086 11.8492 45.0086 11.25C45.0086 10.6508 44.7706 10.0762 44.3469 9.65249C43.9232 9.22881 43.3485 8.99078 42.7494 8.99078C42.1502 8.99078 41.5756 9.22881 41.1519 9.65249L26.9994 23.8275L12.8469 9.65249C12.4232 9.22881 11.8486 8.99078 11.2494 8.99078C10.6502 8.99078 10.0756 9.22881 9.65187 9.65249C9.22819 10.0762 8.99017 10.6508 8.99017 11.25C8.99017 11.8492 9.22819 12.4238 9.65187 12.8475L23.8269 27L9.65187 41.1525C9.44099 41.3617 9.2736 41.6105 9.15937 41.8847C9.04514 42.1589 8.98633 42.453 8.98633 42.75C8.98633 43.047 9.04514 43.3411 9.15937 43.6153C9.2736 43.8895 9.44099 44.1383 9.65187 44.3475C9.86104 44.5584 10.1099 44.7258 10.3841 44.84C10.6583 44.9542 10.9523 45.013 11.2494 45.013C11.5464 45.013 11.8405 44.9542 12.1147 44.84C12.3889 44.7258 12.6377 44.5584 12.8469 44.3475L26.9994 30.1725L41.1519 44.3475C41.361 44.5584 41.6099 44.7258 41.8841 44.84C42.1583 44.9542 42.4523 45.013 42.7494 45.013C43.0464 45.013 43.3405 44.9542 43.6147 44.84C43.8889 44.7258 44.1377 44.5584 44.3469 44.3475C44.5578 44.1383 44.7251 43.8895 44.8394 43.6153C44.9536 43.3411 45.0124 43.047 45.0124 42.75C45.0124 42.453 44.9536 42.1589 44.8394 41.8847C44.7251 41.6105 44.5578 41.3617 44.3469 41.1525L30.1719 27Z" fill="#C6C6C6"/>
</svg>
