<svg width="412" height="65" viewBox="0 0 412 65" fill="none" xmlns="http://www.w3.org/2000/svg">
<g clip-path="url(#clip0_198_22)">
<path d="M33.5521 42.9272H31.607C31.4221 42.9201 31.241 42.9772 31.1003 43.0871C30.9596 43.197 30.8696 43.3515 30.8485 43.5195C30.8485 43.709 30.7707 44.0051 30.7707 44.0051C28.8904 42.9805 27.4187 42.4652 26.3684 42.4652C24.4233 42.4652 22.6857 43.2826 21.227 44.8994C19.7017 46.6831 18.7218 48.8045 18.3872 51.0471C18.2789 51.7754 18.2226 52.5094 18.2186 53.2444C18.1238 54.8142 18.6077 56.3678 19.5931 57.6568C20.061 58.1978 20.6647 58.6278 21.3532 58.9103C22.0417 59.1928 22.7946 59.3195 23.548 59.2796C24.6455 59.2187 25.7018 58.8759 26.5953 58.2905C27.6882 57.6342 28.647 56.8084 29.4286 55.8504C29.4286 56.3361 29.5582 57.8878 29.6555 58.4386C29.667 58.5884 29.7404 58.7286 29.8607 58.8308C29.9811 58.9331 30.1395 58.9897 30.3038 58.9894H32.398C32.4928 58.9855 32.5854 58.9626 32.6694 58.9224C32.7534 58.8822 32.8268 58.8257 32.8843 58.7568C32.9418 58.6879 32.982 58.6083 33.0022 58.5236C33.0224 58.439 33.0219 58.3513 33.001 58.2668C32.577 55.8194 32.588 53.3255 33.0334 50.8813C33.0334 50.8813 34.2004 44.0288 34.2458 43.7386C34.2712 43.6424 34.2725 43.5422 34.2495 43.4454C34.2266 43.3487 34.18 43.258 34.1133 43.1799C34.0466 43.1019 33.9615 43.0387 33.8644 42.9949C33.7672 42.9512 33.6604 42.928 33.5521 42.9272ZM30.1807 46.6229C30.1482 46.771 29.837 48.4293 29.837 48.4293C29.485 50.4467 28.6959 52.3797 27.5159 54.115C26.4267 55.6253 25.2791 56.3775 24.0862 56.3775C23.8012 56.3577 23.5248 56.2792 23.2778 56.1479C23.0308 56.0166 22.8195 55.8359 22.6598 55.6194C22.0412 54.7764 21.7407 53.772 21.804 52.7588C21.8067 52.2354 21.85 51.7129 21.9337 51.1952C22.1735 49.567 22.9029 48.0314 24.0408 46.7592C24.4148 46.3106 24.8907 45.9412 25.4357 45.6764C25.9807 45.4116 26.582 45.2577 27.1982 45.2252C28.2317 45.2195 29.2261 45.5854 29.9667 46.2439C30.0316 46.2869 30.0835 46.3442 30.1175 46.4105C30.1515 46.4768 30.1666 46.5499 30.1612 46.6229H30.1807ZM16.0466 39.4802C14.616 38.3273 12.6082 37.7508 10.0235 37.7508H4.48658C4.3226 37.7387 4.15971 37.7839 4.03089 37.8774C3.90208 37.9709 3.81698 38.1056 3.79284 38.2542C3.74097 38.5208 0.453845 56.0221 0.0453851 58.2076C0.0126534 58.2989 0.00472542 58.3961 0.0222848 58.4908C0.0398443 58.5855 0.0823624 58.6749 0.146175 58.7513C0.209988 58.8277 0.293181 58.8887 0.388574 58.9291C0.483967 58.9696 0.588697 58.9882 0.693734 58.9835H3.02779C3.19806 58.9802 3.36175 58.9228 3.49072 58.8212C3.6197 58.7196 3.7059 58.5801 3.73449 58.4267C3.79933 58.0832 4.81724 52.5752 5.10251 51.0175C5.15438 50.8221 5.19328 50.7332 5.48503 50.7451C6.78173 50.8339 11.5925 50.9287 14.6397 48.8854C15.6375 48.2805 16.4581 47.4618 17.0299 46.5007C17.6018 45.5396 17.9075 44.4652 17.9204 43.3714C17.9529 42.6353 17.8011 41.9021 17.4763 41.2278C17.1516 40.5535 16.6626 39.9557 16.0466 39.4802ZM8.26645 47.8785C7.61943 47.925 6.9701 47.9388 6.32141 47.92C5.91943 47.92 5.77679 47.7897 5.83514 47.4817C6.07503 46.2202 6.98921 41.1859 7.02162 41.026C7.05404 40.8661 7.11239 40.4989 7.58568 40.4989H8.45447C12.2343 40.4989 14.0627 41.411 14.1535 43.3951C14.2831 45.9359 11.9296 47.6061 8.2081 47.8785H8.26645ZM183.567 42.5067C180.753 42.7554 178.402 44.1867 176.513 46.8006C176.513 46.8006 177.038 43.9992 177.097 43.6794C177.174 43.247 177.012 42.9272 176.448 42.9272H174.244C174.153 42.918 174.061 42.9265 173.974 42.9521C173.887 42.9777 173.807 43.0199 173.739 43.0758C173.671 43.1318 173.616 43.2002 173.579 43.2767C173.542 43.3532 173.524 43.4359 173.524 43.5195C173.492 43.7445 171.326 56.3597 171.009 58.2135C170.98 58.3085 170.976 58.4083 170.998 58.5049C171.019 58.6014 171.065 58.692 171.132 58.7692C171.199 58.8465 171.285 58.9083 171.383 58.9496C171.481 58.991 171.588 59.0107 171.696 59.0071H173.835C174.012 59.0062 174.182 58.9449 174.311 58.8353C174.441 58.7257 174.521 58.5757 174.536 58.4149C174.587 58.1069 174.801 56.9579 174.801 56.9579C175.45 53.3747 176.675 50.443 178.445 48.222C179.91 46.3623 181.077 45.5509 182.543 45.4384C182.808 45.4178 183.075 45.4178 183.34 45.4384C183.677 45.4384 183.924 45.3614 183.989 45.0001C184.092 44.4967 184.28 43.3951 184.319 43.2233C184.397 42.6488 183.969 42.4593 183.509 42.5067H183.567ZM96.7661 38.3135C96.7496 38.1527 96.6653 38.0041 96.531 37.8991C96.3967 37.7941 96.2229 37.7409 96.0465 37.7508H92.9279C92.773 37.7431 92.6196 37.7817 92.4909 37.8608C92.3622 37.9399 92.2652 38.0551 92.2147 38.1891L81.2382 57.9885C81.1718 58.0892 81.1368 58.2047 81.137 58.3223C81.1372 58.44 81.1726 58.5553 81.2393 58.6559C81.3061 58.7565 81.4016 58.8385 81.5157 58.8931C81.6297 58.9477 81.758 58.9728 81.8865 58.9657H83.9288C84.0676 58.9687 84.2041 58.9329 84.32 58.863C84.4359 58.7931 84.5256 58.6926 84.5771 58.5748L87.8708 52.4923H96.0594L97.2135 58.4149C97.2403 58.5733 97.3295 58.7174 97.4645 58.8199C97.5994 58.9224 97.7707 58.9764 97.9461 58.9716H100.092C100.201 58.9795 100.311 58.9634 100.412 58.9248C100.512 58.8863 100.602 58.8263 100.672 58.7498C100.742 58.6734 100.792 58.5827 100.816 58.4853C100.84 58.3879 100.839 58.2866 100.812 58.1898C100.792 57.87 97.1292 40.0666 96.7661 38.3135ZM89.4657 49.6968L93.8615 41.642L95.5148 49.6968H89.4657ZM126.13 41.032C126.318 41.3577 126.597 41.334 126.947 41.2156L132.38 39.1782C132.467 39.1485 132.545 39.1023 132.611 39.0426C132.676 38.9829 132.727 38.911 132.759 38.8319C132.792 38.7528 132.806 38.6683 132.799 38.584C132.793 38.4997 132.767 38.4175 132.724 38.3431L132.075 37.1586C131.855 36.7677 131.524 36.5959 130.96 36.898L126.143 39.6816C125.721 39.9007 125.644 40.114 125.812 40.4871L126.13 41.032ZM23.6258 39.7468L24.553 40.4219C24.7864 40.57 24.8901 40.6648 25.1235 40.4219C25.5514 39.9659 26.0183 39.3914 26.7509 39.3914C27.8142 39.3914 28.3458 40.5404 29.9926 40.5404C30.7341 40.4778 31.4478 40.2515 32.0723 39.8811C32.6969 39.5108 33.2136 39.0073 33.578 38.4142C33.7466 38.1477 33.6817 38.0825 33.4483 37.8989L32.5147 37.2296C32.4763 37.197 32.43 37.173 32.3796 37.1596C32.3292 37.1461 32.2761 37.1436 32.2245 37.1522C32.1729 37.1609 32.1242 37.1804 32.0822 37.2093C32.0403 37.2381 32.0064 37.2755 31.9831 37.3185C31.419 38.0174 30.9522 38.2898 30.427 38.2898C29.5193 38.2898 28.5922 37.1408 27.0945 37.1408C25.5968 37.1408 24.54 38.0529 23.7036 39.119C23.4897 39.3499 23.3211 39.5335 23.6258 39.7408V39.7468ZM66.968 42.9509C66.5077 43.0338 65.6713 43.2056 65.3471 43.2766C65.2264 43.2889 65.1132 43.3365 65.0244 43.4122C64.9356 43.488 64.876 43.5879 64.8544 43.6971L63.9726 47.9674C63.0154 47.3457 61.8989 46.9602 60.7309 46.848C59.9829 46.8633 59.249 47.0365 58.5866 47.354C57.9241 47.6715 57.351 48.1246 56.9121 48.6781C55.8047 49.9766 55.0994 51.523 54.8698 53.1556C54.7919 53.6817 54.7507 54.2119 54.7466 54.7428C54.6761 55.9005 55.0297 57.0466 55.7516 58.0003C56.0965 58.3958 56.5403 58.7099 57.0458 58.916C57.5513 59.1221 58.1035 59.2143 58.6562 59.1848C59.8967 59.1848 61.2517 58.3458 62.7213 56.6677C62.7213 57.1297 62.7797 58.2846 62.8056 58.486C62.8056 58.551 62.8197 58.6154 62.8472 58.6754C62.8746 58.7355 62.9148 58.7899 62.9655 58.8357C63.0161 58.8814 63.0762 58.9175 63.1423 58.9418C63.2083 58.9662 63.279 58.9783 63.3502 58.9775H64.9516C65.0327 58.9844 65.1145 58.9723 65.189 58.9424C65.2636 58.9124 65.3286 58.8656 65.3779 58.8063C65.4272 58.7471 65.4592 58.6773 65.4708 58.6037C65.4825 58.53 65.4734 58.4548 65.4444 58.3853C65.1879 56.5537 65.2514 54.6966 65.6324 52.8832C65.6324 52.8832 67.4543 43.4958 67.4737 43.3596C67.5321 43.1463 67.4348 42.8502 66.968 42.945V42.9509ZM63.2983 51.213C63.0441 52.6965 62.4617 54.1172 61.5867 55.3884C60.7892 56.49 59.9593 57.0527 59.0776 57.0527C58.8675 57.033 58.6652 56.9693 58.4864 56.8665C58.3076 56.7638 58.1572 56.6249 58.0467 56.4604C57.5806 55.845 57.3524 55.1051 57.3984 54.3579C57.4033 53.9712 57.438 53.5853 57.5021 53.203C57.6751 52.0144 58.2098 50.894 59.0452 49.9692C59.3218 49.6412 59.672 49.3712 60.0724 49.1771C60.4727 48.983 60.9139 48.8694 61.3663 48.8439C61.7445 48.8425 62.1193 48.9099 62.4688 49.0421C62.8183 49.1743 63.1356 49.3686 63.4021 49.6138C63.4829 49.6951 63.5289 49.8002 63.5317 49.91L63.2983 51.213ZM152.459 44.1887C150.866 43.0775 148.914 42.4817 146.909 42.4949C145.545 42.495 144.197 42.7718 142.964 43.3054C141.731 43.839 140.642 44.6161 139.778 45.5805C138.005 47.4985 137.06 49.9414 137.119 52.4508C137.037 54.1828 137.65 55.8826 138.844 57.2304C140.056 58.5274 142.643 59.3921 144.951 59.244C146.834 59.1469 148.655 58.6018 150.235 57.6627C150.369 57.6045 150.478 57.5084 150.547 57.3889C150.616 57.2694 150.641 57.1328 150.618 56.9994C150.618 56.8039 150.56 55.8149 150.521 55.1278C150.522 55.0409 150.495 54.9555 150.444 54.8823C150.393 54.8091 150.319 54.7512 150.232 54.7159C150.145 54.6806 150.049 54.6694 149.955 54.6836C149.861 54.6979 149.774 54.737 149.704 54.7961C148.429 55.736 146.876 56.3071 145.243 56.4367C144.6 56.4729 143.957 56.3762 143.361 56.1536C142.765 55.9311 142.231 55.5886 141.8 55.1515C141.034 54.2938 140.641 53.2075 140.698 52.1014C140.679 50.4143 141.329 48.7778 142.527 47.4936C143.091 46.8371 143.81 46.3058 144.631 45.9396C145.452 45.5734 146.353 45.3818 147.266 45.3792C148.634 45.3939 149.941 45.8954 150.91 46.7769C151.312 47.1145 151.779 47.0908 151.967 46.7473C152.253 46.1694 152.499 45.576 152.706 44.9705C152.754 44.8326 152.757 44.6845 152.713 44.5453C152.669 44.406 152.581 44.2819 152.459 44.1887ZM118.181 44.1887C116.587 43.0755 114.632 42.4794 112.625 42.4949C111.26 42.4929 109.911 42.7688 108.678 43.3026C107.444 43.8363 106.356 44.6145 105.493 45.5805C103.72 47.4985 102.775 49.9414 102.835 52.4508C102.752 54.1828 103.365 55.8826 104.559 57.2304C105.385 58.0295 106.434 58.6071 107.594 58.9005C106.801 59.4352 105.947 59.888 105.046 60.2509C104.971 60.2706 104.904 60.3085 104.851 60.3604C104.798 60.4124 104.762 60.4765 104.746 60.5458C104.73 60.6152 104.735 60.6872 104.76 60.7542C104.786 60.8212 104.83 60.8806 104.89 60.9261C105.394 61.3257 106.017 61.5792 106.679 61.6546C107.211 61.6864 107.742 61.5982 108.227 61.3979C108.713 61.1975 109.136 60.891 109.461 60.5056C109.857 60.1135 110.219 59.6937 110.544 59.25H110.706C112.586 59.1529 114.405 58.6077 115.983 57.6686C116.117 57.6105 116.227 57.5148 116.297 57.3954C116.367 57.276 116.393 57.1393 116.372 57.0053C116.372 56.8098 116.307 55.8208 116.268 55.1337C116.27 55.0468 116.243 54.9614 116.192 54.8882C116.14 54.815 116.067 54.7571 115.98 54.7218C115.893 54.6865 115.796 54.6753 115.702 54.6896C115.609 54.7038 115.521 54.7429 115.452 54.8021C114.179 55.7417 112.628 56.313 110.997 56.4427C110.354 56.4793 109.709 56.3828 109.112 56.1603C108.515 55.9378 107.98 55.595 107.548 55.1574C106.782 54.2997 106.389 53.2134 106.446 52.1073C106.431 50.4218 107.077 48.7873 108.268 47.4995C108.835 46.8431 109.557 46.312 110.379 45.9459C111.202 45.5799 112.105 45.3881 113.02 45.3851C114.387 45.4023 115.693 45.9034 116.664 46.7828C117.066 47.1204 117.526 47.0967 117.714 46.7532C118.002 46.1752 118.251 45.5819 118.46 44.9764C118.506 44.8348 118.503 44.6838 118.454 44.5433C118.404 44.4028 118.309 44.2792 118.181 44.1887ZM77.776 47.7008C76.8268 47.0993 75.6884 46.7978 74.5342 46.8421C73.5512 46.8333 72.5796 47.0356 71.6978 47.4327C70.816 47.8298 70.0487 48.4106 69.4577 49.1282C68.202 50.5273 67.531 52.2883 67.5645 54.0973C67.5027 55.3824 67.9518 56.6445 68.8288 57.6509C69.3226 58.1718 69.9405 58.5825 70.635 58.8515C71.3296 59.1205 72.0823 59.2406 72.8355 59.2026C74.4797 59.1694 76.0757 58.6889 77.4194 57.8226C77.6852 57.6509 77.7695 57.5443 77.7436 57.2718C77.7436 57.2718 77.6852 56.6144 77.6074 56.1228C77.5985 56.0658 77.5729 56.0121 77.5333 55.9673C77.4937 55.9225 77.4416 55.8883 77.3825 55.8683C77.3235 55.8483 77.2595 55.8432 77.1976 55.8536C77.1356 55.864 77.0778 55.8895 77.0304 55.9274C76.0016 56.669 74.7523 57.1106 73.445 57.1948C72.6573 57.2177 71.8875 56.9777 71.2795 56.5196C70.6677 56.0143 70.2956 55.3111 70.2422 54.5592C73.9831 54.5237 76.5571 53.8367 77.9705 52.5337C79.2477 51.3137 79.319 48.7965 77.776 47.7008ZM70.3589 52.6877C70.5358 51.6351 71.0347 50.6496 71.7982 49.8448C72.0986 49.5188 72.4725 49.2559 72.8943 49.0739C73.3162 48.892 73.776 48.7953 74.2425 48.7906C74.8652 48.7471 75.4818 48.9278 75.9606 49.294C76.1016 49.4191 76.213 49.5694 76.2877 49.7355C76.3624 49.9016 76.3989 50.0799 76.395 50.2594C76.3431 51.7993 74.3073 52.6048 70.3589 52.6877ZM134.545 42.9746C134.001 43.0812 132.95 43.3299 132.484 43.4425C132.017 43.555 131.835 43.7268 131.803 44.0347C130.227 52.1961 128.036 56.413 125.19 56.413C123.932 56.413 123.297 55.5602 123.297 53.8367C123.299 53.3129 123.346 52.79 123.439 52.2731C123.439 52.2731 125.041 43.8334 125.06 43.6438C125.097 43.5353 125.099 43.4193 125.065 43.3098C125.032 43.2003 124.965 43.1019 124.872 43.0263C124.779 42.9508 124.664 42.9012 124.541 42.8837C124.418 42.8661 124.292 42.8812 124.178 42.9272C123.712 43.0279 122.402 43.3299 122.058 43.4188C121.54 43.5668 121.488 43.7504 121.41 44.011C121.332 44.2716 119.854 52.3027 119.854 52.3027C119.745 52.9357 119.687 53.5751 119.679 54.2157C119.592 55.5409 119.999 56.8539 120.833 57.9411C121.222 58.3897 121.722 58.7468 122.293 58.9827C122.864 59.2187 123.488 59.3265 124.113 59.2974C126.798 59.2974 128.924 58.1484 130.48 55.8682C130.501 56.7246 130.579 57.579 130.714 58.4267C130.759 58.6932 130.908 59.019 131.362 59.019H133.43C133.535 59.0178 133.638 58.9934 133.73 58.9481C133.822 58.9028 133.9 58.8378 133.959 58.7586C134.018 58.6795 134.054 58.5886 134.066 58.4937C134.078 58.3988 134.064 58.3026 134.027 58.2135C133.833 57.3566 133.746 56.4824 133.767 55.6076C133.824 53.2257 134.066 50.8506 134.494 48.5004C134.785 46.9191 135.084 45.32 135.375 43.7268C135.412 43.6238 135.418 43.5134 135.391 43.4078C135.364 43.3021 135.306 43.2052 135.223 43.1276C135.141 43.05 135.036 42.9947 134.921 42.9677C134.806 42.9407 134.685 42.9431 134.571 42.9746H134.545ZM45.7216 42.4593C44.3695 42.4548 43.0354 42.7427 41.8285 43.2997C40.6216 43.8566 39.5761 44.6666 38.7778 45.6635C37.0649 47.5991 36.1474 50.0213 36.1844 52.51C36.1114 54.2118 36.6814 55.8848 37.7988 57.2481C38.4349 57.9263 39.234 58.461 40.1338 58.8103C41.0336 59.1596 42.0096 59.3142 42.9856 59.2618C44.3265 59.2698 45.6501 58.9854 46.8465 58.4322C48.0429 57.8791 49.0776 57.0731 49.8645 56.0814C51.518 54.1402 52.3963 51.7415 52.3542 49.2822C52.438 47.5791 51.8669 45.9029 50.7398 44.5441C50.145 43.8572 49.3795 43.3097 48.5068 42.9471C47.634 42.5846 46.6792 42.4173 45.7216 42.4593ZM48.6781 50.7865C48.4242 52.3196 47.703 53.7564 46.5969 54.9324C45.5076 56.0695 44.373 56.6381 43.1801 56.6381C42.7026 56.6324 42.2342 56.5178 41.8175 56.3048C41.4008 56.0917 41.0491 55.7869 40.7941 55.418C40.1036 54.4831 39.7604 53.3702 39.8151 52.2435C39.8161 51.8097 39.8486 51.3764 39.9124 50.9464C40.1344 49.4083 40.8521 47.9652 41.9741 46.8006C43.0763 45.6635 44.2109 45.1008 45.378 45.1008C45.8608 45.1031 46.3353 45.2154 46.7587 45.4274C47.1821 45.6394 47.5409 45.9444 47.8028 46.315C48.496 47.2398 48.8398 48.3461 48.7818 49.4658C48.7811 49.9077 48.7465 50.3491 48.6781 50.7865ZM168.409 42.9272H166.464C166.279 42.9201 166.098 42.9772 165.957 43.0871C165.816 43.197 165.726 43.3515 165.705 43.5195C165.705 43.709 165.627 44.0051 165.627 44.0051C163.751 42.9785 162.286 42.4652 161.231 42.4652C160.227 42.4792 159.239 42.7064 158.347 43.1288C157.454 43.5513 156.682 44.1574 156.09 44.8994C154.563 46.6826 153.581 48.804 153.244 51.0471C153.136 51.7754 153.079 52.5094 153.075 53.2444C152.976 54.8156 153.463 56.3712 154.456 57.6568C154.923 58.197 155.526 58.6264 156.213 58.9089C156.901 59.1913 157.652 59.3185 158.405 59.2796C159.502 59.2187 160.558 58.8759 161.452 58.2905C162.547 57.6343 163.508 56.8086 164.292 55.8504C164.292 56.3361 164.415 57.8878 164.512 58.4386C164.524 58.5884 164.597 58.7286 164.717 58.8308C164.838 58.9331 164.996 58.9897 165.16 58.9894H167.248C167.343 58.9855 167.436 58.9626 167.52 58.9224C167.604 58.8822 167.677 58.8257 167.734 58.7568C167.792 58.6879 167.832 58.6083 167.852 58.5236C167.873 58.439 167.872 58.3513 167.851 58.2668C167.428 55.817 167.443 53.3207 167.897 50.8754C167.897 50.8754 169.057 44.0229 169.109 43.7327C169.133 43.6364 169.134 43.5363 169.11 43.4399C169.086 43.3435 169.039 43.2532 168.971 43.1758C168.904 43.0984 168.819 43.0358 168.721 42.9928C168.624 42.9498 168.517 42.9273 168.409 42.9272ZM165.044 46.6229C165.011 46.771 164.707 48.4293 164.707 48.4293C164.356 50.4479 163.564 52.3814 162.379 54.115C161.29 55.6253 160.142 56.3775 158.956 56.3775C158.671 56.3524 158.396 56.2691 158.152 56.1338C157.907 55.9984 157.699 55.8145 157.542 55.5957C156.926 54.752 156.628 53.7476 156.693 52.7351C156.693 52.2116 156.736 51.6889 156.823 51.1715C157.061 49.5439 157.788 48.0084 158.923 46.7355C159.299 46.2867 159.776 45.9173 160.322 45.6526C160.868 45.3878 161.47 45.2339 162.087 45.2015C163.119 45.1968 164.111 45.5626 164.849 46.2202C164.92 46.2636 164.977 46.3243 165.012 46.3954C165.048 46.4666 165.061 46.5454 165.05 46.6229H165.044Z" fill="white"/>
<path d="M390.702 35.3818C392.232 33.2259 396.582 30.4008 400.297 30.4956C405.406 30.62 408.901 34.3157 411.215 37.7686C413.53 41.2215 410.457 47.8785 405.905 50.52C401.354 53.1615 388.698 51.5683 388.29 44.4316C388.046 41.2594 388.889 38.0965 390.702 35.3818Z" fill="#FDB740"/>
<path d="M399.83 43.5254C399.83 43.5254 399.111 42.4297 398.748 41.8375H398.787C398.89 41.8908 401.38 43.0694 402.223 42.9864C402.457 42.9774 402.686 42.9219 402.894 42.8236C403.102 42.7253 403.284 42.5867 403.427 42.4175C403.57 42.2482 403.671 42.0525 403.723 41.8439C403.775 41.6352 403.776 41.4188 403.727 41.2097C403.449 40.5675 403.064 39.9682 402.586 39.4329C402.372 39.1486 402.184 38.9058 402.074 38.7399C402.579 39.0005 403.481 39.5336 403.889 39.7823C404.144 39.9739 404.444 40.1107 404.765 40.1825C405.085 40.2542 405.42 40.2591 405.743 40.1969C406.269 40.0637 406.717 39.7495 406.995 39.3203C407.136 39.0493 407.209 38.7529 407.209 38.4527C407.209 38.1525 407.136 37.8561 406.995 37.585C406.612 36.8506 405.782 34.9317 405.452 34.6237C405.297 34.4555 405.082 34.3425 404.844 34.3046C404.607 34.2667 404.363 34.3063 404.155 34.4164C403.507 34.7836 404.019 35.7608 404.045 35.7904C404.651 36.6944 405.182 37.6388 405.633 38.6155C405.633 38.7458 405.633 38.9887 405.367 38.9117C404.92 38.6898 404.487 38.4446 404.071 38.1773C403.03 37.5427 401.885 37.063 400.68 36.7558C400.527 36.7105 400.362 36.7147 400.212 36.7675C400.062 36.8204 399.936 36.9187 399.856 37.0461C399.771 37.1511 399.718 37.275 399.702 37.405C399.686 37.5351 399.708 37.6667 399.766 37.7864C399.879 37.9911 400.007 38.1889 400.148 38.3786C401.743 40.5996 402.093 41.0675 402.177 41.1563C402.417 41.5354 401.944 41.5709 401.685 41.4466C401.542 41.3814 398.281 40.0962 397.678 39.9185C397.532 39.8647 397.371 39.8524 397.218 39.883C397.081 39.9165 396.957 39.9807 396.855 40.0697C396.753 40.1587 396.677 40.2696 396.634 40.3923C396.581 40.4834 396.553 40.5852 396.553 40.6885C396.553 40.7918 396.581 40.8935 396.634 40.9846C397.218 41.9263 398.579 44.3072 398.637 44.4612C398.685 44.514 398.711 44.5803 398.712 44.6489C398.712 44.7174 398.686 44.7839 398.639 44.8369C398.591 44.89 398.525 44.9265 398.452 44.94C398.378 44.9536 398.302 44.9434 398.235 44.9113C398.151 44.8698 396.29 43.7268 395.927 43.5846C395.564 43.4425 395.162 43.2944 394.799 43.6557C394.436 44.017 393.911 44.7159 393.502 45.2074L393.243 45.4976C392.057 46.7769 392.005 47.0849 392.147 47.2211C392.29 47.3573 392.394 47.4462 395.253 45.1541C395.564 44.9054 395.564 44.9054 395.947 45.083C396.122 45.16 396.349 45.2844 396.595 45.4088C397.194 45.7914 397.868 46.0667 398.579 46.2202C398.793 46.2435 399.01 46.2272 399.218 46.1723C399.425 46.1173 399.618 46.0249 399.785 45.9004C399.927 45.7766 400.04 45.6276 400.117 45.4627C400.194 45.2977 400.233 45.1202 400.232 44.9409C400.23 44.4342 400.084 43.9366 399.811 43.4958" fill="#6C3B5D"/>
<path d="M311.318 57.5501C311.358 56.0284 311.51 54.5108 311.772 53.0075H311.694C309.749 56.5907 307.285 57.9055 304.659 57.9055C301.722 57.9055 300.004 55.726 300.004 53.0075C300.004 47.5409 304.627 41.8433 311.35 41.8433C312.662 41.8474 313.969 41.9986 315.24 42.2934L313.555 50.289C313.035 52.6797 312.788 55.113 312.816 57.5501H311.318ZM313.457 43.3832C312.679 43.1476 311.858 43.0491 311.039 43.093C305.963 43.093 301.657 47.5705 301.625 52.7528C301.625 54.6066 302.273 56.6558 305.016 56.6558C308.031 56.6558 311.461 52.9779 312.368 48.6899L313.457 43.3832Z" fill="white"/>
<path d="M334.438 34.8428L330.548 53.3628C330.254 54.7476 330.037 56.1452 329.9 57.5501H328.46L329.024 54.1624H328.953C327.377 56.4308 325.244 57.9055 322.541 57.9055C319.079 57.9055 317.646 55.2166 317.646 52.433C317.646 46.9012 322.23 41.8433 327.935 41.8433C329.101 41.8195 330.258 42.0214 331.332 42.4356L332.876 34.825L334.438 34.8428ZM331.008 43.8274C330.025 43.3077 328.901 43.0531 327.766 43.093C323.079 43.093 319.26 47.5409 319.26 52.3027C319.26 54.192 319.857 56.6558 322.975 56.6558C325.705 56.6558 328.959 53.7774 329.731 49.9692L331.008 43.8274Z" fill="white"/>
<path d="M346.212 56.6559C344.686 57.5078 342.924 57.9415 341.135 57.9055C336.863 57.9055 335.3 54.9442 335.3 51.8882C335.3 47.3159 339.08 41.8197 344.085 41.8197C347.133 41.8197 348.423 43.5491 348.423 45.3377C348.423 49.4836 342.964 50.3009 337.051 50.2002C336.823 51.4604 336.905 52.7512 337.291 53.9789C337.548 54.7692 338.089 55.4575 338.826 55.9333C339.564 56.4091 340.454 56.6448 341.356 56.6026C342.909 56.6119 344.435 56.2352 345.771 55.5128L346.212 56.6559ZM346.802 45.4029C346.802 43.8689 345.505 43.0694 343.794 43.0694C340.746 43.0694 338.231 45.9774 337.31 48.992C342.283 49.0571 346.834 48.4471 346.834 45.4384L346.802 45.4029Z" fill="white"/>
<path d="M349.681 61.9033C351.023 62.6721 352.583 63.0615 354.167 63.0227C357.247 63.0227 359.697 61.5184 360.884 56.6559L361.591 53.6946H361.519C359.944 56.3183 357.558 57.5976 355.003 57.5976C351.606 57.5976 350.07 54.9087 350.07 52.3798C350.07 47.0494 354.375 41.8256 360.365 41.8256C362.05 41.8606 363.707 42.222 365.228 42.8858L362.635 55.6135C361.895 59.1315 360.916 61.2104 359.341 62.5252C357.798 63.6873 355.841 64.2903 353.843 64.2191C352.164 64.2795 350.503 63.8771 349.078 63.0642L349.681 61.9033ZM363.477 43.7742C362.401 43.3254 361.231 43.097 360.048 43.1049C355.075 43.1049 351.71 47.7423 351.677 52.0955C351.677 53.8722 352.274 56.3775 355.496 56.3775C358.543 56.3775 361.591 52.7943 362.252 49.5369L363.477 43.7742Z" fill="white"/>
<path d="M378.999 57.5501C379.033 56.028 379.184 54.51 379.453 53.0075H379.382C377.437 56.5907 374.966 57.9055 372.347 57.9055C369.404 57.9055 367.692 55.726 367.692 53.0075C367.692 47.5409 372.308 41.8433 379.032 41.8433C380.344 41.847 381.65 41.9982 382.922 42.2934L381.242 50.289C380.717 52.6788 380.469 55.1127 380.503 57.5501H378.999ZM381.132 43.3832C380.353 43.1476 379.533 43.0491 378.714 43.093C373.644 43.093 369.332 47.5705 369.3 52.7528C369.3 54.6066 369.948 56.6558 372.697 56.6558C375.706 56.6558 379.135 52.9779 380.049 48.6899L381.132 43.3832Z" fill="white"/>
<path d="M193.493 42.3882C193.72 22.737 208.691 0 225.262 0C240.291 0 248.162 20.0363 248.162 33.066C248.162 52.2494 233.898 57.0112 230.222 57.0112C225.47 57.0112 223.026 51.2899 230.177 39.5098C236.66 28.8491 246.068 22.506 255.236 22.506C269.272 22.506 279.166 39.9481 279.458 51.4795C279.594 57.1178 276.002 58.8768 271.762 58.6814C266.497 58.4504 257.317 56.0281 238.884 56.6085C226.228 57.0053 218.299 59.0723 208.814 59.0723C200.379 59.0723 193.331 56.6618 193.493 42.3882Z" fill="white"/>
<path d="M228.355 45.5509C230.374 40.9062 233.223 36.5994 236.784 32.8055C241.705 27.5521 245.958 25.8641 245.958 25.8641C245.958 25.8641 248.817 37.5199 243.877 46.4689C241.893 50.0581 237.225 55.6786 230.067 56.1288C226.345 56.336 226.041 51.1182 228.355 45.5509Z" fill="#4A8B2C"/>
<path d="M278.168 51.0294C277.805 40.1021 268.442 23.5484 254.432 23.732C251.984 23.8015 249.578 24.3318 247.365 25.2896C247.875 27.8558 248.14 30.4578 248.156 33.066C248.156 46.9131 240.739 53.2444 235.228 55.6964C246.036 54.84 256.92 55.274 267.606 56.9875C276.599 58.4326 278.317 55.4299 278.168 51.0294Z" fill="#80BC00"/>
<path d="M230.179 39.3147C234.425 32.403 239.928 27.3156 245.791 24.5853C245.235 21.8971 244.415 19.2591 243.341 16.7024C240.432 9.77296 234.248 1.09641 224.532 1.18525C217.836 1.24447 211.239 5.53832 205.487 12.5092C198.936 20.475 194.776 32.0536 194.52 41.3994C194.16 54.6422 200.226 57.5443 209.818 57.6746C213.436 57.6266 217.048 57.3794 220.634 56.9343C222.796 56.7388 225.298 56.4486 227.781 56.188C224.833 54.4113 224.329 48.85 230.179 39.3147Z" fill="#1A5632"/>
</g>
<defs>
<clipPath id="clip0_198_22">
<rect width="412" height="64.2368" fill="white"/>
</clipPath>
</defs>
</svg>
