<svg width="64" height="64" viewBox="0 0 64 64" fill="none" xmlns="http://www.w3.org/2000/svg">
<mask id="mask0_315_3552" style="mask-type:alpha" maskUnits="userSpaceOnUse" x="0" y="0" width="64" height="64">
<rect width="64" height="64" rx="5" fill="#C4C4C4"/>
</mask>
<g mask="url(#mask0_315_3552)">
<path d="M31.5658 -9.125C12.8538 -9.125 -3.00147 2.95 -8.85791 19.625H71.9896C66.1332 2.95 50.2779 -9.125 31.5658 -9.125Z" fill="#3E4347"/>
<path d="M31.5658 77.125C50.2779 77.125 66.1332 65.1938 71.9896 48.375H-8.85791C-3.00147 65.1938 12.8538 77.125 31.5658 77.125Z" fill="#FFE62E"/>
<path d="M-8.85785 19.625C-10.4291 24.0812 -11.2861 28.9688 -11.2861 34C-11.2861 39.0312 -10.4291 43.9188 -8.85785 48.375H71.9897C73.5609 43.9188 74.418 39.0312 74.418 34C74.418 28.9688 73.5609 24.0812 71.9897 19.625H-8.85785Z" fill="#ED4C5C"/>
</g>
<rect x="1.5" y="1.5" width="61" height="61" rx="3.5" stroke="white" stroke-opacity="0.3" stroke-width="3"/>
</svg>
