<svg width="64" height="64" viewBox="0 0 64 64" fill="none" xmlns="http://www.w3.org/2000/svg">
<mask id="mask0_315_3574" style="mask-type:alpha" maskUnits="userSpaceOnUse" x="0" y="0" width="64" height="64">
<rect width="64" height="64" rx="5" fill="#C4C4C4"/>
</mask>
<g mask="url(#mask0_315_3574)">
<path d="M33.709 -11.125V3.25H5.14095V32H-9.14307C-9.14307 55.8625 9.99752 75.125 33.709 75.125C57.4205 75.125 76.5611 55.8625 76.5611 32C76.5611 8.1375 57.4205 -11.125 33.709 -11.125Z" fill="#2A5F9E"/>
<path d="M33.709 -11.125C26.9955 -11.125 20.7105 -9.54375 14.9969 -6.8125V1.8125H3.71255V13.1687H-4.85786C-7.57182 18.9187 -9.14307 25.2438 -9.14307 32H7.99776V10.4375L25.1386 32H33.709V21.2188L21.7104 6.125H33.709V-11.125Z" fill="white"/>
<path d="M9.99756 6.125L30.8522 32H33.709V24.9563L18.568 6.125H9.99756Z" fill="#ED4C5C"/>
<path d="M33.7089 -6.8125H14.9969C6.42646 -2.64375 -0.715546 4.54375 -4.85791 13.1687V32H3.7125V1.8125H33.7089V-6.8125Z" fill="#ED4C5C"/>
<path d="M-0.572833 37.3188L2.56965 33.4375L1.56977 38.4688L6.56918 38.6125L2.14113 40.9125L5.14078 44.9375L0.712729 42.925L-0.572833 47.8125L-1.8584 42.925L-6.28644 44.9375L-3.2868 40.9125L-7.71484 38.6125L-2.71544 38.4688L-3.71532 33.4375L-0.572833 37.3188Z" fill="white"/>
<path d="M62.2771 15.0375L64.8482 11.875L63.9912 15.9L67.9907 16.0437L64.4197 17.9125L66.848 21.075L63.277 19.35L62.2771 23.375L61.2772 19.35L57.7062 21.075L60.1345 17.9125L56.5635 16.0437L60.563 15.9L59.706 11.875L62.2771 15.0375Z" fill="white"/>
<path d="M62.2771 43.7875L64.8482 40.625L63.9912 44.65L67.9907 44.7938L64.4197 46.6625L66.848 49.825L63.277 48.1L62.2771 52.125L61.2772 48.1L57.7062 49.825L60.1345 46.6625L56.5635 44.7938L60.563 44.65L59.706 40.625L62.2771 43.7875Z" fill="white"/>
<path d="M47.9929 23.6625L50.564 20.5L49.707 24.525L53.7065 24.6687L50.1355 26.5375L52.5638 29.7L48.9928 27.975L47.9929 32L46.993 27.975L43.422 29.7L45.8503 26.5375L42.2793 24.6687L46.2788 24.525L45.4218 20.5L47.9929 23.6625Z" fill="white"/>
</g>
<rect x="1.5" y="1.5" width="61" height="61" rx="3.5" stroke="white" stroke-opacity="0.3" stroke-width="3"/>
</svg>
