<svg width="64" height="64" viewBox="0 0 64 64" fill="none" xmlns="http://www.w3.org/2000/svg">
<mask id="mask0_315_3630" style="mask-type:alpha" maskUnits="userSpaceOnUse" x="0" y="0" width="64" height="64">
<rect width="64" height="64" rx="5" fill="#C4C4C4"/>
</mask>
<g mask="url(#mask0_315_3630)">
<g clip-path="url(#clip0_315_3630)">
<path d="M-16 32.5C-16 40.4281 -13.2755 47.8187 -8.62771 54H72.6277C77.2755 47.8187 80 40.4281 80 32.5C80 24.5719 77.2755 17.1813 72.6277 11H-8.62771C-13.2755 17.1813 -16 24.5719 -16 32.5Z" fill="#FFCE31"/>
<path d="M73.9454 10.75C66.7484 -0.66875 53.9838 -8.28125 39.4539 -8.28125C24.924 -8.28125 -13.303 -0.66875 -20.5 10.75H73.9454Z" fill="#ED4C5C"/>
<path d="M-16 54.25C-8.80296 65.6687 24.924 73.2812 39.4539 73.2812C53.9838 73.2812 66.7484 65.6687 73.9454 54.25H-16Z" fill="#ED4C5C"/>
<path d="M8.49316 28.0141H12.8386V30.4609H8.49316V28.0141Z" fill="#C8B100"/>
<path d="M8.49316 45.9578H12.9743V48.2687H8.49316V45.9578Z" fill="#C8B100"/>
<path d="M8.0857 42.1516C7.67832 42.4234 7.40674 42.6953 7.40674 42.8312C7.40674 42.9672 7.54253 43.1031 7.81412 43.2391C8.0857 43.375 8.35729 43.6469 8.2215 43.9188C8.49308 43.6469 8.62888 43.375 8.62888 43.1031C8.62888 42.6953 8.35729 42.2875 8.0857 42.1516Z" fill="#ED4C5C"/>
<path d="M9.17188 30.4609H12.2951V45.9578H9.17188V30.4609Z" fill="white"/>
<path d="M15.5542 36.1703C14.8752 35.8984 13.653 35.6266 12.2951 35.6266C11.8877 35.6266 11.3446 35.6266 10.8014 35.7625C8.90028 36.0344 7.40656 36.85 7.54235 37.3937L6.86338 35.8984C6.72759 35.2188 8.35711 34.4031 10.394 33.9953C11.073 33.8594 11.7519 33.8594 12.2951 33.8594C13.653 33.8594 14.8752 33.9953 15.5542 34.2672V36.1703Z" fill="#ED4C5C"/>
<path d="M9.17244 38.2094C8.35768 38.2094 7.67871 37.9375 7.67871 37.5297C7.67871 37.2578 7.9503 36.85 8.49347 36.5781H9.30823L9.17244 38.2094Z" fill="#ED4C5C"/>
<path d="M12.2949 36.9859C12.8381 37.1219 13.2455 37.2578 13.5171 37.3937C13.6529 37.5297 13.1097 38.0734 12.2949 38.4813V36.9859Z" fill="#ED4C5C"/>
<path d="M7.13501 41.2C6.99921 40.9281 7.94977 40.3844 9.17191 39.9766C9.71508 39.8406 10.1225 39.5688 10.8014 39.2969C12.4309 38.6172 13.7889 37.6656 13.5173 37.3937L13.7889 39.025C13.9247 39.2969 12.8383 40.1125 11.2088 40.9281C10.6656 41.2 9.71508 41.6078 9.17191 41.7437C8.22135 42.0156 7.40659 42.5594 7.40659 42.6953L7.13501 41.2Z" fill="#ED4C5C"/>
<path d="M37.6885 28.0141H42.0339V30.4609H37.6885V28.0141Z" fill="#C8B100"/>
<path d="M37.5527 45.9578H42.0339V48.2687H37.5527V45.9578Z" fill="#C8B100"/>
<path d="M42.4411 42.1516C42.8485 42.4234 43.1201 42.6953 43.1201 42.8312C43.1201 42.9672 42.9843 43.1031 42.7127 43.2391C42.4411 43.5109 42.1695 43.9188 42.3053 44.0547C42.0337 43.7828 41.8979 43.5109 41.8979 43.2391C41.8979 42.6953 42.1695 42.2875 42.4411 42.1516Z" fill="#ED4C5C"/>
<path d="M38.2314 30.4609H41.3547V45.9578H38.2314V30.4609Z" fill="white"/>
<path d="M34.9727 36.1703C35.6516 35.8984 36.8738 35.6266 38.2317 35.6266C38.6391 35.6266 39.1822 35.6266 39.7254 35.7625C41.6265 36.0344 43.1202 36.85 42.9845 37.3937L43.6634 35.7625C43.7992 35.0828 42.1697 34.2672 40.1328 33.8594H38.2317C36.8738 33.8594 35.6516 33.9953 34.9727 34.2672V36.1703Z" fill="#ED4C5C"/>
<path d="M41.355 38.2094C42.1698 38.2094 42.8488 37.9375 42.8488 37.5297C42.8488 37.2578 42.5772 36.85 42.034 36.5781H41.2192L41.355 38.2094Z" fill="#ED4C5C"/>
<path d="M38.2317 36.9859C37.6885 37.1219 37.2812 37.2578 37.0096 37.3937C36.8738 37.5297 37.4169 38.0734 38.2317 38.4812V36.9859Z" fill="#ED4C5C"/>
<path d="M43.3919 41.2C43.5277 40.9281 42.5771 40.3844 41.355 39.9766C40.8118 39.8406 40.4044 39.5688 39.7255 39.2969C38.0959 38.6172 36.738 37.6656 37.0096 37.3938L36.738 39.025C36.6022 39.2969 37.6886 40.1125 39.3181 40.9281C39.8613 41.2 40.8118 41.6078 41.355 41.7438C42.3055 42.0156 43.1203 42.6953 42.9845 42.8313L43.3919 41.2Z" fill="#ED4C5C"/>
<path d="M25.1956 19.3141C27.7757 19.3141 33.0716 19.8578 34.9727 21.7609C32.9358 26.6547 29.6768 24.6156 25.1956 24.6156C20.8502 24.6156 17.4554 26.6547 15.4185 21.7609C17.3196 19.8578 22.4797 19.3141 25.1956 19.3141Z" fill="#ED4C5C"/>
<path d="M31.8493 24.7516C30.2197 23.8 27.7755 23.6641 25.1954 23.6641C22.6153 23.6641 20.171 23.9359 18.5415 24.7516L19.0847 27.0625C20.5784 27.4703 22.7511 27.7422 25.1954 27.8781C27.6397 27.8781 29.6766 27.6063 31.3061 27.0625L31.8493 24.7516Z" fill="#C8B100"/>
<path d="M34.1579 18.9063C33.6147 18.4984 32.5284 18.0906 31.5778 18.0906C31.1704 18.0906 30.7631 18.0906 30.3557 18.2266C30.3557 18.2266 29.5409 17.1391 27.6398 17.1391C26.9608 17.1391 26.4177 17.275 25.8745 17.5469V17.4109C25.7387 17.1391 25.4671 16.8672 25.1955 16.8672C24.9239 16.8672 24.5166 17.275 24.5166 17.5469V17.6828C23.9734 17.4109 23.4302 17.275 22.7512 17.275C20.8501 17.275 20.0354 18.4984 20.0354 18.3625C19.628 18.2266 19.2206 18.2266 18.8132 18.2266C12.5667 18.2266 15.69 22.4406 15.69 22.4406L16.369 21.625C14.8752 19.7219 16.2332 18.6344 18.949 18.6344C19.3564 18.6344 19.628 18.6344 19.8996 18.7703C18.949 20.1297 20.7143 21.3531 20.7143 21.3531L21.1217 20.6734C20.1712 19.9938 20.0354 17.6828 22.7512 17.6828C23.4302 17.6828 23.9734 17.8188 24.5166 18.2266C24.5166 18.3625 24.3808 20.2656 24.245 20.5375L25.3313 21.4891L26.4177 20.5375C26.2819 20.1297 26.1461 18.3625 26.1461 18.2266C26.5535 17.9547 27.2324 17.6828 27.9114 17.6828C30.7631 17.6828 30.7631 19.9938 29.5409 20.6734L29.9483 21.3531C29.9483 21.3531 31.442 20.1297 30.7631 18.7703C31.0346 18.7703 31.442 18.6344 31.7136 18.6344C34.9726 18.6344 35.1084 21.0813 34.2937 21.625L34.8369 22.4406C34.5653 22.4406 36.059 20.5375 34.1579 18.9063Z" fill="#C8B100"/>
<path d="M24.3809 16.3234C24.3809 15.9156 24.7882 15.5078 25.1956 15.5078C25.603 15.5078 26.0104 15.9156 26.0104 16.3234C26.0104 16.7313 25.603 17.1391 25.1956 17.1391C24.7882 17.1391 24.3809 16.7313 24.3809 16.3234Z" fill="#005BBF"/>
<path d="M24.924 14.0125V14.4203H24.5167V14.8281H24.924V16.1875H24.3809V16.5953H26.0104L26.1462 16.3234L26.0104 16.1875H25.4672V14.8281H25.8746V14.4203H25.4672V14.0125H24.924Z" fill="#C8B100"/>
<path d="M25.1955 27.4703C23.0228 27.4703 21.1217 27.1984 19.6279 26.7906C21.1217 26.3828 23.0228 26.1109 25.1955 26.1109C27.3682 26.1109 29.2693 26.3828 30.763 26.7906C29.4051 27.1984 27.3682 27.4703 25.1955 27.4703Z" fill="#ED4C5C"/>
<path d="M25.3313 50.9875C22.7512 50.9875 20.307 50.3078 18.1343 49.3563C16.5048 48.5406 15.5542 47.0453 15.5542 45.2781V38.7531H35.1084V45.2781C35.1084 47.0453 34.0221 48.6766 32.5284 49.3563C30.3557 50.4438 27.9114 50.9875 25.3313 50.9875Z" fill="white"/>
<path d="M25.1953 27.8781H34.9724V38.7531H25.1953V27.8781Z" fill="white"/>
<path d="M25.3313 45.2781C25.3313 47.8609 23.1586 49.9 20.4428 49.9C17.7269 49.9 15.5542 47.8609 15.5542 45.2781V38.7531H25.3313V45.2781Z" fill="#ED4C5C"/>
<path d="M17.5908 49.0844C17.8624 49.2203 18.2698 49.4922 18.813 49.6281V38.4813H17.7266L17.5908 49.0844Z" fill="#C8B100"/>
<path d="M15.4185 45.1422C15.4185 46.5016 15.9616 47.5891 16.5048 48.1328V38.4813H15.4185V45.1422Z" fill="#C8B100"/>
<path d="M19.7637 49.9H20.85V38.4813H19.7637V49.9Z" fill="#C7B500"/>
<path d="M21.9365 49.6281C22.3439 49.4922 22.8871 49.2203 23.1587 49.0844V38.4813H22.0723L21.9365 49.6281Z" fill="#C8B100"/>
<path d="M15.4185 27.8781H25.1956V38.7531H15.4185V27.8781Z" fill="#ED4C5C"/>
<path d="M24.2451 48.1328C24.7883 47.725 25.1957 46.7734 25.3315 45.6859V38.6172H24.2451V48.1328Z" fill="#C8B100"/>
<path d="M35.1091 38.7531V45.2781C35.1091 47.8609 32.9364 49.9 30.2206 49.9C27.5047 49.9 25.332 47.8609 25.332 45.2781V38.7531H35.1091Z" fill="#ED4C5C"/>
<path d="M31.5781 29.7812C31.9855 30.5969 31.9855 32.6359 30.7633 32.2281C31.0349 32.3641 31.1707 33.3156 31.5781 33.8594C32.2571 34.675 33.0718 33.9953 32.936 33.0438C32.6644 31.5484 32.8002 30.5969 33.0718 29.1016C33.0718 29.2375 33.7508 29.2375 34.0224 28.9656C33.8866 29.3734 33.7508 29.9172 34.0224 29.9172C33.7508 30.325 33.0718 31.0047 32.936 31.4125C32.8002 32.3641 34.294 34.1312 32.6644 34.5391C31.5781 34.8109 32.2571 35.6266 32.6644 36.0344C32.6644 36.0344 32.1213 37.8016 32.3929 37.6656C31.3065 38.0734 31.5781 37.1219 31.5781 37.1219C32.1213 35.4906 30.6275 35.3547 30.7633 35.0828C29.4054 34.9469 30.8991 36.3063 29.677 36.3063C29.4054 36.3063 28.8622 36.5781 28.8622 36.5781C27.3685 36.4422 28.1833 35.0828 28.7264 35.2188C29.1338 35.3547 29.5412 36.0344 29.5412 35.0828C29.5412 35.0828 28.8622 33.9953 30.6275 33.9953C29.9486 33.9953 29.5412 33.4516 29.2696 32.7719C28.998 32.9078 28.5906 33.5875 27.0969 33.7234C27.0969 33.7234 26.6895 32.2281 27.0969 32.5C27.6401 32.7719 27.9117 32.7719 28.4549 32.2281C28.1833 31.8203 26.5537 31.2766 26.8253 30.325C26.8253 30.0531 27.6401 29.6453 27.6401 29.6453C27.5043 30.325 27.9117 31.0047 28.7264 31.0047C29.8128 31.1406 29.4054 30.7328 29.5412 30.4609C29.677 30.1891 30.4918 30.5969 30.2202 29.9172C30.2202 29.7812 29.2696 29.6453 29.5412 29.2375C30.0844 28.5578 30.8991 29.1016 31.5781 29.7812Z" fill="#ED4C5C"/>
<path d="M25.3319 49.6281L25.0601 48.9484L25.3319 48.1328L25.6038 48.9484L25.3319 49.6281Z" fill="#ED4C5C"/>
<path d="M18.4061 30.1891V30.8687H18.6777V31.4125H17.9987V32.7719H18.4061V35.7625H17.5913V37.2578H23.1588V35.7625H22.4799V32.7719H22.7515V31.4125H22.0725V30.8687H22.4799V30.1891H21.1219V30.8687H21.3935V31.4125H20.7146V29.7812H21.1219V29.1016H19.6282V29.7812H20.0356V31.4125H19.3566V30.8687H19.6282V30.1891H18.4061Z" fill="#C8B100"/>
<path d="M33.7507 46.9094V40.1125H26.6895V46.9094L29.9485 48.4047H30.3559L33.7507 46.9094ZM29.9485 40.6563V42.9672L27.64 40.6563H29.9485ZM27.0968 40.7922L29.8127 43.5109L27.0968 46.2297V40.7922ZM27.3684 46.7734L29.9485 44.1906V47.9969L27.3684 46.7734ZM30.3559 47.8609V44.0547L32.9359 46.6375L30.3559 47.8609ZM33.2075 46.2297L30.4917 43.5109L33.2075 40.7922V46.2297ZM30.3559 40.6563H32.6643L30.3559 42.9672V40.6563Z" fill="#C8B100"/>
<path d="M22.0723 38.6172C22.0723 36.5781 23.4302 35.0828 25.1955 35.0828C26.9608 35.0828 28.3188 36.7141 28.3188 38.6172C28.3188 40.5203 26.9608 42.1516 25.1955 42.1516C23.4302 42.1516 22.0723 40.6563 22.0723 38.6172Z" fill="#ED4C5C"/>
<path d="M23.0229 38.6172C23.0229 37.1219 23.9735 36.0344 25.1956 36.0344C26.4178 36.0344 27.3683 37.2578 27.3683 38.6172C27.3683 40.1125 26.4178 41.2 25.1956 41.2C23.9735 41.2 23.0229 40.1125 23.0229 38.6172Z" fill="#005BBF"/>
<path d="M24.2453 36.85L23.7021 38.3453L24.1095 38.4813L23.8379 39.025H24.6527L24.3811 38.4813L24.7885 38.3453L24.2453 36.85Z" fill="#C8B100"/>
<path d="M26.2824 36.85L25.7393 38.3453L26.1466 38.4813L25.8751 39.025H26.6898L26.554 38.4813L26.9614 38.3453L26.2824 36.85Z" fill="#C8B100"/>
<path d="M25.3328 38.6172L24.6538 40.1125L25.0612 40.2484L24.9254 40.7922H25.6044L25.4686 40.2484L25.8759 40.1125L25.3328 38.6172Z" fill="#C8B100"/>
</g>
</g>
<rect x="1.5" y="1.5" width="61" height="61" rx="3.5" stroke="white" stroke-opacity="0.3" stroke-width="3"/>
<defs>
<clipPath id="clip0_315_3630">
<rect width="86.9077" height="87" fill="white" transform="translate(-4 -11)"/>
</clipPath>
</defs>
</svg>
