<svg width="64" height="64" viewBox="0 0 64 64" fill="none" xmlns="http://www.w3.org/2000/svg">
<mask id="mask0_315_3787" style="mask-type:alpha" maskUnits="userSpaceOnUse" x="0" y="0" width="64" height="64">
<rect width="64" height="64" rx="5" fill="#C4C4C4"/>
</mask>
<g mask="url(#mask0_315_3787)">
<path d="M-15.335 33C-15.335 50.6031 -2.16621 65.5187 16.0192 71.0281V-5.02812C-2.16621 0.481253 -15.335 15.3969 -15.335 33Z" fill="#75A843"/>
<path d="M78.7277 33C78.7277 15.3969 65.5589 0.481253 47.3735 -5.02812V71.0281C65.7157 65.5187 78.7277 50.6031 78.7277 33Z" fill="#ED4C5C"/>
<path d="M16.0195 71.0281C20.8794 72.5062 26.2096 73.3125 31.6966 73.3125C37.1836 73.3125 42.5138 72.5062 47.3737 71.0281V-5.02813C42.5138 -6.50625 37.1836 -7.3125 31.6966 -7.3125C26.2096 -7.3125 20.8794 -6.50625 16.0195 -5.02813V71.0281Z" fill="white"/>
</g>
<rect x="1.5" y="1.5" width="61" height="61" rx="3.5" stroke="white" stroke-opacity="0.3" stroke-width="3"/>
</svg>
