<svg width="64" height="64" viewBox="0 0 64 64" fill="none" xmlns="http://www.w3.org/2000/svg">
<mask id="mask0_315_3618" style="mask-type:alpha" maskUnits="userSpaceOnUse" x="0" y="0" width="64" height="64">
<rect width="64" height="64" rx="5" fill="#C4C4C4"/>
</mask>
<g mask="url(#mask0_315_3618)">
<path d="M-10.1279 32C-10.1279 55.8625 9.11414 75.125 32.9513 75.125C56.7885 75.125 76.0306 55.8625 76.0306 32H-10.1279Z" fill="#ED4C5C"/>
<path d="M32.9512 -11.125C56.7884 -11.125 76.0304 8.1375 76.0304 32H32.9512V-11.125Z" fill="#F9F9F9"/>
<path d="M32.9513 -11.125C9.11414 -11.125 -10.1279 8.1375 -10.1279 32H32.9513V-11.125Z" fill="#2A5F9E"/>
<path d="M15.7197 17.1938L22.756 21.9375L20.1713 14.3188L27.2075 9.2875H18.4481L15.7197 1.8125L13.135 9.2875H4.23193L11.2682 14.3188L8.68346 21.9375L15.7197 17.1938Z" fill="#F9F9F9"/>
</g>
<rect x="1.5" y="1.5" width="61" height="61" rx="3.5" stroke="white" stroke-opacity="0.3" stroke-width="3"/>
</svg>
