<svg width="64" height="64" viewBox="0 0 64 64" fill="none" xmlns="http://www.w3.org/2000/svg">
<mask id="mask0_315_3864" style="mask-type:alpha" maskUnits="userSpaceOnUse" x="0" y="0" width="64" height="64">
<rect width="64" height="64" rx="5" fill="#C4C4C4"/>
</mask>
<g mask="url(#mask0_315_3864)">
<g clip-path="url(#clip0_315_3864)">
<path d="M32 -18V-1.33333H-1.33333V32H-18C-18 59.6667 4.33333 82 32 82C59.6667 82 82 59.6667 82 32C82 4.33333 59.6667 -18 32 -18Z" fill="#2A5F9E"/>
<path d="M8.375 0.5C-1.20625 7.71875 -7.375 19.1375 -7.375 32H8.375V0.5Z" fill="white"/>
<path d="M-13 8.375H32V-7.375C19.1375 -7.375 -5.78125 -1.20625 -13 8.375Z" fill="white"/>
<path d="M2.8623 5.48749L24.1248 32H31.9998V22.1562L12.4436 -2.25626C8.8998 -0.156256 5.61855 2.46874 2.8623 5.48749Z" fill="white"/>
<path d="M32 -3.4375H14.8062C6.93125 0.36875 -1.19375 -6.875 -5 1L-3.4375 32H4.4375V4.4375H32V-3.4375Z" fill="#ED4C5C"/>
<path d="M32 25.5688L14.9375 4.4375H7.0625L29.375 32H32V25.5688Z" fill="#ED4C5C"/>
<path d="M38.6936 32L40.0061 28.1937L36.4624 25.7H40.9249L42.2374 22.025L43.5499 25.7H48.0124L44.4687 28.1937L45.7812 32L42.2374 29.6375L38.6936 32Z" fill="white"/>
<path d="M42.2377 28.7188L44.3377 30.1625L43.5502 27.8L45.6502 26.3563H43.0252L42.2377 24.125L41.4502 26.3563H38.8252L40.9252 27.8L40.1377 30.1625L42.2377 28.7188Z" fill="#ED4C5C"/>
<path d="M61.6624 32L62.9749 28.1937L59.4312 25.7H63.8936L65.2061 22.025L66.5186 25.7H70.9811L67.4374 28.1937L68.7499 32L65.2061 29.6375L61.6624 32Z" fill="white"/>
<path d="M65.2064 28.7188L67.3064 30.1625L66.5189 27.8L68.6189 26.3563H65.9939L65.2064 24.125L64.4189 26.3563H61.7939L63.8939 27.8L63.1064 30.1625L65.2064 28.7188Z" fill="#ED4C5C"/>
<path d="M50.2439 18.4813L51.5564 14.675L48.0127 12.1813H52.4752L53.7877 8.50626L55.1002 12.1813H59.5627L56.0189 14.675L57.3314 18.4813L53.7877 16.1188L50.2439 18.4813Z" fill="white"/>
<path d="M53.6563 15.2L55.7562 16.6437L54.9688 14.2812L57.0687 12.8375H54.575L53.6563 10.6062L53 12.8375H50.375L52.475 14.2812L51.6875 16.6437L53.6563 15.2Z" fill="#ED4C5C"/>
<path d="M49.0627 53.9187L50.7689 48.9312L46.0439 45.65H51.9502L53.6564 40.7937L55.3627 45.65H61.1377L56.4127 48.9312L58.1189 53.9187L53.5252 50.7687L49.0627 53.9187Z" fill="white"/>
<path d="M53.6564 49.5875L56.4127 51.425L55.4939 48.4063L58.1189 46.4375H54.8377L53.6564 43.55L52.7377 46.4375H49.3252L51.9502 48.4063L51.0314 51.425L53.6564 49.5875Z" fill="#ED4C5C"/>
<path d="M6.5376 4.4375H22.5501V8.375H6.5376V4.4375Z" fill="white"/>
</g>
</g>
<rect x="1.5" y="1.5" width="61" height="61" rx="3.5" stroke="white" stroke-opacity="0.3" stroke-width="3"/>
<defs>
<clipPath id="clip0_315_3864">
<rect width="84" height="84" fill="white" transform="translate(-10 -10)"/>
</clipPath>
</defs>
</svg>
