<svg width="60" height="60" viewBox="0 0 60 60" fill="none" xmlns="http://www.w3.org/2000/svg">
<path d="M50.0002 20L35.0002 6.85002C33.6252 5.62013 31.8451 4.94019 30.0002 4.94019C28.1554 4.94019 26.3753 5.62013 25.0002 6.85002L10.0002 20C9.20616 20.7102 8.57249 21.5814 8.14142 22.5556C7.71035 23.5298 7.49177 24.5847 7.50024 25.65V47.5C7.50024 49.4891 8.29041 51.3968 9.69694 52.8033C11.1035 54.2098 13.0111 55 15.0002 55H45.0002C46.9894 55 48.897 54.2098 50.3035 52.8033C51.7101 51.3968 52.5002 49.4891 52.5002 47.5V25.625C52.5052 24.5639 52.2849 23.5139 51.8539 22.5442C51.423 21.5746 50.7911 20.7074 50.0002 20ZM35.0002 50H25.0002V37.5C25.0002 36.837 25.2636 36.2011 25.7325 35.7323C26.2013 35.2634 26.8372 35 27.5002 35H32.5002C33.1633 35 33.7992 35.2634 34.268 35.7323C34.7368 36.2011 35.0002 36.837 35.0002 37.5V50ZM47.5002 47.5C47.5002 48.1631 47.2368 48.7989 46.768 49.2678C46.2992 49.7366 45.6633 50 45.0002 50H40.0002V37.5C40.0002 35.5109 39.2101 33.6032 37.8035 32.1967C36.397 30.7902 34.4894 30 32.5002 30H27.5002C25.5111 30 23.6035 30.7902 22.1969 32.1967C20.7904 33.6032 20.0002 35.5109 20.0002 37.5V50H15.0002C14.3372 50 13.7013 49.7366 13.2325 49.2678C12.7636 48.7989 12.5002 48.1631 12.5002 47.5V25.625C12.5007 25.2701 12.5767 24.9193 12.7233 24.596C12.8698 24.2727 13.0836 23.9843 13.3502 23.75L28.3502 10.625C28.8065 10.2242 29.393 10.0032 30.0002 10.0032C30.6075 10.0032 31.194 10.2242 31.6502 10.625L46.6502 23.75C46.9169 23.9843 47.1306 24.2727 47.2772 24.596C47.4238 24.9193 47.4998 25.2701 47.5002 25.625V47.5Z" fill="white"/>
</svg>
