<svg width="54" height="54" viewBox="0 0 54 54" fill="none" xmlns="http://www.w3.org/2000/svg">
<path d="M29.2499 34.38V19.125C29.2499 18.5283 29.0128 17.956 28.5909 17.534C28.1689 17.1121 27.5966 16.875 26.9999 16.875C26.4031 16.875 25.8308 17.1121 25.4089 17.534C24.9869 17.956 24.7499 18.5283 24.7499 19.125V34.38C24.0698 34.7727 23.5042 35.3365 23.1095 36.0154C22.7148 36.6943 22.5046 37.4647 22.4999 38.25C22.4999 39.4435 22.974 40.5881 23.8179 41.432C24.6618 42.2759 25.8064 42.75 26.9999 42.75C28.1934 42.75 29.3379 42.2759 30.1819 41.432C31.0258 40.5881 31.4999 39.4435 31.4999 38.25C31.4951 37.4647 31.285 36.6943 30.8902 36.0154C30.4955 35.3365 29.93 34.7727 29.2499 34.38ZM37.1249 29.25V12.375C37.1249 9.68968 36.0581 7.11435 34.1593 5.21554C32.2605 3.31674 29.6852 2.25 26.9999 2.25C24.3146 2.25 21.7392 3.31674 19.8404 5.21554C17.9416 7.11435 16.8749 9.68968 16.8749 12.375V29.25C15.3198 31.0122 14.2517 33.1499 13.7762 35.4515C13.3007 37.7532 13.4344 40.1391 14.164 42.3733C14.8935 44.6074 16.1937 46.6124 17.9359 48.1899C19.6781 49.7674 21.802 50.8627 24.0974 51.3675C25.0509 51.5848 26.0226 51.7129 26.9999 51.75C29.6113 51.7622 32.1702 51.0166 34.3664 49.6038C36.5627 48.191 38.302 46.1715 39.3736 43.7901C40.4453 41.4086 40.8032 38.7675 40.4041 36.1868C40.0049 33.606 38.8659 31.1964 37.1249 29.25ZM32.6249 45.1575C30.8347 46.7448 28.4872 47.556 26.0989 47.4125C23.7107 47.269 21.4772 46.1827 19.8899 44.3925C18.3026 42.6023 17.4914 40.2548 17.6349 37.8666C17.7783 35.4783 18.8647 33.2448 20.6549 31.6575C20.8675 31.4491 21.0366 31.2006 21.1525 30.9264C21.2683 30.6522 21.3286 30.3577 21.3299 30.06V12.375C21.3299 10.8832 21.9225 9.45242 22.9774 8.39752C24.0323 7.34263 25.463 6.75 26.9549 6.75C28.4467 6.75 29.8775 7.34263 30.9324 8.39752C31.9872 9.45242 32.5799 10.8832 32.5799 12.375V30.24C32.5811 30.5377 32.6414 30.8322 32.7573 31.1064C32.8731 31.3806 33.0423 31.6291 33.2549 31.8375C34.1746 32.726 34.8944 33.8002 35.3663 34.9887C35.8383 36.1772 36.0516 37.4526 35.992 38.7299C35.9323 40.0073 35.6012 41.2573 35.0206 42.3966C34.44 43.536 33.6233 44.5385 32.6249 45.3375V45.1575Z" fill="#9259A9"/>
</svg>
