<svg width="54" height="54" viewBox="0 0 54 54" fill="none" xmlns="http://www.w3.org/2000/svg">
<path d="M49.319 26.1C44.774 15.5475 36.224 9 26.999 9C17.7741 9 9.22405 15.5475 4.67905 26.1C4.55516 26.3839 4.49121 26.6903 4.49121 27C4.49121 27.3097 4.55516 27.6161 4.67905 27.9C9.22405 38.4525 17.7741 45 26.999 45C36.224 45 44.774 38.4525 49.319 27.9C49.4429 27.6161 49.5069 27.3097 49.5069 27C49.5069 26.6903 49.4429 26.3839 49.319 26.1ZM26.999 40.5C19.8665 40.5 13.1166 35.3475 9.22405 27C13.1166 18.6525 19.8665 13.5 26.999 13.5C34.1315 13.5 40.8815 18.6525 44.774 27C40.8815 35.3475 34.1315 40.5 26.999 40.5ZM26.999 18C25.219 18 23.479 18.5278 21.9989 19.5168C20.5189 20.5057 19.3653 21.9113 18.6841 23.5558C18.0029 25.2004 17.8247 27.01 18.172 28.7558C18.5192 30.5016 19.3764 32.1053 20.6351 33.364C21.8938 34.6226 23.4974 35.4798 25.2432 35.8271C26.9891 36.1743 28.7987 35.9961 30.4432 35.3149C32.0877 34.6337 33.4933 33.4802 34.4823 32.0001C35.4712 30.5201 35.999 28.78 35.999 27C35.999 24.6131 35.0508 22.3239 33.363 20.636C31.6752 18.9482 29.386 18 26.999 18ZM26.999 31.5C26.109 31.5 25.239 31.2361 24.499 30.7416C23.759 30.2471 23.1822 29.5443 22.8416 28.7221C22.501 27.8998 22.4119 26.995 22.5855 26.1221C22.7591 25.2492 23.1877 24.4474 23.8171 23.818C24.4464 23.1887 25.2482 22.7601 26.1211 22.5865C26.9941 22.4128 27.8989 22.5019 28.7211 22.8425C29.5434 23.1831 30.2462 23.7599 30.7407 24.4999C31.2351 25.24 31.499 26.11 31.499 27C31.499 28.1935 31.0249 29.3381 30.181 30.182C29.3371 31.0259 28.1925 31.5 26.999 31.5Z" fill="#9259A9"/>
</svg>
