<svg width="54" height="54" viewBox="0 0 54 54" fill="none" xmlns="http://www.w3.org/2000/svg">
<path d="M17.4558 24.2055C18.7908 24.2055 20.0959 23.8096 21.2059 23.0679C22.3159 22.3262 23.1811 21.272 23.692 20.0386C24.2029 18.8052 24.3366 17.448 24.0761 16.1386C23.8157 14.8293 23.1728 13.6265 22.2288 12.6825C21.2848 11.7385 20.082 11.0957 18.7727 10.8352C17.4633 10.5748 16.1061 10.7084 14.8727 11.2193C13.6393 11.7302 12.5851 12.5954 11.8434 13.7054C11.1017 14.8154 10.7058 16.1205 10.7058 17.4555C10.7076 19.2452 11.4193 20.961 12.6848 22.2265C13.9503 23.492 15.6661 24.2037 17.4558 24.2055ZM17.4558 15.2055C17.9008 15.2055 18.3358 15.3375 18.7058 15.5847C19.0758 15.8319 19.3642 16.1833 19.5345 16.5945C19.7048 17.0056 19.7494 17.458 19.6626 17.8945C19.5758 18.3309 19.3615 18.7318 19.0468 19.0465C18.7321 19.3612 18.3312 19.5755 17.8948 19.6623C17.4583 19.7491 17.0059 19.7045 16.5948 19.5342C16.1836 19.3639 15.8322 19.0756 15.585 18.7055C15.3378 18.3355 15.2058 17.9005 15.2058 17.4555C15.2058 16.8588 15.4429 16.2865 15.8648 15.8645C16.2868 15.4426 16.8591 15.2055 17.4558 15.2055ZM36.5448 29.7945C35.2098 29.7945 33.9047 30.1904 32.7947 30.9321C31.6847 31.6738 30.8195 32.728 30.3086 33.9614C29.7977 35.1948 29.6641 36.552 29.9245 37.8614C30.185 39.1707 30.8278 40.3735 31.7718 41.3175C32.7158 42.2615 33.9186 42.9044 35.2279 43.1648C36.5373 43.4253 37.8945 43.2916 39.1279 42.7807C40.3613 42.2698 41.4155 41.4046 42.1572 40.2946C42.8989 39.1846 43.2948 37.8795 43.2948 36.5445C43.293 34.7548 42.5813 33.039 41.3158 31.7735C40.0503 30.508 38.3345 29.7963 36.5448 29.7945ZM36.5448 38.7945C36.0998 38.7945 35.6648 38.6625 35.2948 38.4153C34.9248 38.1681 34.6364 37.8167 34.4661 37.4055C34.2958 36.9944 34.2512 36.542 34.338 36.1056C34.4249 35.6691 34.6391 35.2682 34.9538 34.9535C35.2685 34.6388 35.6694 34.4246 36.1059 34.3377C36.5423 34.2509 36.9947 34.2955 37.4058 34.4658C37.817 34.6361 38.1684 34.9245 38.4156 35.2945C38.6628 35.6645 38.7948 36.0995 38.7948 36.5445C38.7948 37.1412 38.5578 37.7135 38.1358 38.1355C37.7138 38.5575 37.1415 38.7945 36.5448 38.7945ZM44.3411 9.65926C43.9191 9.23745 43.3469 9.00049 42.7503 9.00049C42.1537 9.00049 41.5815 9.23745 41.1596 9.65926L9.65956 41.1593C9.44466 41.3668 9.27325 41.6151 9.15533 41.8896C9.03741 42.1641 8.97534 42.4594 8.97274 42.7581C8.97015 43.0569 9.02707 43.3531 9.14021 43.6297C9.25334 43.9062 9.42041 44.1574 9.63167 44.3686C9.84292 44.5799 10.0941 44.747 10.3707 44.8601C10.6472 44.9732 10.9435 45.0302 11.2422 45.0276C11.541 45.025 11.8362 44.9629 12.1107 44.845C12.3852 44.7271 12.6335 44.5557 12.8411 44.3408L44.3411 12.8408C44.7629 12.4188 44.9998 11.8466 44.9998 11.25C44.9998 10.6534 44.7629 10.0812 44.3411 9.65926Z" fill="#9259A9"/>
</svg>
