<svg width="52" height="52" viewBox="0 0 52 52" fill="none" xmlns="http://www.w3.org/2000/svg">
<path d="M47.0384 43.9616L39 35.9883C42.1203 32.0979 43.6313 27.1598 43.2225 22.1895C42.8136 17.2191 40.516 12.5943 36.802 9.26604C33.088 5.93774 28.24 4.15891 23.2547 4.29533C18.2695 4.43174 13.5259 6.47303 9.99951 9.99945C6.47309 13.5259 4.4318 18.2694 4.29539 23.2546C4.15898 28.2399 5.9378 33.0879 9.2661 36.8019C12.5944 40.5159 17.2192 42.8136 22.1895 43.2224C27.1599 43.6312 32.0979 42.1202 35.9884 39L43.9617 46.9733C44.1631 47.1764 44.4028 47.3376 44.6668 47.4476C44.9308 47.5576 45.214 47.6142 45.5 47.6142C45.7861 47.6142 46.0693 47.5576 46.3333 47.4476C46.5973 47.3376 46.837 47.1764 47.0384 46.9733C47.4289 46.5693 47.6472 46.0294 47.6472 45.4675C47.6472 44.9056 47.4289 44.3657 47.0384 43.9616ZM23.8334 39C20.8337 39 17.9014 38.1105 15.4072 36.4439C12.9131 34.7774 10.9691 32.4087 9.8212 29.6373C8.67327 26.866 8.37292 23.8165 8.95813 20.8744C9.54334 17.9324 10.9878 15.23 13.1089 13.1089C15.23 10.9878 17.9325 9.54327 20.8745 8.95807C23.8165 8.37286 26.8661 8.67321 29.6374 9.82114C32.4088 10.9691 34.7775 12.913 36.444 15.4072C38.1105 17.9013 39 20.8336 39 23.8333C39 27.8558 37.4021 31.7135 34.5578 34.5578C31.7135 37.4021 27.8558 39 23.8334 39Z" fill="#583465"/>
</svg>
