<svg width="60" height="60" viewBox="0 0 60 60" fill="none" xmlns="http://www.w3.org/2000/svg">
<path d="M20.725 28.225C20.4974 28.4628 20.319 28.7431 20.2 29.05C19.95 29.6587 19.95 30.3413 20.2 30.95C20.319 31.2569 20.4974 31.5372 20.725 31.775L28.225 39.275C28.6958 39.7458 29.3342 40.0102 30 40.0102C30.6658 40.0102 31.3042 39.7458 31.775 39.275C32.2458 38.8042 32.5102 38.1658 32.5102 37.5C32.5102 36.8342 32.2458 36.1958 31.775 35.725L28.525 32.5H37.5C38.163 32.5 38.7989 32.2366 39.2678 31.7678C39.7366 31.2989 40 30.663 40 30C40 29.337 39.7366 28.7011 39.2678 28.2322C38.7989 27.7634 38.163 27.5 37.5 27.5H28.525L31.775 24.275C32.0093 24.0426 32.1953 23.7661 32.3222 23.4614C32.4492 23.1568 32.5145 22.83 32.5145 22.5C32.5145 22.17 32.4492 21.8432 32.3222 21.5386C32.1953 21.2339 32.0093 20.9574 31.775 20.725C31.5426 20.4907 31.2661 20.3047 30.9614 20.1778C30.6568 20.0508 30.33 19.9855 30 19.9855C29.67 19.9855 29.3432 20.0508 29.0386 20.1778C28.7339 20.3047 28.4574 20.4907 28.225 20.725L20.725 28.225ZM5 30C5 34.9445 6.46622 39.778 9.21326 43.8893C11.9603 48.0005 15.8648 51.2048 20.4329 53.097C25.0011 54.9892 30.0277 55.4843 34.8773 54.5196C39.7268 53.555 44.1814 51.174 47.6777 47.6777C51.174 44.1814 53.555 39.7268 54.5196 34.8773C55.4843 30.0277 54.9892 25.0011 53.097 20.4329C51.2048 15.8648 48.0005 11.9603 43.8893 9.21326C39.778 6.46622 34.9445 5 30 5C26.717 5 23.4661 5.64664 20.4329 6.90301C17.3998 8.15938 14.6438 10.0009 12.3223 12.3223C7.63392 17.0107 5 23.3696 5 30ZM50 30C50 33.9556 48.827 37.8224 46.6294 41.1114C44.4318 44.4004 41.3082 46.9638 37.6537 48.4776C33.9991 49.9913 29.9778 50.3874 26.0982 49.6157C22.2186 48.844 18.6549 46.9392 15.8579 44.1421C13.0608 41.3451 11.156 37.7814 10.3843 33.9018C9.61259 30.0222 10.0087 26.0009 11.5224 22.3463C13.0362 18.6918 15.5996 15.5682 18.8886 13.3706C22.1776 11.173 26.0444 10 30 10C35.3043 10 40.3914 12.1071 44.1421 15.8579C47.8929 19.6086 50 24.6957 50 30Z" fill="white"/>
</svg>
