<svg width="453" height="500" viewBox="0 0 453 500" fill="none" xmlns="http://www.w3.org/2000/svg">
<rect x="2" width="450" height="460" fill="#E5B300"/>
<path d="M10.316 493.246H4.366L3.193 496H0.915L6.27 484.1H8.446L13.818 496H11.506L10.316 493.246ZM9.585 491.512L7.341 486.31L5.114 491.512H9.585ZM40.7696 484.1H42.9796V494.13H49.2016V496H40.7696V484.1ZM66.6596 496.17C65.4469 496.17 64.3532 495.909 63.3786 495.388C62.4039 494.855 61.6389 494.124 61.0836 493.195C60.5282 492.254 60.2506 491.206 60.2506 490.05C60.2506 488.894 60.5282 487.851 61.0836 486.922C61.6389 485.981 62.4039 485.25 63.3786 484.729C64.3532 484.196 65.4469 483.93 66.6596 483.93C67.8722 483.93 68.9659 484.196 69.9406 484.729C70.9152 485.25 71.6802 485.976 72.2356 486.905C72.7909 487.834 73.0686 488.883 73.0686 490.05C73.0686 491.217 72.7909 492.266 72.2356 493.195C71.6802 494.124 70.9152 494.855 69.9406 495.388C68.9659 495.909 67.8722 496.17 66.6596 496.17ZM66.6596 494.232C67.4529 494.232 68.1669 494.056 68.8016 493.705C69.4362 493.342 69.9349 492.844 70.2976 492.209C70.6602 491.563 70.8416 490.843 70.8416 490.05C70.8416 489.257 70.6602 488.543 70.2976 487.908C69.9349 487.262 69.4362 486.763 68.8016 486.412C68.1669 486.049 67.4529 485.868 66.6596 485.868C65.8662 485.868 65.1522 486.049 64.5176 486.412C63.8829 486.763 63.3842 487.262 63.0216 487.908C62.6589 488.543 62.4776 489.257 62.4776 490.05C62.4776 490.843 62.6589 491.563 63.0216 492.209C63.3842 492.844 63.8829 493.342 64.5176 493.705C65.1522 494.056 65.8662 494.232 66.6596 494.232ZM87.3851 496.17C86.6258 496.17 85.9231 496.023 85.2771 495.728C84.6424 495.422 84.1211 494.997 83.7131 494.453L84.9711 492.94C85.6284 493.847 86.4161 494.3 87.3341 494.3C88.5694 494.3 89.1871 493.569 89.1871 492.107V485.953H84.9541V484.1H91.3971V491.988C91.3971 493.382 91.0571 494.43 90.3771 495.133C89.6971 495.824 88.6998 496.17 87.3851 496.17ZM112.336 493.246H106.386L105.213 496H102.935L108.29 484.1H110.466L115.838 496H113.526L112.336 493.246ZM111.605 491.512L109.361 486.31L107.134 491.512H111.605ZM142.79 484.1H147.992C149.261 484.1 150.389 484.349 151.375 484.848C152.361 485.335 153.126 486.032 153.67 486.939C154.214 487.834 154.486 488.871 154.486 490.05C154.486 491.229 154.214 492.271 153.67 493.178C153.126 494.073 152.361 494.77 151.375 495.269C150.389 495.756 149.261 496 147.992 496H142.79V484.1ZM147.89 494.13C148.762 494.13 149.527 493.966 150.185 493.637C150.853 493.297 151.363 492.821 151.715 492.209C152.077 491.586 152.259 490.866 152.259 490.05C152.259 489.234 152.077 488.52 151.715 487.908C151.363 487.285 150.853 486.809 150.185 486.48C149.527 486.14 148.762 485.97 147.89 485.97H145V494.13H147.89ZM176.129 494.147V496H167.204V484.1H175.891V485.953H169.414V489.047H175.16V490.866H169.414V494.147H176.129ZM214.911 484.1L209.726 496H207.55L202.348 484.1H204.745L208.706 493.28L212.701 484.1H214.911ZM226.537 484.1H228.747V496H226.537V484.1ZM252.91 484.1V496H251.091L244.529 487.942V496H242.336V484.1H244.155L250.717 492.158V484.1H252.91ZM277.043 484.1V496H274.833V490.9H268.679V496H266.469V484.1H268.679V489.013H274.833V484.1H277.043ZM296.16 496.17C294.948 496.17 293.854 495.909 292.879 495.388C291.905 494.855 291.14 494.124 290.584 493.195C290.029 492.254 289.751 491.206 289.751 490.05C289.751 488.894 290.029 487.851 290.584 486.922C291.14 485.981 291.905 485.25 292.879 484.729C293.854 484.196 294.948 483.93 296.16 483.93C297.373 483.93 298.467 484.196 299.441 484.729C300.416 485.25 301.181 485.976 301.736 486.905C302.292 487.834 302.569 488.883 302.569 490.05C302.569 491.217 302.292 492.266 301.736 493.195C301.181 494.124 300.416 494.855 299.441 495.388C298.467 495.909 297.373 496.17 296.16 496.17ZM296.16 494.232C296.954 494.232 297.668 494.056 298.302 493.705C298.937 493.342 299.436 492.844 299.798 492.209C300.161 491.563 300.342 490.843 300.342 490.05C300.342 489.257 300.161 488.543 299.798 487.908C299.436 487.262 298.937 486.763 298.302 486.412C297.668 486.049 296.954 485.868 296.16 485.868C295.367 485.868 294.653 486.049 294.018 486.412C293.384 486.763 292.885 487.262 292.522 487.908C292.16 488.543 291.978 489.257 291.978 490.05C291.978 490.843 292.16 491.563 292.522 492.209C292.885 492.844 293.384 493.342 294.018 493.705C294.653 494.056 295.367 494.232 296.16 494.232ZM330.35 484.1H335.552C336.821 484.1 337.949 484.349 338.935 484.848C339.921 485.335 340.686 486.032 341.23 486.939C341.774 487.834 342.046 488.871 342.046 490.05C342.046 491.229 341.774 492.271 341.23 493.178C340.686 494.073 339.921 494.77 338.935 495.269C337.949 495.756 336.821 496 335.552 496H330.35V484.1ZM335.45 494.13C336.323 494.13 337.088 493.966 337.745 493.637C338.414 493.297 338.924 492.821 339.275 492.209C339.638 491.586 339.819 490.866 339.819 490.05C339.819 489.234 339.638 488.52 339.275 487.908C338.924 487.285 338.414 486.809 337.745 486.48C337.088 486.14 336.323 485.97 335.45 485.97H332.56V494.13H335.45ZM360.324 496.17C359.111 496.17 358.018 495.909 357.043 495.388C356.068 494.855 355.303 494.124 354.748 493.195C354.193 492.254 353.915 491.206 353.915 490.05C353.915 488.894 354.193 487.851 354.748 486.922C355.303 485.981 356.068 485.25 357.043 484.729C358.018 484.196 359.111 483.93 360.324 483.93C361.537 483.93 362.63 484.196 363.605 484.729C364.58 485.25 365.345 485.976 365.9 486.905C366.455 487.834 366.733 488.883 366.733 490.05C366.733 491.217 366.455 492.266 365.9 493.195C365.345 494.124 364.58 494.855 363.605 495.388C362.63 495.909 361.537 496.17 360.324 496.17ZM360.324 494.232C361.117 494.232 361.831 494.056 362.466 493.705C363.101 493.342 363.599 492.844 363.962 492.209C364.325 491.563 364.506 490.843 364.506 490.05C364.506 489.257 364.325 488.543 363.962 487.908C363.599 487.262 363.101 486.763 362.466 486.412C361.831 486.049 361.117 485.868 360.324 485.868C359.531 485.868 358.817 486.049 358.182 486.412C357.547 486.763 357.049 487.262 356.686 487.908C356.323 488.543 356.142 489.257 356.142 490.05C356.142 490.843 356.323 491.563 356.686 492.209C357.049 492.844 357.547 493.342 358.182 493.705C358.817 494.056 359.531 494.232 360.324 494.232ZM399.41 484.1C400.441 484.1 401.336 484.27 402.096 484.61C402.866 484.95 403.456 485.437 403.864 486.072C404.272 486.707 404.476 487.46 404.476 488.333C404.476 489.194 404.272 489.948 403.864 490.594C403.456 491.229 402.866 491.716 402.096 492.056C401.336 492.396 400.441 492.566 399.41 492.566H396.724V496H394.514V484.1H399.41ZM399.308 490.696C400.271 490.696 401.002 490.492 401.501 490.084C401.999 489.676 402.249 489.092 402.249 488.333C402.249 487.574 401.999 486.99 401.501 486.582C401.002 486.174 400.271 485.97 399.308 485.97H396.724V490.696H399.308ZM424.173 493.246H418.223L417.05 496H414.772L420.127 484.1H422.303L427.675 496H425.363L424.173 493.246ZM423.442 491.512L421.198 486.31L418.971 491.512H423.442ZM422.439 483.131C422.156 483.131 421.906 483.074 421.691 482.961C421.487 482.848 421.232 482.678 420.926 482.451C420.745 482.304 420.592 482.196 420.467 482.128C420.354 482.049 420.24 482.009 420.127 482.009C419.889 482.009 419.691 482.1 419.532 482.281C419.385 482.462 419.305 482.712 419.294 483.029H418.155C418.166 482.338 418.336 481.788 418.665 481.38C419.005 480.961 419.447 480.751 419.991 480.751C420.274 480.751 420.518 480.808 420.722 480.921C420.937 481.034 421.198 481.204 421.504 481.431C421.685 481.578 421.833 481.692 421.946 481.771C422.071 481.839 422.19 481.873 422.303 481.873C422.541 481.873 422.734 481.788 422.881 481.618C423.04 481.448 423.125 481.21 423.136 480.904H424.275C424.252 481.573 424.077 482.111 423.748 482.519C423.419 482.927 422.983 483.131 422.439 483.131ZM444.951 496.17C443.739 496.17 442.645 495.909 441.67 495.388C440.696 494.855 439.931 494.124 439.375 493.195C438.82 492.254 438.542 491.206 438.542 490.05C438.542 488.894 438.82 487.851 439.375 486.922C439.931 485.981 440.696 485.25 441.67 484.729C442.645 484.196 443.739 483.93 444.951 483.93C446.164 483.93 447.258 484.196 448.232 484.729C449.207 485.25 449.972 485.976 450.527 486.905C451.083 487.834 451.36 488.883 451.36 490.05C451.36 491.217 451.083 492.266 450.527 493.195C449.972 494.124 449.207 494.855 448.232 495.388C447.258 495.909 446.164 496.17 444.951 496.17ZM444.951 494.232C445.745 494.232 446.459 494.056 447.093 493.705C447.728 493.342 448.227 492.844 448.589 492.209C448.952 491.563 449.133 490.843 449.133 490.05C449.133 489.257 448.952 488.543 448.589 487.908C448.227 487.262 447.728 486.763 447.093 486.412C446.459 486.049 445.745 485.868 444.951 485.868C444.158 485.868 443.444 486.049 442.809 486.412C442.175 486.763 441.676 487.262 441.313 487.908C440.951 488.543 440.769 489.257 440.769 490.05C440.769 490.843 440.951 491.563 441.313 492.209C441.676 492.844 442.175 493.342 442.809 493.705C443.444 494.056 444.158 494.232 444.951 494.232Z" fill="#E5B300"/>
<g clip-path="url(#clip0_135_123)">
<path d="M120.457 316.469H117.571C117.3 316.458 117.035 316.55 116.829 316.726C116.623 316.903 116.491 317.15 116.459 317.419C116.459 317.706 116.334 318.19 116.334 318.19C114.409 316.84 112.179 315.99 109.845 315.716C108.364 315.741 106.908 316.108 105.593 316.789C104.277 317.47 103.137 318.447 102.262 319.642C100.008 322.522 98.5602 325.949 98.0677 329.573C97.906 330.761 97.8222 331.959 97.8167 333.158C97.6651 335.711 98.3857 338.239 99.8602 340.328C100.547 341.204 101.435 341.9 102.45 342.356C103.465 342.811 104.576 343.014 105.686 342.945C107.307 342.851 108.867 342.297 110.185 341.35C111.802 340.296 113.217 338.96 114.362 337.406C114.362 338.195 114.559 340.705 114.685 341.601C114.719 341.843 114.839 342.065 115.023 342.227C115.208 342.388 115.444 342.477 115.689 342.479H118.772C118.914 342.483 119.056 342.453 119.184 342.391C119.313 342.329 119.425 342.237 119.511 342.123C119.597 342.009 119.654 341.876 119.678 341.735C119.703 341.595 119.693 341.45 119.65 341.314C119.018 337.36 119.018 333.33 119.65 329.376L121.443 317.85C121.493 317.693 121.506 317.526 121.48 317.363C121.455 317.201 121.392 317.046 121.296 316.912C121.2 316.778 121.075 316.668 120.929 316.591C120.783 316.514 120.621 316.473 120.457 316.469ZM115.473 322.438C115.473 322.672 114.972 325.342 114.972 325.342C114.446 328.603 113.283 331.728 111.548 334.538C109.952 336.958 108.249 338.123 106.493 338.123C106.074 338.085 105.669 337.953 105.309 337.735C104.948 337.518 104.642 337.222 104.413 336.869C103.497 335.506 103.051 333.883 103.141 332.244C103.156 331.398 103.221 330.554 103.338 329.716C103.701 327.089 104.773 324.61 106.439 322.546C106.996 321.824 107.702 321.23 108.51 320.806C109.317 320.383 110.207 320.138 111.118 320.09C112.635 320.083 114.094 320.669 115.187 321.721C115.298 321.801 115.384 321.911 115.435 322.038C115.486 322.165 115.499 322.304 115.473 322.438ZM94.608 310.894C92.0732 308.878 88.8769 307.881 85.6452 308.098H77.489C77.2453 308.077 77.0031 308.152 76.8128 308.305C76.6225 308.459 76.4987 308.68 76.4673 308.923C76.4673 309.353 71.5377 337.604 70.9283 341.189C70.8904 341.335 70.8861 341.489 70.9158 341.637C70.9456 341.785 71.0085 341.925 71.0999 342.046C71.1912 342.167 71.3087 342.265 71.4435 342.334C71.5783 342.403 71.727 342.44 71.8783 342.444H75.3201C75.5706 342.439 75.8116 342.346 76.0015 342.183C76.1913 342.019 76.318 341.794 76.3597 341.547C76.3597 340.992 77.9551 332.1 78.3853 329.573C78.3853 329.268 78.5108 329.125 78.941 329.143C80.8411 329.286 87.9038 329.429 92.439 326.131C93.9236 325.154 95.1426 323.823 95.9873 322.259C96.8319 320.695 97.2757 318.946 97.2789 317.168C97.3367 315.989 97.1264 314.811 96.6638 313.725C96.2012 312.638 95.4983 311.67 94.608 310.894ZM83.0998 324.464C81.8091 324.464 80.9845 324.572 80.3213 324.464C79.658 324.357 79.5326 324.249 79.6222 323.747C79.9628 321.704 81.3251 313.583 81.4148 313.314C81.5044 313.045 81.5582 312.472 82.2573 312.472H83.4224C88.9973 312.472 91.7041 313.942 91.8295 317.15C92.0626 321.309 88.585 324.088 83.0998 324.464ZM341.695 315.788C339.539 316.049 337.475 316.81 335.666 318.012C333.858 319.213 332.355 320.821 331.28 322.707C331.28 322.707 332.051 318.19 332.14 317.688C332.23 317.186 332.015 316.469 331.172 316.469H327.982C327.851 316.451 327.717 316.462 327.591 316.499C327.464 316.537 327.347 316.601 327.247 316.688C327.147 316.774 327.066 316.881 327.01 317.001C326.955 317.121 326.925 317.251 326.924 317.383C326.924 317.742 323.679 338.105 323.213 341.117C323.17 341.271 323.165 341.432 323.197 341.589C323.229 341.745 323.297 341.891 323.397 342.016C323.497 342.14 323.625 342.239 323.771 342.304C323.917 342.369 324.076 342.398 324.235 342.39H327.372C327.63 342.391 327.88 342.296 328.072 342.124C328.264 341.952 328.385 341.714 328.412 341.458C328.412 340.956 328.806 339.091 328.806 339.091C329.503 334.041 331.342 329.217 334.184 324.984C336.335 321.99 338.056 320.682 340.225 320.503C340.618 320.467 341.014 320.467 341.408 320.503C341.518 320.523 341.63 320.521 341.739 320.496C341.848 320.472 341.951 320.426 342.042 320.36C342.132 320.295 342.208 320.212 342.266 320.116C342.323 320.02 342.361 319.914 342.376 319.803C342.519 318.979 342.806 317.204 342.86 316.953C343.003 316.021 342.394 315.716 341.695 315.788ZM213.742 309.012C213.714 308.751 213.587 308.51 213.387 308.339C213.187 308.169 212.929 308.083 212.666 308.098H208.059C207.831 308.087 207.606 308.151 207.418 308.281C207.23 308.41 207.09 308.598 207.02 308.815L190.887 340.812C190.792 340.978 190.745 341.166 190.749 341.357C190.753 341.547 190.808 341.733 190.91 341.895C191.011 342.056 191.153 342.188 191.323 342.275C191.492 342.362 191.682 342.402 191.872 342.39H194.902C195.111 342.401 195.319 342.347 195.495 342.234C195.672 342.122 195.809 341.957 195.888 341.762L200.746 331.939H212.827L214.62 341.493C214.655 341.75 214.785 341.984 214.984 342.15C215.183 342.316 215.437 342.401 215.696 342.39H218.868C219.029 342.404 219.19 342.379 219.339 342.317C219.487 342.256 219.619 342.16 219.723 342.037C219.826 341.914 219.899 341.767 219.934 341.611C219.97 341.454 219.967 341.291 219.926 341.135C219.657 340.597 214.279 311.844 213.742 309.012ZM202.986 327.386L209.457 314.39L211.913 327.386H202.986ZM257.032 313.332C257.319 313.87 257.731 313.834 258.251 313.637L266.264 310.339C266.393 310.294 266.511 310.221 266.609 310.125C266.707 310.029 266.783 309.913 266.831 309.784C266.878 309.656 266.897 309.519 266.886 309.382C266.875 309.246 266.834 309.113 266.766 308.994L265.816 307.094C265.493 306.449 265.009 306.18 264.166 306.664L256.996 311.163C256.369 311.504 256.261 311.862 256.512 312.454L257.032 313.332ZM105.829 311.271L107.21 312.346C107.55 312.597 107.712 312.741 108.052 312.346C108.68 311.611 109.361 310.679 110.454 310.679C112.014 310.679 112.803 312.472 115.205 312.472C116.311 312.38 117.379 312.02 118.316 311.424C119.253 310.827 120.031 310.012 120.582 309.048C120.815 308.6 120.726 308.51 120.385 308.206L119.005 307.13C118.948 307.077 118.879 307.039 118.804 307.017C118.73 306.995 118.651 306.991 118.575 307.005C118.498 307.019 118.426 307.05 118.364 307.097C118.302 307.144 118.251 307.204 118.216 307.273C117.391 308.403 116.692 308.851 115.922 308.851C114.595 308.851 113.215 307.058 111.01 307.058C109.977 307.132 108.978 307.462 108.104 308.019C107.231 308.576 106.511 309.343 106.009 310.249C105.632 310.697 105.399 310.984 105.829 311.325V311.271ZM169.77 316.433L167.386 316.971C167.209 316.99 167.043 317.064 166.911 317.183C166.779 317.303 166.688 317.46 166.651 317.634L165.36 324.536C163.95 323.54 162.309 322.923 160.592 322.743C159.491 322.768 158.411 323.046 157.435 323.556C156.459 324.066 155.613 324.794 154.964 325.683C153.333 327.758 152.292 330.236 151.952 332.853C151.833 333.709 151.773 334.571 151.773 335.435C151.67 337.3 152.186 339.146 153.243 340.687C153.749 341.33 154.402 341.842 155.148 342.179C155.894 342.516 156.71 342.668 157.527 342.623C159.319 342.623 161.363 341.26 163.532 338.554C163.532 339.307 163.532 341.171 163.657 341.493C163.655 341.599 163.674 341.703 163.712 341.801C163.751 341.899 163.809 341.988 163.882 342.063C163.956 342.138 164.043 342.198 164.14 342.238C164.237 342.279 164.341 342.3 164.446 342.3H166.812C166.929 342.309 167.046 342.288 167.153 342.241C167.261 342.194 167.354 342.121 167.427 342.029C167.499 341.937 167.548 341.829 167.569 341.713C167.59 341.598 167.583 341.48 167.547 341.368C167.169 338.415 167.26 335.42 167.816 332.495L170.541 317.115C170.613 316.81 170.469 316.344 169.77 316.487V316.433ZM164.392 329.788C164.023 332.182 163.169 334.475 161.883 336.528C160.7 338.321 159.463 339.217 158.172 339.217C157.864 339.187 157.567 339.088 157.303 338.926C157.039 338.765 156.815 338.545 156.649 338.285C155.965 337.285 155.631 336.088 155.699 334.879C155.706 334.278 155.76 333.679 155.86 333.086C156.108 331.161 156.897 329.346 158.136 327.852C158.547 327.327 159.065 326.896 159.655 326.587C160.246 326.278 160.895 326.098 161.56 326.059C162.119 326.058 162.672 326.166 163.189 326.378C163.706 326.59 164.176 326.902 164.572 327.296C164.679 327.436 164.741 327.605 164.751 327.78L164.392 329.788ZM295.931 318.459C293.582 316.656 290.699 315.691 287.739 315.716C285.728 315.718 283.743 316.166 281.926 317.028C280.11 317.89 278.507 319.144 277.234 320.7C274.621 323.797 273.231 327.744 273.326 331.796C273.183 333.323 273.388 334.862 273.926 336.298C274.464 337.734 275.321 339.029 276.433 340.086C277.545 341.142 278.882 341.932 280.343 342.397C281.805 342.861 283.353 342.987 284.871 342.766C287.647 342.598 290.333 341.715 292.668 340.203C292.867 340.111 293.03 339.955 293.131 339.76C293.231 339.566 293.264 339.343 293.224 339.127C293.224 338.823 293.224 337.209 293.08 336.116C293.082 335.976 293.043 335.839 292.968 335.721C292.892 335.603 292.784 335.51 292.657 335.453C292.529 335.395 292.387 335.377 292.249 335.399C292.111 335.421 291.983 335.484 291.879 335.578C290 337.098 287.709 338.022 285.301 338.231C284.353 338.288 283.405 338.131 282.527 337.771C281.648 337.411 280.863 336.857 280.228 336.152C279.098 334.764 278.517 333.01 278.597 331.222C278.572 328.5 279.526 325.86 281.285 323.783C282.122 322.724 283.187 321.868 284.4 321.278C285.614 320.689 286.945 320.381 288.294 320.377C290.313 320.4 292.242 321.211 293.672 322.636C294.264 323.173 294.945 323.12 295.232 322.636C295.644 321.793 296.217 320.108 296.325 319.803C296.395 319.57 296.391 319.321 296.314 319.09C296.237 318.859 296.091 318.657 295.895 318.513L295.931 318.459ZM245.362 318.459C243.014 316.656 240.131 315.691 237.17 315.716C235.16 315.718 233.175 316.166 231.358 317.028C229.542 317.89 227.939 319.144 226.666 320.7C224.061 323.802 222.673 327.746 222.758 331.796C222.641 334.589 223.546 337.33 225.304 339.504C226.518 340.803 228.07 341.74 229.785 342.21C228.614 343.07 227.352 343.797 226.021 344.379C225.909 344.409 225.808 344.47 225.728 344.553C225.648 344.637 225.593 344.742 225.569 344.855C225.545 344.968 225.553 345.086 225.591 345.195C225.63 345.304 225.698 345.4 225.788 345.473C226.529 346.121 227.446 346.533 228.423 346.656C229.201 346.716 229.983 346.584 230.699 346.272C231.415 345.959 232.043 345.476 232.528 344.863C233.107 344.227 233.641 343.55 234.123 342.838H234.302C237.074 342.674 239.756 341.791 242.082 340.274C242.282 340.181 242.447 340.027 242.553 339.833C242.66 339.64 242.702 339.418 242.674 339.199C242.674 338.894 242.566 337.281 242.512 336.187C242.514 336.048 242.475 335.91 242.399 335.792C242.324 335.675 242.216 335.581 242.088 335.524C241.961 335.467 241.819 335.449 241.681 335.471C241.543 335.493 241.414 335.555 241.311 335.65C239.432 337.169 237.141 338.093 234.733 338.303C233.785 338.36 232.837 338.203 231.958 337.843C231.08 337.483 230.294 336.929 229.66 336.223C228.519 334.842 227.937 333.083 228.028 331.294C228.003 328.572 228.958 325.932 230.717 323.855C231.554 322.796 232.619 321.94 233.832 321.35C235.046 320.76 236.377 320.452 237.726 320.449C239.745 320.472 241.674 321.282 243.104 322.707C243.695 323.245 244.377 323.191 244.645 322.707C245.069 321.787 245.434 320.841 245.739 319.875C245.834 319.635 245.844 319.37 245.77 319.122C245.695 318.875 245.539 318.66 245.327 318.513L245.362 318.459ZM185.76 324.124C184.353 323.149 182.665 322.664 180.956 322.743C179.506 322.726 178.073 323.049 176.771 323.688C175.47 324.326 174.336 325.261 173.463 326.418C171.609 328.679 170.619 331.525 170.666 334.449C170.563 336.513 171.199 338.547 172.459 340.185C173.191 341.023 174.104 341.683 175.129 342.114C176.154 342.546 177.264 342.738 178.374 342.677C180.799 342.627 183.152 341.853 185.132 340.454C185.527 340.167 185.652 340.006 185.616 339.557C185.616 339.557 185.616 338.5 185.419 337.765C185.407 337.671 185.37 337.583 185.311 337.508C185.252 337.434 185.175 337.378 185.086 337.345C184.998 337.311 184.902 337.303 184.809 337.32C184.716 337.337 184.629 337.38 184.559 337.442C183.045 338.646 181.2 339.359 179.271 339.486C178.113 339.521 176.981 339.139 176.08 338.41C175.174 337.595 174.626 336.454 174.556 335.237C180.059 335.237 183.86 334.072 185.957 331.957C186.932 330.882 187.452 329.471 187.409 328.02C187.365 326.569 186.761 325.192 185.724 324.177L185.76 324.124ZM174.843 332.226C175.101 330.527 175.834 328.936 176.958 327.637C177.402 327.116 177.95 326.695 178.568 326.401C179.186 326.108 179.859 325.948 180.543 325.934C181.458 325.87 182.363 326.158 183.071 326.741C183.279 326.943 183.443 327.186 183.554 327.454C183.665 327.722 183.72 328.01 183.716 328.3C183.585 330.798 180.627 332.106 174.843 332.226ZM269.562 316.541C268.773 316.702 267.214 317.115 266.515 317.294C265.816 317.473 265.6 317.76 265.529 318.244C263.198 331.437 259.972 338.231 255.759 338.231C253.967 338.231 252.981 336.869 252.981 334.09C252.981 333.243 253.053 332.398 253.196 331.563C253.196 331.563 255.544 317.921 255.58 317.616C255.613 317.443 255.6 317.264 255.543 317.097C255.486 316.93 255.387 316.781 255.256 316.664C255.124 316.546 254.964 316.465 254.791 316.428C254.619 316.391 254.44 316.399 254.271 316.451L251.152 317.258C250.382 317.491 250.31 317.796 250.202 318.19C250.095 318.584 247.908 331.563 247.908 331.563C247.75 332.583 247.666 333.613 247.657 334.646C247.524 336.789 248.124 338.913 249.36 340.669C249.933 341.394 250.671 341.972 251.513 342.352C252.356 342.733 253.277 342.905 254.2 342.856C256.118 342.869 258.004 342.361 259.655 341.386C261.306 340.41 262.661 339.003 263.575 337.317C263.613 338.703 263.733 340.086 263.933 341.458C263.931 341.581 263.953 341.703 263.999 341.817C264.045 341.931 264.114 342.035 264.201 342.122C264.288 342.209 264.392 342.278 264.506 342.324C264.62 342.37 264.742 342.392 264.866 342.39H267.913C268.612 342.39 268.935 341.744 268.773 341.081C268.493 339.701 268.367 338.294 268.397 336.887C268.484 333.048 268.843 329.22 269.472 325.432C269.903 322.887 270.351 320.305 270.781 317.724C270.844 317.548 270.853 317.357 270.808 317.176C270.763 316.995 270.666 316.831 270.528 316.704C270.39 316.578 270.219 316.495 270.034 316.466C269.849 316.437 269.66 316.463 269.49 316.541H269.562ZM138.508 315.716C136.513 315.709 134.545 316.173 132.763 317.07C130.981 317.967 129.437 319.272 128.254 320.879C125.737 324.01 124.392 327.922 124.454 331.939C124.343 334.695 125.185 337.404 126.838 339.611C127.77 340.7 128.941 341.559 130.259 342.122C131.577 342.685 133.008 342.936 134.439 342.856C136.417 342.863 138.369 342.402 140.135 341.511C141.902 340.62 143.433 339.324 144.603 337.729C147.048 334.586 148.35 330.704 148.295 326.723C148.426 323.97 147.582 321.26 145.911 319.068C145.021 317.956 143.879 317.071 142.579 316.488C141.279 315.905 139.859 315.641 138.436 315.716H138.508ZM142.864 329.161C142.494 331.645 141.431 333.974 139.799 335.883C139.21 336.686 138.453 337.35 137.579 337.827C136.705 338.304 135.737 338.583 134.743 338.643C134.028 338.643 133.325 338.462 132.698 338.117C132.071 337.773 131.542 337.275 131.158 336.671C130.141 335.161 129.638 333.363 129.724 331.545C129.72 330.843 129.768 330.142 129.868 329.447C130.193 326.948 131.253 324.602 132.915 322.707C133.502 321.913 134.255 321.256 135.122 320.782C135.989 320.308 136.949 320.03 137.934 319.965C138.649 319.968 139.351 320.151 139.977 320.495C140.604 320.839 141.134 321.335 141.519 321.937C142.545 323.43 143.055 325.218 142.971 327.027C142.962 327.742 142.902 328.455 142.792 329.161H142.864ZM319.503 316.469H316.635C316.361 316.454 316.091 316.543 315.881 316.72C315.671 316.897 315.537 317.147 315.505 317.419C315.505 317.706 315.398 318.19 315.398 318.19C313.47 316.846 311.242 315.997 308.909 315.716C307.426 315.734 305.968 316.098 304.652 316.779C303.335 317.461 302.196 318.441 301.326 319.642C299.065 322.518 297.617 325.947 297.132 329.573C296.961 330.76 296.877 331.958 296.881 333.158C296.724 335.709 297.438 338.237 298.906 340.328C299.595 341.202 300.484 341.896 301.498 342.351C302.513 342.807 303.622 343.011 304.732 342.945C306.353 342.854 307.914 342.3 309.231 341.35C310.849 340.29 312.269 338.956 313.426 337.406C313.426 338.195 313.605 340.705 313.749 341.601C313.775 341.843 313.891 342.067 314.073 342.23C314.255 342.392 314.491 342.481 314.735 342.479H317.818C317.961 342.482 318.102 342.451 318.231 342.389C318.36 342.327 318.473 342.236 318.56 342.123C318.647 342.009 318.706 341.877 318.733 341.737C318.76 341.596 318.753 341.452 318.714 341.314C318.071 337.361 318.071 333.329 318.714 329.376L320.507 317.85C320.56 317.685 320.572 317.511 320.542 317.341C320.512 317.171 320.441 317.011 320.334 316.875C320.228 316.738 320.091 316.63 319.933 316.56C319.776 316.489 319.603 316.458 319.431 316.469H319.503ZM314.52 322.438C314.52 322.672 314.035 325.342 314.035 325.342C313.514 328.607 312.344 331.734 310.594 334.538C308.998 336.958 307.295 338.123 305.557 338.123C305.135 338.085 304.728 337.953 304.365 337.736C304.002 337.518 303.692 337.222 303.459 336.869C302.55 335.504 302.109 333.881 302.205 332.244C302.211 331.398 302.276 330.553 302.402 329.716C302.757 327.087 303.83 324.606 305.503 322.546C306.057 321.825 306.76 321.232 307.565 320.808C308.369 320.385 309.256 320.14 310.164 320.09C311.686 320.083 313.152 320.668 314.251 321.721C314.348 321.81 314.418 321.925 314.452 322.052C314.487 322.178 314.486 322.313 314.448 322.438H314.52Z" fill="#1D5532"/>
<path d="M85.6811 235.499C86.3264 174.05 129.097 102.975 176.438 102.975C219.37 102.975 241.849 165.607 241.849 206.352C241.849 266.349 201.176 281.227 190.618 281.227C177.03 281.227 170.039 263.302 190.474 226.501C208.902 193.231 235.79 173.333 262.051 173.333C302.133 173.333 330.402 227.881 331.226 263.929C331.621 281.55 321.367 287.053 309.249 286.444C294.21 285.709 268.02 278.144 215.355 279.955C179.199 281.192 156.559 287.663 129.455 287.663C105.345 287.663 85.215 280.134 85.6811 235.499Z" fill="white"/>
<path d="M185.258 245.304C191.03 230.771 199.177 217.299 209.368 205.438C223.422 189.018 235.575 183.73 235.575 183.73C235.575 183.73 243.731 220.173 229.624 248.262C223.959 259.484 210.623 277.051 190.187 278.467C179.504 279.112 178.643 262.8 185.258 245.304Z" fill="#4A8B2C"/>
<path d="M327.533 262.531C326.494 228.347 299.803 176.596 259.739 177.169C252.741 177.386 245.863 179.046 239.537 182.045C241.016 190.064 241.79 198.198 241.849 206.352C241.849 249.643 220.661 269.432 204.922 277.105C235.799 274.437 266.891 275.793 297.418 281.138C323.052 285.655 327.946 276.262 327.533 262.531Z" fill="#80BC00"/>
<path d="M350.514 357.537C352.755 354.059 359.154 349.524 364.622 349.668C372.132 349.883 377.277 355.816 380.665 361.373C384.053 366.93 379.554 377.649 372.867 381.898C366.181 386.146 347.556 383.601 346.965 372.11C346.61 366.997 347.864 361.902 350.55 357.537" fill="#6C3B5D"/>
<path d="M363.941 370.694C363.941 370.694 362.901 368.902 362.363 367.988C363.933 368.87 365.643 369.476 367.418 369.78C367.765 369.764 368.104 369.674 368.413 369.517C368.722 369.359 368.994 369.137 369.211 368.866C369.414 368.588 369.558 368.271 369.632 367.934C369.706 367.598 369.709 367.25 369.641 366.912C369.237 365.875 368.674 364.908 367.974 364.044C367.651 363.578 367.382 363.183 367.221 362.915C367.956 363.345 369.282 364.205 369.892 364.6C370.265 364.911 370.704 365.134 371.176 365.252C371.648 365.37 372.14 365.38 372.617 365.281C373.376 365.051 374.018 364.538 374.409 363.847C374.621 363.414 374.731 362.939 374.731 362.457C374.731 361.976 374.621 361.501 374.409 361.068C373.772 359.438 373.017 357.856 372.15 356.336C371.932 356.088 371.637 355.92 371.313 355.859C370.988 355.797 370.652 355.845 370.358 355.995C369.39 356.587 370.143 358.146 370.179 358.2C371.07 359.659 371.855 361.181 372.527 362.753C372.527 362.968 372.527 363.345 372.133 363.219C371.464 362.864 370.818 362.469 370.197 362.036C368.665 361.021 366.984 360.252 365.213 359.76C364.99 359.688 364.749 359.695 364.53 359.78C364.311 359.864 364.128 360.022 364.012 360.226C363.886 360.393 363.806 360.59 363.781 360.798C363.755 361.006 363.786 361.217 363.869 361.409C364.031 361.748 364.223 362.072 364.442 362.377C366.791 365.962 367.328 366.715 367.436 366.858C367.777 367.468 367.078 367.521 366.701 367.324C366.325 367.127 361.7 365.155 360.821 364.868C360.599 364.802 360.362 364.802 360.14 364.868C359.94 364.925 359.758 365.03 359.608 365.174C359.458 365.318 359.345 365.496 359.28 365.693C359.2 365.835 359.158 365.996 359.158 366.159C359.158 366.322 359.2 366.483 359.28 366.625C360.14 368.131 362.112 372.003 362.22 372.218C362.279 372.305 362.308 372.408 362.303 372.513C362.298 372.617 362.26 372.718 362.193 372.799C362.126 372.879 362.035 372.936 361.933 372.961C361.831 372.986 361.724 372.976 361.628 372.935C361.503 372.935 358.706 371.053 358.24 370.802C357.774 370.551 357.111 370.336 356.573 370.927C356.035 371.519 355.264 372.63 354.637 373.419L354.261 373.885C352.468 375.946 352.468 376.43 352.647 376.663C352.827 376.897 353.006 377.022 357.218 373.329C357.667 372.935 357.667 372.935 358.222 373.222C358.491 373.347 358.832 373.544 359.19 373.742C360.07 374.364 361.062 374.808 362.112 375.05C362.431 375.089 362.753 375.062 363.061 374.973C363.369 374.884 363.656 374.733 363.905 374.53C364.113 374.332 364.278 374.093 364.389 373.827C364.5 373.562 364.555 373.276 364.55 372.989C364.552 372.17 364.335 371.366 363.923 370.658" fill="white"/>
<path d="M233.783 393.227C233.836 390.777 234.057 388.333 234.446 385.913H234.356C231.47 391.685 227.867 393.8 223.995 393.8C219.675 393.8 217.148 390.215 217.148 385.913C217.148 377.112 223.959 367.988 233.836 367.988C235.766 367.995 237.686 368.242 239.555 368.722L237.081 381.593C236.31 385.44 235.949 389.358 236.005 393.281L233.783 393.227ZM236.938 370.407C235.78 370.039 234.565 369.887 233.352 369.959C225.895 369.959 219.55 377.13 219.514 385.501C219.514 388.494 220.428 391.793 224.497 391.793C228.925 391.793 233.98 385.859 235.252 378.958L236.938 370.407Z" fill="#262027"/>
<path d="M267.787 356.659L262.069 386.487C261.628 388.716 261.299 390.965 261.083 393.227H258.968L259.811 387.849H259.703C257.373 391.434 254.325 393.89 250.274 393.89C245.183 393.89 243.104 389.552 243.104 385.071C243.104 376.108 249.844 368.023 258.233 368.023C259.952 367.988 261.658 368.324 263.234 369.009L265.493 356.748L267.787 356.659ZM262.679 371.142C261.232 370.293 259.569 369.882 257.892 369.959C250.991 369.959 245.345 377.13 245.345 384.784C245.345 387.813 246.223 391.793 250.812 391.793C254.809 391.793 259.613 387.15 260.743 381.037L262.679 371.142Z" fill="#262027"/>
<path d="M285.104 391.793C282.852 393.155 280.26 393.851 277.629 393.8C271.355 393.8 269.024 388.996 269.024 384.121C269.024 376.753 274.581 367.988 281.949 367.988C286.43 367.988 288.33 370.784 288.33 373.652C288.33 380.302 280.299 381.647 271.606 381.486C271.277 383.513 271.4 385.588 271.964 387.562C272.338 388.836 273.13 389.947 274.213 390.715C275.297 391.483 276.607 391.862 277.933 391.793C280.219 391.792 282.461 391.173 284.422 390L285.104 391.793ZM285.964 373.706C285.964 371.232 284.064 369.959 281.536 369.959C277.055 369.959 273.362 374.638 271.964 379.478C279.278 379.585 285.964 378.6 285.964 373.76V373.706Z" fill="#262027"/>
<path d="M290.195 400.236C292.171 401.464 294.464 402.087 296.791 402.028C301.326 402.028 304.929 399.608 306.686 391.793L307.708 387.042H307.6C306.749 388.879 305.402 390.441 303.711 391.553C302.02 392.664 300.051 393.281 298.028 393.334C293.027 393.334 290.768 388.996 290.768 384.927C290.768 376.341 297.096 367.934 305.915 367.934C308.399 367.99 310.842 368.57 313.086 369.637L309.285 390.144C308.192 395.808 306.74 399.106 304.428 401.257C302.163 403.135 299.282 404.106 296.343 403.982C293.88 404.095 291.44 403.471 289.334 402.19L290.195 400.236ZM310.486 371.035C308.907 370.309 307.187 369.942 305.449 369.959C298.136 369.959 293.188 377.416 293.134 384.425C293.134 387.311 294.013 391.327 298.745 391.327C303.477 391.327 307.708 385.555 308.694 380.302L310.486 371.035Z" fill="#262027"/>
<path d="M333.306 393.227C333.367 390.776 333.594 388.333 333.987 385.913H333.879C330.993 391.685 327.39 393.8 323.536 393.8C319.198 393.8 316.689 390.215 316.689 385.913C316.689 377.112 323.482 367.988 333.359 367.988C335.289 367.995 337.209 368.242 339.078 368.722L336.604 381.593C335.833 385.44 335.472 389.358 335.528 393.281L333.306 393.227ZM336.461 370.407C335.303 370.039 334.088 369.887 332.875 369.959C325.418 369.959 319.091 377.13 319.037 385.501C319.037 388.494 319.951 391.793 324.02 391.793C328.448 391.793 333.503 385.859 334.776 378.958L336.461 370.407Z" fill="#262027"/>
</g>
<path d="M190.073 226.134C202.066 204.514 217.627 188.595 234.209 180.061C232.633 171.657 230.317 163.409 227.289 155.412C219.079 133.703 201.6 106.543 174.118 106.812C155.205 107.009 136.561 120.437 120.338 142.236C101.765 167.136 90.077 203.295 89.342 232.569C88.3381 273.98 105.476 283.051 132.582 283.446C142.812 283.328 153.025 282.586 163.165 281.223C169.278 280.595 176.341 279.699 183.369 278.892C174.961 273.335 173.527 255.946 190.073 226.134Z" fill="#1A5632"/>
<defs>
<clipPath id="clip0_135_123">
<rect width="310.866" height="301.025" fill="white" transform="translate(71 102.975)"/>
</clipPath>
</defs>
</svg>
