<svg width="247" height="186" viewBox="0 0 247 186" fill="none" xmlns="http://www.w3.org/2000/svg">
<path d="M0.681075 133.499C1.3264 72.0502 44.0969 0.975098 91.4385 0.975098C134.37 0.975098 156.849 63.6072 156.849 104.352C156.849 164.349 116.176 179.227 105.618 179.227C92.03 179.227 85.039 161.302 105.474 124.501C123.902 91.2306 150.79 71.3332 177.051 71.3332C217.133 71.3332 245.402 125.881 246.226 161.929C246.621 179.55 236.367 185.053 224.249 184.444C209.21 183.709 183.02 176.144 130.355 177.955C94.199 179.192 71.5589 185.663 44.4554 185.663C20.3455 185.663 0.215009 178.134 0.681075 133.499Z" fill="white"/>
<path d="M100.258 143.304C106.03 128.771 114.177 115.299 124.368 103.438C138.422 87.018 150.575 81.73 150.575 81.73C150.575 81.73 158.731 118.173 144.624 146.262C138.959 157.484 125.623 175.051 105.187 176.467C94.5038 177.112 93.6434 160.8 100.258 143.304Z" fill="#4A8B2C"/>
<path d="M242.533 160.531C241.494 126.347 214.803 74.5956 174.739 75.1692C167.741 75.386 160.863 77.0459 154.537 80.045C156.016 88.0642 156.79 96.1977 156.849 104.352C156.849 147.643 135.661 167.432 119.922 175.105C150.799 172.437 181.891 173.793 212.418 179.138C238.052 183.655 242.946 174.262 242.533 160.531Z" fill="#80BC00"/>
<path d="M105.073 124.134C117.066 102.514 132.627 86.5947 149.209 78.0615C147.633 69.6573 145.317 61.4088 142.289 53.412C134.079 31.7026 116.6 4.54338 89.1183 4.81228C70.2054 5.00948 51.5614 18.4367 35.3376 40.2358C16.7654 65.1363 5.07701 101.295 4.34201 130.569C3.3381 171.98 20.4762 181.051 47.5816 181.446C57.8118 181.328 68.0253 180.586 78.1649 179.223C84.278 178.595 91.3412 177.699 98.3685 176.892C89.9608 171.335 88.5267 153.946 105.073 124.134Z" fill="#1A5632"/>
</svg>
